<?xml version="1.0" standalone="no"?>
<!DOCTYPE svg PUBLIC "-//W3C//DTD SVG 20010904//EN"
 "http://www.w3.org/TR/2001/REC-SVG-20010904/DTD/svg10.dtd">
<svg version="1.0" xmlns="http://www.w3.org/2000/svg"
 width="600.000000pt" height="600.000000pt" viewBox="0 0 600.000000 600.000000"
 preserveAspectRatio="xMidYMid meet">
<metadata>
Created by potrace 1.11, written by Peter Selinger 2001-2013
</metadata>
<g transform="translate(0.000000,600.000000) scale(0.100000,-0.100000)"
fill="#000000" stroke="none">
<path d="M2987 5334 c-1 -1 -51 -4 -112 -7 -144 -8 -182 -13 -333 -42 -119
-23 -290 -71 -357 -100 -16 -7 -55 -23 -85 -35 -120 -48 -416 -213 -450 -250
-3 -3 -41 -32 -85 -64 -109 -82 -325 -300 -416 -421 -192 -257 -323 -525 -404
-831 -14 -52 -28 -111 -31 -132 -3 -20 -7 -44 -9 -52 -2 -8 -7 -37 -10 -65 -4
-27 -9 -61 -12 -75 -9 -44 -12 -422 -3 -485 5 -33 11 -87 15 -120 4 -32 8 -62
10 -65 2 -3 6 -21 9 -40 22 -134 117 -438 148 -477 6 -7 8 -13 5 -13 -3 0 22
-52 54 -116 140 -271 319 -503 544 -701 74 -65 268 -213 280 -213 2 0 30 -17
62 -37 143 -91 478 -230 622 -258 13 -2 38 -9 55 -14 17 -5 65 -15 106 -21 41
-7 84 -14 95 -16 95 -18 396 -24 545 -10 47 4 132 16 190 27 58 11 119 22 135
25 85 16 347 113 480 178 127 63 310 173 351 210 7 6 24 20 40 31 15 11 59 46
96 79 245 210 446 469 586 758 29 59 52 110 52 114 0 3 6 20 14 37 34 77 96
274 110 351 3 16 10 52 16 80 10 51 13 73 27 196 10 83 10 396 0 475 -4 33 -9
80 -12 105 -11 88 -42 225 -80 350 -152 500 -498 960 -945 1258 -80 53 -312
175 -410 216 -106 44 -314 106 -410 122 -14 2 -34 6 -46 9 -47 10 -169 25
-251 30 -120 8 -184 11 -186 9z m263 -998 c51 -15 136 -51 162 -68 14 -10 29
-18 32 -18 7 0 61 -36 82 -55 143 -126 203 -212 259 -375 12 -36 23 -69 23
-75 1 -5 4 -35 8 -65 44 -344 -150 -678 -474 -814 -125 -53 -277 -72 -417 -52
-112 16 -265 82 -355 154 -193 153 -302 374 -301 612 1 96 3 121 22 195 81
318 361 556 684 582 39 3 71 6 73 8 4 3 175 -21 202 -29z"/>
</g>
</svg>
