<svg xmlns="http://www.w3.org/2000/svg" width="231.031" height="236.7" viewBox="0 0 231.031 236.7"><defs><style>.a{fill:#fff;}</style></defs><g transform="translate(-1279.766 2463.42)"><path class="a" d="M1787.51-2454.184c-1.046-.239-2.087-.486-3.131-.731-.289-.044-.552-.173-.834-.243-.09-.022-.186-.018-.28-.042.242-.04.469.182.713.035a39.819,39.819,0,0,0-4.36-6.342,5.2,5.2,0,0,0-2.69-1.55,5.412,5.412,0,0,1-1.462-.364h-.516c-.048.275-.1.55-.142.825-.127.835-.128.861.707.96a4.849,4.849,0,0,1,3.328,1.874,41.238,41.238,0,0,1,2.6,3.76c.081.126.26.231.157.459-.126-.022-.252-.04-.376-.064q-4.8-.961-9.673-1.479c-1.271-.137-1.255-.115-1.368,1.157-.037.42.085.559.489.6,1.219.123,2.432.288,3.649.416.335.035.492.089.415.5-.227,1.224-.415,2.455-.587,3.688-.061.431-.245.5-.639.422a8.01,8.01,0,0,0-2.362-.243,3.336,3.336,0,0,0-2.9,2.48,3.242,3.242,0,0,0,1.175,3.617,4.585,4.585,0,0,0,3.24.794,3.042,3.042,0,0,0,2.926-2.684c.09-.507.179-1.016.249-1.525.034-.25.12-.31.38-.265,1.31.229,2.624.448,3.941.638.412.06.448.208.38.589-.289,1.605-.533,3.219-.792,4.83-.141.875-.14.876.7,1.026a6.634,6.634,0,0,1,.76.129c.4.122.554.041.62-.41.261-1.784.568-3.561.859-5.341.328-2.013.672-4.022.973-6.038.067-.445.215-.509.61-.394.6.174,1.211.291,1.814.441,1.413.35,1.4.35,1.7-1.089C1787.845-2454.046,1787.761-2454.125,1787.51-2454.184Zm-14,7.349a1.6,1.6,0,0,1-1.7,1.5,1.677,1.677,0,0,1-1.729-1.692,1.774,1.774,0,0,1,1.882-1.777C1773.775-2448.709,1773.844-2448.62,1773.506-2446.835Zm8.06-6.427c-.213,1.228-.4,2.458-.589,3.689-.05.331-.143.459-.535.386-1.265-.24-2.54-.423-3.813-.622-.281-.044-.526-.1-.412-.408.223-1.36.441-2.651.644-3.944.041-.261.1-.374.406-.314q1.99.39,3.99.73C1781.578-2453.689,1781.616-2453.555,1781.566-2453.262Z" transform="translate(-363.493)"/><path class="a" d="M1494.245-1907.98c.074.588-.152.685-.674.55-1.292-.337-1.986-1.051-1.989-2.1a1.976,1.976,0,0,1,2.175-1.862.465.465,0,0,1,.437.526c.012.578,0,1.156,0,1.734h.037A9.344,9.344,0,0,0,1494.245-1907.98Z" transform="translate(-157.664 -410.884)"/><path class="a" d="M1612.57-1973.9c0-.346-.075-.488-.457-.485q-2.863.027-5.729,0c-.39,0-.524.11-.515.51.025,1.051.009,2.1.009,3.155s-.049,2.106.013,3.154c.068,1.177.551,1.6,1.491,1.774a6.621,6.621,0,0,0,4.927-1.2.608.608,0,0,0,.258-.6C1612.561-1969.691,1612.557-1971.795,1612.57-1973.9Zm0,0c0-.346-.075-.488-.457-.485q-2.863.027-5.729,0c-.39,0-.524.11-.515.51.025,1.051.009,2.1.009,3.155s-.049,2.106.013,3.154c.068,1.177.551,1.6,1.491,1.774a6.621,6.621,0,0,0,4.927-1.2.608.608,0,0,0,.258-.6C1612.561-1969.691,1612.557-1971.795,1612.57-1973.9Zm0,0c0-.346-.075-.488-.457-.485q-2.863.027-5.729,0c-.39,0-.524.11-.515.51.025,1.051.009,2.1.009,3.155s-.049,2.106.013,3.154c.068,1.177.551,1.6,1.491,1.774a6.621,6.621,0,0,0,4.927-1.2.608.608,0,0,0,.258-.6C1612.561-1969.691,1612.557-1971.795,1612.57-1973.9Zm59.307,5.7c0-1.619,0-1.619-1.43-1.39-.127.021-.257.025-.384.047a12.061,12.061,0,0,0-4.624,1.448,2.4,2.4,0,0,0-.9,3.263c.412.954,1.361,1.308,2.686,1.015a8.233,8.233,0,0,0,3.664-2.276C1671.573-1966.71,1672.137-1967.343,1671.877-1968.2Zm0,0c0-1.619,0-1.619-1.43-1.39-.127.021-.257.025-.384.047a12.061,12.061,0,0,0-4.624,1.448,2.4,2.4,0,0,0-.9,3.263c.412.954,1.361,1.308,2.686,1.015a8.233,8.233,0,0,0,3.664-2.276C1671.573-1966.71,1672.137-1967.343,1671.877-1968.2Zm-59.307-5.7c0-.346-.075-.488-.457-.485q-2.863.027-5.729,0c-.39,0-.524.11-.515.51.025,1.051.009,2.1.009,3.155s-.049,2.106.013,3.154c.068,1.177.551,1.6,1.491,1.774a6.621,6.621,0,0,0,4.927-1.2.608.608,0,0,0,.258-.6C1612.561-1969.691,1612.557-1971.795,1612.57-1973.9Zm0,0c0-.346-.075-.488-.457-.485q-2.863.027-5.729,0c-.39,0-.524.11-.515.51.025,1.051.009,2.1.009,3.155s-.049,2.106.013,3.154c.068,1.177.551,1.6,1.491,1.774a6.621,6.621,0,0,0,4.927-1.2.608.608,0,0,0,.258-.6C1612.561-1969.691,1612.557-1971.795,1612.57-1973.9Zm59.307,5.7c0-1.619,0-1.619-1.43-1.39-.127.021-.257.025-.384.047a12.061,12.061,0,0,0-4.624,1.448,2.4,2.4,0,0,0-.9,3.263c.412.954,1.361,1.308,2.686,1.015a8.233,8.233,0,0,0,3.664-2.276C1671.573-1966.71,1672.137-1967.343,1671.877-1968.2Zm0,0c0-1.619,0-1.619-1.43-1.39-.127.021-.257.025-.384.047a12.061,12.061,0,0,0-4.624,1.448,2.4,2.4,0,0,0-.9,3.263c.412.954,1.361,1.308,2.686,1.015a8.233,8.233,0,0,0,3.664-2.276C1671.573-1966.71,1672.137-1967.343,1671.877-1968.2Zm-59.307-5.7c0-.346-.075-.488-.457-.485q-2.863.027-5.729,0c-.39,0-.524.11-.515.51.025,1.051.009,2.1.009,3.155s-.049,2.106.013,3.154c.068,1.177.551,1.6,1.491,1.774a6.621,6.621,0,0,0,4.927-1.2.608.608,0,0,0,.258-.6C1612.561-1969.691,1612.557-1971.795,1612.57-1973.9Zm0,0c0-.346-.075-.488-.457-.485q-2.863.027-5.729,0c-.39,0-.524.11-.515.51.025,1.051.009,2.1.009,3.155s-.049,2.106.013,3.154c.068,1.177.551,1.6,1.491,1.774a6.621,6.621,0,0,0,4.927-1.2.608.608,0,0,0,.258-.6C1612.561-1969.691,1612.557-1971.795,1612.57-1973.9Zm1.735,32.606c-1.167,2.375-2.287,4.653-3.437,6.992h6.844C1616.573-1936.638,1615.461-1938.919,1614.3-1941.292Zm25.856-1.248a3.125,3.125,0,0,0-1.864-.614c-1.374-.011-2.748.013-4.122-.014-.427-.009-.495.163-.484.529.022.772.006,1.545.006,2.318v1.417c0,1.479,0,1.5,1.5,1.474a18.272,18.272,0,0,0,3.787-.126,2.832,2.832,0,0,0,2.348-2.2A2.589,2.589,0,0,0,1640.161-1942.54Zm31.716-25.659c0-1.619,0-1.619-1.43-1.39-.127.021-.257.025-.384.047a12.061,12.061,0,0,0-4.624,1.448,2.4,2.4,0,0,0-.9,3.263c.412.954,1.361,1.308,2.686,1.015a8.233,8.233,0,0,0,3.664-2.276C1671.573-1966.71,1672.137-1967.343,1671.877-1968.2Zm0,0c0-1.619,0-1.619-1.43-1.39-.127.021-.257.025-.384.047a12.061,12.061,0,0,0-4.624,1.448,2.4,2.4,0,0,0-.9,3.263c.412.954,1.361,1.308,2.686,1.015a8.233,8.233,0,0,0,3.664-2.276C1671.573-1966.71,1672.137-1967.343,1671.877-1968.2Zm-31.716,25.659a3.125,3.125,0,0,0-1.864-.614c-1.374-.011-2.748.013-4.122-.014-.427-.009-.495.163-.484.529.022.772.006,1.545.006,2.318v1.417c0,1.479,0,1.5,1.5,1.474a18.272,18.272,0,0,0,3.787-.126,2.832,2.832,0,0,0,2.348-2.2A2.589,2.589,0,0,0,1640.161-1942.54Zm-25.856,1.248c-1.167,2.375-2.287,4.653-3.437,6.992h6.844C1616.573-1936.638,1615.461-1938.919,1614.3-1941.292Zm-1.735-32.606c0-.346-.075-.488-.457-.485q-2.863.027-5.729,0c-.39,0-.524.11-.515.51.025,1.051.009,2.1.009,3.155s-.049,2.106.013,3.154c.068,1.177.551,1.6,1.491,1.774a6.621,6.621,0,0,0,4.927-1.2.608.608,0,0,0,.258-.6C1612.561-1969.691,1612.557-1971.795,1612.57-1973.9Zm-18.238,31.479a2.838,2.838,0,0,0-1.98-.79c-1.351-.028-2.7-.008-4.052-.026-.308-.005-.4.094-.4.4q.022,1.9,0,3.8c-.005.336.1.45.442.438.621-.022,1.243-.007,1.865-.007.578,0,1.158.013,1.736,0a3.651,3.651,0,0,0,2.185-.626A2.032,2.032,0,0,0,1594.332-1942.418Zm.665,8.291a3.113,3.113,0,0,0-2.021-.707c-1.544-.018-3.089,0-4.632-.016-.325,0-.45.072-.445.425q.031,1.864,0,3.732c-.005.356.09.493.466.48.792-.026,1.588-.008,2.38-.008.751,0,1.5.007,2.252,0a3.149,3.149,0,0,0,1.918-.631A2.042,2.042,0,0,0,1595-1934.128Zm17.573-39.769c0-.346-.075-.488-.457-.485q-2.863.027-5.729,0c-.39,0-.524.11-.515.51.025,1.051.009,2.1.009,3.155s-.049,2.106.013,3.154c.068,1.177.551,1.6,1.491,1.774a6.621,6.621,0,0,0,4.927-1.2.608.608,0,0,0,.258-.6C1612.561-1969.691,1612.557-1971.795,1612.57-1973.9Zm1.735,32.606c-1.167,2.375-2.287,4.653-3.437,6.992h6.844C1616.573-1936.638,1615.461-1938.919,1614.3-1941.292Zm25.856-1.248a3.125,3.125,0,0,0-1.864-.614c-1.374-.011-2.748.013-4.122-.014-.427-.009-.495.163-.484.529.022.772.006,1.545.006,2.318v1.417c0,1.479,0,1.5,1.5,1.474a18.272,18.272,0,0,0,3.787-.126,2.832,2.832,0,0,0,2.348-2.2A2.589,2.589,0,0,0,1640.161-1942.54Zm31.716-25.659c0-1.619,0-1.619-1.43-1.39-.127.021-.257.025-.384.047a12.061,12.061,0,0,0-4.624,1.448,2.4,2.4,0,0,0-.9,3.263c.412.954,1.361,1.308,2.686,1.015a8.233,8.233,0,0,0,3.664-2.276C1671.573-1966.71,1672.137-1967.343,1671.877-1968.2Zm0,0c0-1.619,0-1.619-1.43-1.39-.127.021-.257.025-.384.047a12.061,12.061,0,0,0-4.624,1.448,2.4,2.4,0,0,0-.9,3.263c.412.954,1.361,1.308,2.686,1.015a8.233,8.233,0,0,0,3.664-2.276C1671.573-1966.71,1672.137-1967.343,1671.877-1968.2Zm-31.716,25.659a3.125,3.125,0,0,0-1.864-.614c-1.374-.011-2.748.013-4.122-.014-.427-.009-.495.163-.484.529.022.772.006,1.545.006,2.318v1.417c0,1.479,0,1.5,1.5,1.474a18.272,18.272,0,0,0,3.787-.126,2.832,2.832,0,0,0,2.348-2.2A2.589,2.589,0,0,0,1640.161-1942.54Zm-25.856,1.248c-1.167,2.375-2.287,4.653-3.437,6.992h6.844C1616.573-1936.638,1615.461-1938.919,1614.3-1941.292Zm-1.735-32.606c0-.346-.075-.488-.457-.485q-2.863.027-5.729,0c-.39,0-.524.11-.515.51.025,1.051.009,2.1.009,3.155s-.049,2.106.013,3.154c.068,1.177.551,1.6,1.491,1.774a6.621,6.621,0,0,0,4.927-1.2.608.608,0,0,0,.258-.6C1612.561-1969.691,1612.557-1971.795,1612.57-1973.9ZM1595-1934.128a3.113,3.113,0,0,0-2.021-.707c-1.544-.018-3.089,0-4.632-.016-.325,0-.45.072-.445.425q.031,1.864,0,3.732c-.005.356.09.493.466.48.792-.026,1.588-.008,2.38-.008.751,0,1.5.007,2.252,0a3.149,3.149,0,0,0,1.918-.631A2.042,2.042,0,0,0,1595-1934.128Zm-.665-8.291a2.838,2.838,0,0,0-1.98-.79c-1.351-.028-2.7-.008-4.052-.026-.308-.005-.4.094-.4.4q.022,1.9,0,3.8c-.005.336.1.45.442.438.621-.022,1.243-.007,1.865-.007.578,0,1.158.013,1.736,0a3.651,3.651,0,0,0,2.185-.626A2.032,2.032,0,0,0,1594.332-1942.418Zm0,0a2.838,2.838,0,0,0-1.98-.79c-1.351-.028-2.7-.008-4.052-.026-.308-.005-.4.094-.4.4q.022,1.9,0,3.8c-.005.336.1.45.442.438.621-.022,1.243-.007,1.865-.007.578,0,1.158.013,1.736,0a3.651,3.651,0,0,0,2.185-.626A2.032,2.032,0,0,0,1594.332-1942.418Zm.665,8.291a3.113,3.113,0,0,0-2.021-.707c-1.544-.018-3.089,0-4.632-.016-.325,0-.45.072-.445.425q.031,1.864,0,3.732c-.005.356.09.493.466.48.792-.026,1.588-.008,2.38-.008.751,0,1.5.007,2.252,0a3.149,3.149,0,0,0,1.918-.631A2.042,2.042,0,0,0,1595-1934.128Zm17.573-39.769c0-.346-.075-.488-.457-.485q-2.863.027-5.729,0c-.39,0-.524.11-.515.51.025,1.051.009,2.1.009,3.155s-.049,2.106.013,3.154c.068,1.177.551,1.6,1.491,1.774a6.621,6.621,0,0,0,4.927-1.2.608.608,0,0,0,.258-.6C1612.561-1969.691,1612.557-1971.795,1612.57-1973.9Zm1.735,32.606c-1.167,2.375-2.287,4.653-3.437,6.992h6.844C1616.573-1936.638,1615.461-1938.919,1614.3-1941.292Zm25.856-1.248a3.125,3.125,0,0,0-1.864-.614c-1.374-.011-2.748.013-4.122-.014-.427-.009-.495.163-.484.529.022.772.006,1.545.006,2.318v1.417c0,1.479,0,1.5,1.5,1.474a18.272,18.272,0,0,0,3.787-.126,2.832,2.832,0,0,0,2.348-2.2A2.589,2.589,0,0,0,1640.161-1942.54Zm31.716-25.659c0-1.619,0-1.619-1.43-1.39-.127.021-.257.025-.384.047a12.061,12.061,0,0,0-4.624,1.448,2.4,2.4,0,0,0-.9,3.263c.412.954,1.361,1.308,2.686,1.015a8.233,8.233,0,0,0,3.664-2.276C1671.573-1966.71,1672.137-1967.343,1671.877-1968.2Zm0,0c0-1.619,0-1.619-1.43-1.39-.127.021-.257.025-.384.047a12.061,12.061,0,0,0-4.624,1.448,2.4,2.4,0,0,0-.9,3.263c.412.954,1.361,1.308,2.686,1.015a8.233,8.233,0,0,0,3.664-2.276C1671.573-1966.71,1672.137-1967.343,1671.877-1968.2Zm-31.716,25.659a3.125,3.125,0,0,0-1.864-.614c-1.374-.011-2.748.013-4.122-.014-.427-.009-.495.163-.484.529.022.772.006,1.545.006,2.318v1.417c0,1.479,0,1.5,1.5,1.474a18.272,18.272,0,0,0,3.787-.126,2.832,2.832,0,0,0,2.348-2.2A2.589,2.589,0,0,0,1640.161-1942.54Zm-25.856,1.248c-1.167,2.375-2.287,4.653-3.437,6.992h6.844C1616.573-1936.638,1615.461-1938.919,1614.3-1941.292Zm-1.735-32.606c0-.346-.075-.488-.457-.485q-2.863.027-5.729,0c-.39,0-.524.11-.515.51.025,1.051.009,2.1.009,3.155s-.049,2.106.013,3.154c.068,1.177.551,1.6,1.491,1.774a6.621,6.621,0,0,0,4.927-1.2.608.608,0,0,0,.258-.6C1612.561-1969.691,1612.557-1971.795,1612.57-1973.9ZM1595-1934.128a3.113,3.113,0,0,0-2.021-.707c-1.544-.018-3.089,0-4.632-.016-.325,0-.45.072-.445.425q.031,1.864,0,3.732c-.005.356.09.493.466.48.792-.026,1.588-.008,2.38-.008.751,0,1.5.007,2.252,0a3.149,3.149,0,0,0,1.918-.631A2.042,2.042,0,0,0,1595-1934.128Zm-.665-8.291a2.838,2.838,0,0,0-1.98-.79c-1.351-.028-2.7-.008-4.052-.026-.308-.005-.4.094-.4.4q.022,1.9,0,3.8c-.005.336.1.45.442.438.621-.022,1.243-.007,1.865-.007.578,0,1.158.013,1.736,0a3.651,3.651,0,0,0,2.185-.626A2.032,2.032,0,0,0,1594.332-1942.418Zm0,0a2.838,2.838,0,0,0-1.98-.79c-1.351-.028-2.7-.008-4.052-.026-.308-.005-.4.094-.4.4q.022,1.9,0,3.8c-.005.336.1.45.442.438.621-.022,1.243-.007,1.865-.007.578,0,1.158.013,1.736,0a3.651,3.651,0,0,0,2.185-.626A2.032,2.032,0,0,0,1594.332-1942.418Zm.665,8.291a3.113,3.113,0,0,0-2.021-.707c-1.544-.018-3.089,0-4.632-.016-.325,0-.45.072-.445.425q.031,1.864,0,3.732c-.005.356.09.493.466.48.792-.026,1.588-.008,2.38-.008.751,0,1.5.007,2.252,0a3.149,3.149,0,0,0,1.918-.631A2.042,2.042,0,0,0,1595-1934.128Zm17.573-39.769c0-.346-.075-.488-.457-.485q-2.863.027-5.729,0c-.39,0-.524.11-.515.51.025,1.051.009,2.1.009,3.155s-.049,2.106.013,3.154c.068,1.177.551,1.6,1.491,1.774a6.621,6.621,0,0,0,4.927-1.2.608.608,0,0,0,.258-.6C1612.561-1969.691,1612.557-1971.795,1612.57-1973.9Zm1.735,32.606c-1.167,2.375-2.287,4.653-3.437,6.992h6.844C1616.573-1936.638,1615.461-1938.919,1614.3-1941.292Zm25.856-1.248a3.125,3.125,0,0,0-1.864-.614c-1.374-.011-2.748.013-4.122-.014-.427-.009-.495.163-.484.529.022.772.006,1.545.006,2.318v1.417c0,1.479,0,1.5,1.5,1.474a18.272,18.272,0,0,0,3.787-.126,2.832,2.832,0,0,0,2.348-2.2A2.589,2.589,0,0,0,1640.161-1942.54Zm31.716-25.659c0-1.619,0-1.619-1.43-1.39-.127.021-.257.025-.384.047a12.061,12.061,0,0,0-4.624,1.448,2.4,2.4,0,0,0-.9,3.263c.412.954,1.361,1.308,2.686,1.015a8.233,8.233,0,0,0,3.664-2.276C1671.573-1966.71,1672.137-1967.343,1671.877-1968.2Zm0,0c0-1.619,0-1.619-1.43-1.39-.127.021-.257.025-.384.047a12.061,12.061,0,0,0-4.624,1.448,2.4,2.4,0,0,0-.9,3.263c.412.954,1.361,1.308,2.686,1.015a8.233,8.233,0,0,0,3.664-2.276C1671.573-1966.71,1672.137-1967.343,1671.877-1968.2Zm-31.716,25.659a3.125,3.125,0,0,0-1.864-.614c-1.374-.011-2.748.013-4.122-.014-.427-.009-.495.163-.484.529.022.772.006,1.545.006,2.318v1.417c0,1.479,0,1.5,1.5,1.474a18.272,18.272,0,0,0,3.787-.126,2.832,2.832,0,0,0,2.348-2.2A2.589,2.589,0,0,0,1640.161-1942.54Zm-25.856,1.248c-1.167,2.375-2.287,4.653-3.437,6.992h6.844C1616.573-1936.638,1615.461-1938.919,1614.3-1941.292Zm-1.735-32.606c0-.346-.075-.488-.457-.485q-2.863.027-5.729,0c-.39,0-.524.11-.515.51.025,1.051.009,2.1.009,3.155s-.049,2.106.013,3.154c.068,1.177.551,1.6,1.491,1.774a6.621,6.621,0,0,0,4.927-1.2.608.608,0,0,0,.258-.6C1612.561-1969.691,1612.557-1971.795,1612.57-1973.9ZM1595-1934.128a3.113,3.113,0,0,0-2.021-.707c-1.544-.018-3.089,0-4.632-.016-.325,0-.45.072-.445.425q.031,1.864,0,3.732c-.005.356.09.493.466.48.792-.026,1.588-.008,2.38-.008.751,0,1.5.007,2.252,0a3.149,3.149,0,0,0,1.918-.631A2.042,2.042,0,0,0,1595-1934.128Zm-.665-8.291a2.838,2.838,0,0,0-1.98-.79c-1.351-.028-2.7-.008-4.052-.026-.308-.005-.4.094-.4.4q.022,1.9,0,3.8c-.005.336.1.45.442.438.621-.022,1.243-.007,1.865-.007.578,0,1.158.013,1.736,0a3.651,3.651,0,0,0,2.185-.626A2.032,2.032,0,0,0,1594.332-1942.418Zm0,0a2.838,2.838,0,0,0-1.98-.79c-1.351-.028-2.7-.008-4.052-.026-.308-.005-.4.094-.4.4q.022,1.9,0,3.8c-.005.336.1.45.442.438.621-.022,1.243-.007,1.865-.007.578,0,1.158.013,1.736,0a3.651,3.651,0,0,0,2.185-.626A2.032,2.032,0,0,0,1594.332-1942.418Zm.665,8.291a3.113,3.113,0,0,0-2.021-.707c-1.544-.018-3.089,0-4.632-.016-.325,0-.45.072-.445.425q.031,1.864,0,3.732c-.005.356.09.493.466.48.792-.026,1.588-.008,2.38-.008.751,0,1.5.007,2.252,0a3.149,3.149,0,0,0,1.918-.631A2.042,2.042,0,0,0,1595-1934.128Zm17.573-39.769c0-.346-.075-.488-.457-.485q-2.863.027-5.729,0c-.39,0-.524.11-.515.51.025,1.051.009,2.1.009,3.155s-.049,2.106.013,3.154c.068,1.177.551,1.6,1.491,1.774a6.621,6.621,0,0,0,4.927-1.2.608.608,0,0,0,.258-.6C1612.561-1969.691,1612.557-1971.795,1612.57-1973.9Zm1.735,32.606c-1.167,2.375-2.287,4.653-3.437,6.992h6.844C1616.573-1936.638,1615.461-1938.919,1614.3-1941.292Zm25.856-1.248a3.125,3.125,0,0,0-1.864-.614c-1.374-.011-2.748.013-4.122-.014-.427-.009-.495.163-.484.529.022.772.006,1.545.006,2.318v1.417c0,1.479,0,1.5,1.5,1.474a18.272,18.272,0,0,0,3.787-.126,2.832,2.832,0,0,0,2.348-2.2A2.589,2.589,0,0,0,1640.161-1942.54Zm31.716-25.659c0-1.619,0-1.619-1.43-1.39-.127.021-.257.025-.384.047a12.061,12.061,0,0,0-4.624,1.448,2.4,2.4,0,0,0-.9,3.263c.412.954,1.361,1.308,2.686,1.015a8.233,8.233,0,0,0,3.664-2.276C1671.573-1966.71,1672.137-1967.343,1671.877-1968.2Zm0,0c0-1.619,0-1.619-1.43-1.39-.127.021-.257.025-.384.047a12.061,12.061,0,0,0-4.624,1.448,2.4,2.4,0,0,0-.9,3.263c.412.954,1.361,1.308,2.686,1.015a8.233,8.233,0,0,0,3.664-2.276C1671.573-1966.71,1672.137-1967.343,1671.877-1968.2Zm-31.716,25.659a3.125,3.125,0,0,0-1.864-.614c-1.374-.011-2.748.013-4.122-.014-.427-.009-.495.163-.484.529.022.772.006,1.545.006,2.318v1.417c0,1.479,0,1.5,1.5,1.474a18.272,18.272,0,0,0,3.787-.126,2.832,2.832,0,0,0,2.348-2.2A2.589,2.589,0,0,0,1640.161-1942.54Zm-25.856,1.248c-1.167,2.375-2.287,4.653-3.437,6.992h6.844C1616.573-1936.638,1615.461-1938.919,1614.3-1941.292Zm-1.735-32.606c0-.346-.075-.488-.457-.485q-2.863.027-5.729,0c-.39,0-.524.11-.515.51.025,1.051.009,2.1.009,3.155s-.049,2.106.013,3.154c.068,1.177.551,1.6,1.491,1.774a6.621,6.621,0,0,0,4.927-1.2.608.608,0,0,0,.258-.6C1612.561-1969.691,1612.557-1971.795,1612.57-1973.9ZM1595-1934.128a3.113,3.113,0,0,0-2.021-.707c-1.544-.018-3.089,0-4.632-.016-.325,0-.45.072-.445.425q.031,1.864,0,3.732c-.005.356.09.493.466.48.792-.026,1.588-.008,2.38-.008.751,0,1.5.007,2.252,0a3.149,3.149,0,0,0,1.918-.631A2.042,2.042,0,0,0,1595-1934.128Zm-.665-8.291a2.838,2.838,0,0,0-1.98-.79c-1.351-.028-2.7-.008-4.052-.026-.308-.005-.4.094-.4.4q.022,1.9,0,3.8c-.005.336.1.45.442.438.621-.022,1.243-.007,1.865-.007.578,0,1.158.013,1.736,0a3.651,3.651,0,0,0,2.185-.626A2.032,2.032,0,0,0,1594.332-1942.418Zm120.779-54.874a5.65,5.65,0,0,0-.137-.874.716.716,0,0,1,0,.1c-.015.793.207,1.571.132,2.369a25.028,25.028,0,0,0-.124,3.464c.136-.723-.037-1.462.085-2.18A10.394,10.394,0,0,0,1715.111-1997.292Zm-43.234,29.094c0-1.619,0-1.619-1.43-1.39-.127.021-.257.025-.384.047a12.061,12.061,0,0,0-4.624,1.448,2.4,2.4,0,0,0-.9,3.263c.412.954,1.361,1.308,2.686,1.015a8.233,8.233,0,0,0,3.664-2.276C1671.573-1966.71,1672.137-1967.343,1671.877-1968.2Zm-31.716,25.659a3.125,3.125,0,0,0-1.864-.614c-1.374-.011-2.748.013-4.122-.014-.427-.009-.495.163-.484.529.022.772.006,1.545.006,2.318v1.417c0,1.479,0,1.5,1.5,1.474a18.272,18.272,0,0,0,3.787-.126,2.832,2.832,0,0,0,2.348-2.2A2.589,2.589,0,0,0,1640.161-1942.54Zm-25.856,1.248c-1.167,2.375-2.287,4.653-3.437,6.992h6.844C1616.573-1936.638,1615.461-1938.919,1614.3-1941.292Zm-1.735-32.606c0-.346-.075-.488-.457-.485q-2.863.027-5.729,0c-.39,0-.524.11-.515.51.025,1.051.009,2.1.009,3.155s-.049,2.106.013,3.154c.068,1.177.551,1.6,1.491,1.774a6.621,6.621,0,0,0,4.927-1.2.608.608,0,0,0,.258-.6C1612.561-1969.691,1612.557-1971.795,1612.57-1973.9ZM1595-1934.128a3.113,3.113,0,0,0-2.021-.707c-1.544-.018-3.089,0-4.632-.016-.325,0-.45.072-.445.425q.031,1.864,0,3.732c-.005.356.09.493.466.48.792-.026,1.588-.008,2.38-.008.751,0,1.5.007,2.252,0a3.149,3.149,0,0,0,1.918-.631A2.042,2.042,0,0,0,1595-1934.128Zm-.665-8.291a2.838,2.838,0,0,0-1.98-.79c-1.351-.028-2.7-.008-4.052-.026-.308-.005-.4.094-.4.4q.022,1.9,0,3.8c-.005.336.1.45.442.438.621-.022,1.243-.007,1.865-.007.578,0,1.158.013,1.736,0a3.651,3.651,0,0,0,2.185-.626A2.032,2.032,0,0,0,1594.332-1942.418Zm0,0a2.838,2.838,0,0,0-1.98-.79c-1.351-.028-2.7-.008-4.052-.026-.308-.005-.4.094-.4.4q.022,1.9,0,3.8c-.005.336.1.45.442.438.621-.022,1.243-.007,1.865-.007.578,0,1.158.013,1.736,0a3.651,3.651,0,0,0,2.185-.626A2.032,2.032,0,0,0,1594.332-1942.418Zm.665,8.291a3.113,3.113,0,0,0-2.021-.707c-1.544-.018-3.089,0-4.632-.016-.325,0-.45.072-.445.425q.031,1.864,0,3.732c-.005.356.09.493.466.48.792-.026,1.588-.008,2.38-.008.751,0,1.5.007,2.252,0a3.149,3.149,0,0,0,1.918-.631A2.042,2.042,0,0,0,1595-1934.128Zm17.573-39.769c0-.346-.075-.488-.457-.485q-2.863.027-5.729,0c-.39,0-.524.11-.515.51.025,1.051.009,2.1.009,3.155s-.049,2.106.013,3.154c.068,1.177.551,1.6,1.491,1.774a6.621,6.621,0,0,0,4.927-1.2.608.608,0,0,0,.258-.6C1612.561-1969.691,1612.557-1971.795,1612.57-1973.9Zm1.735,32.606c-1.167,2.375-2.287,4.653-3.437,6.992h6.844C1616.573-1936.638,1615.461-1938.919,1614.3-1941.292Zm25.856-1.248a3.125,3.125,0,0,0-1.864-.614c-1.374-.011-2.748.013-4.122-.014-.427-.009-.495.163-.484.529.022.772.006,1.545.006,2.318v1.417c0,1.479,0,1.5,1.5,1.474a18.272,18.272,0,0,0,3.787-.126,2.832,2.832,0,0,0,2.348-2.2A2.589,2.589,0,0,0,1640.161-1942.54Zm31.716-25.659c0-1.619,0-1.619-1.43-1.39-.127.021-.257.025-.384.047a12.061,12.061,0,0,0-4.624,1.448,2.4,2.4,0,0,0-.9,3.263c.412.954,1.361,1.308,2.686,1.015a8.233,8.233,0,0,0,3.664-2.276C1671.573-1966.71,1672.137-1967.343,1671.877-1968.2Zm0,0c0-1.619,0-1.619-1.43-1.39-.127.021-.257.025-.384.047a12.061,12.061,0,0,0-4.624,1.448,2.4,2.4,0,0,0-.9,3.263c.412.954,1.361,1.308,2.686,1.015a8.233,8.233,0,0,0,3.664-2.276C1671.573-1966.71,1672.137-1967.343,1671.877-1968.2Zm-31.716,25.659a3.125,3.125,0,0,0-1.864-.614c-1.374-.011-2.748.013-4.122-.014-.427-.009-.495.163-.484.529.022.772.006,1.545.006,2.318v1.417c0,1.479,0,1.5,1.5,1.474a18.272,18.272,0,0,0,3.787-.126,2.832,2.832,0,0,0,2.348-2.2A2.589,2.589,0,0,0,1640.161-1942.54Zm-25.856,1.248c-1.167,2.375-2.287,4.653-3.437,6.992h6.844C1616.573-1936.638,1615.461-1938.919,1614.3-1941.292Zm-1.735-32.606c0-.346-.075-.488-.457-.485q-2.863.027-5.729,0c-.39,0-.524.11-.515.51.025,1.051.009,2.1.009,3.155s-.049,2.106.013,3.154c.068,1.177.551,1.6,1.491,1.774a6.621,6.621,0,0,0,4.927-1.2.608.608,0,0,0,.258-.6C1612.561-1969.691,1612.557-1971.795,1612.57-1973.9ZM1595-1934.128a3.113,3.113,0,0,0-2.021-.707c-1.544-.018-3.089,0-4.632-.016-.325,0-.45.072-.445.425q.031,1.864,0,3.732c-.005.356.09.493.466.48.792-.026,1.588-.008,2.38-.008.751,0,1.5.007,2.252,0a3.149,3.149,0,0,0,1.918-.631A2.042,2.042,0,0,0,1595-1934.128Zm-.665-8.291a2.838,2.838,0,0,0-1.98-.79c-1.351-.028-2.7-.008-4.052-.026-.308-.005-.4.094-.4.4q.022,1.9,0,3.8c-.005.336.1.45.442.438.621-.022,1.243-.007,1.865-.007.578,0,1.158.013,1.736,0a3.651,3.651,0,0,0,2.185-.626A2.032,2.032,0,0,0,1594.332-1942.418Zm0,0a2.838,2.838,0,0,0-1.98-.79c-1.351-.028-2.7-.008-4.052-.026-.308-.005-.4.094-.4.4q.022,1.9,0,3.8c-.005.336.1.45.442.438.621-.022,1.243-.007,1.865-.007.578,0,1.158.013,1.736,0a3.651,3.651,0,0,0,2.185-.626A2.032,2.032,0,0,0,1594.332-1942.418Zm.665,8.291a3.113,3.113,0,0,0-2.021-.707c-1.544-.018-3.089,0-4.632-.016-.325,0-.45.072-.445.425q.031,1.864,0,3.732c-.005.356.09.493.466.48.792-.026,1.588-.008,2.38-.008.751,0,1.5.007,2.252,0a3.149,3.149,0,0,0,1.918-.631A2.042,2.042,0,0,0,1595-1934.128Zm17.573-39.769c0-.346-.075-.488-.457-.485q-2.863.027-5.729,0c-.39,0-.524.11-.515.51.025,1.051.009,2.1.009,3.155s-.049,2.106.013,3.154c.068,1.177.551,1.6,1.491,1.774a6.621,6.621,0,0,0,4.927-1.2.608.608,0,0,0,.258-.6C1612.561-1969.691,1612.557-1971.795,1612.57-1973.9Zm1.735,32.606c-1.167,2.375-2.287,4.653-3.437,6.992h6.844C1616.573-1936.638,1615.461-1938.919,1614.3-1941.292Zm25.856-1.248a3.125,3.125,0,0,0-1.864-.614c-1.374-.011-2.748.013-4.122-.014-.427-.009-.495.163-.484.529.022.772.006,1.545.006,2.318v1.417c0,1.479,0,1.5,1.5,1.474a18.272,18.272,0,0,0,3.787-.126,2.832,2.832,0,0,0,2.348-2.2A2.589,2.589,0,0,0,1640.161-1942.54Zm31.716-25.659c0-1.619,0-1.619-1.43-1.39-.127.021-.257.025-.384.047a12.061,12.061,0,0,0-4.624,1.448,2.4,2.4,0,0,0-.9,3.263c.412.954,1.361,1.308,2.686,1.015a8.233,8.233,0,0,0,3.664-2.276C1671.573-1966.71,1672.137-1967.343,1671.877-1968.2Zm0,0c0-1.619,0-1.619-1.43-1.39-.127.021-.257.025-.384.047a12.061,12.061,0,0,0-4.624,1.448,2.4,2.4,0,0,0-.9,3.263c.412.954,1.361,1.308,2.686,1.015a8.233,8.233,0,0,0,3.664-2.276C1671.573-1966.71,1672.137-1967.343,1671.877-1968.2Zm-31.716,25.659a3.125,3.125,0,0,0-1.864-.614c-1.374-.011-2.748.013-4.122-.014-.427-.009-.495.163-.484.529.022.772.006,1.545.006,2.318v1.417c0,1.479,0,1.5,1.5,1.474a18.272,18.272,0,0,0,3.787-.126,2.832,2.832,0,0,0,2.348-2.2A2.589,2.589,0,0,0,1640.161-1942.54Zm-25.856,1.248c-1.167,2.375-2.287,4.653-3.437,6.992h6.844C1616.573-1936.638,1615.461-1938.919,1614.3-1941.292Zm-1.735-32.606c0-.346-.075-.488-.457-.485q-2.863.027-5.729,0c-.39,0-.524.11-.515.51.025,1.051.009,2.1.009,3.155s-.049,2.106.013,3.154c.068,1.177.551,1.6,1.491,1.774a6.621,6.621,0,0,0,4.927-1.2.608.608,0,0,0,.258-.6C1612.561-1969.691,1612.557-1971.795,1612.57-1973.9ZM1595-1934.128a3.113,3.113,0,0,0-2.021-.707c-1.544-.018-3.089,0-4.632-.016-.325,0-.45.072-.445.425q.031,1.864,0,3.732c-.005.356.09.493.466.48.792-.026,1.588-.008,2.38-.008.751,0,1.5.007,2.252,0a3.149,3.149,0,0,0,1.918-.631A2.042,2.042,0,0,0,1595-1934.128Zm-.665-8.291a2.838,2.838,0,0,0-1.98-.79c-1.351-.028-2.7-.008-4.052-.026-.308-.005-.4.094-.4.4q.022,1.9,0,3.8c-.005.336.1.45.442.438.621-.022,1.243-.007,1.865-.007.578,0,1.158.013,1.736,0a3.651,3.651,0,0,0,2.185-.626A2.032,2.032,0,0,0,1594.332-1942.418Zm0,0a2.838,2.838,0,0,0-1.98-.79c-1.351-.028-2.7-.008-4.052-.026-.308-.005-.4.094-.4.4q.022,1.9,0,3.8c-.005.336.1.45.442.438.621-.022,1.243-.007,1.865-.007.578,0,1.158.013,1.736,0a3.651,3.651,0,0,0,2.185-.626A2.032,2.032,0,0,0,1594.332-1942.418Zm.665,8.291a3.113,3.113,0,0,0-2.021-.707c-1.544-.018-3.089,0-4.632-.016-.325,0-.45.072-.445.425q.031,1.864,0,3.732c-.005.356.09.493.466.48.792-.026,1.588-.008,2.38-.008.751,0,1.5.007,2.252,0a3.149,3.149,0,0,0,1.918-.631A2.042,2.042,0,0,0,1595-1934.128Zm17.573-39.769c0-.346-.075-.488-.457-.485q-2.863.027-5.729,0c-.39,0-.524.11-.515.51.025,1.051.009,2.1.009,3.155s-.049,2.106.013,3.154c.068,1.177.551,1.6,1.491,1.774a6.621,6.621,0,0,0,4.927-1.2.608.608,0,0,0,.258-.6C1612.561-1969.691,1612.557-1971.795,1612.57-1973.9Zm1.735,32.606c-1.167,2.375-2.287,4.653-3.437,6.992h6.844C1616.573-1936.638,1615.461-1938.919,1614.3-1941.292Zm25.856-1.248a3.125,3.125,0,0,0-1.864-.614c-1.374-.011-2.748.013-4.122-.014-.427-.009-.495.163-.484.529.022.772.006,1.545.006,2.318v1.417c0,1.479,0,1.5,1.5,1.474a18.272,18.272,0,0,0,3.787-.126,2.832,2.832,0,0,0,2.348-2.2A2.589,2.589,0,0,0,1640.161-1942.54Zm31.716-25.659c0-1.619,0-1.619-1.43-1.39-.127.021-.257.025-.384.047a12.061,12.061,0,0,0-4.624,1.448,2.4,2.4,0,0,0-.9,3.263c.412.954,1.361,1.308,2.686,1.015a8.233,8.233,0,0,0,3.664-2.276C1671.573-1966.71,1672.137-1967.343,1671.877-1968.2Zm0,0c0-1.619,0-1.619-1.43-1.39-.127.021-.257.025-.384.047a12.061,12.061,0,0,0-4.624,1.448,2.4,2.4,0,0,0-.9,3.263c.412.954,1.361,1.308,2.686,1.015a8.233,8.233,0,0,0,3.664-2.276C1671.573-1966.71,1672.137-1967.343,1671.877-1968.2Zm-31.716,25.659a3.125,3.125,0,0,0-1.864-.614c-1.374-.011-2.748.013-4.122-.014-.427-.009-.495.163-.484.529.022.772.006,1.545.006,2.318v1.417c0,1.479,0,1.5,1.5,1.474a18.272,18.272,0,0,0,3.787-.126,2.832,2.832,0,0,0,2.348-2.2A2.589,2.589,0,0,0,1640.161-1942.54Zm-25.856,1.248c-1.167,2.375-2.287,4.653-3.437,6.992h6.844C1616.573-1936.638,1615.461-1938.919,1614.3-1941.292Zm-1.735-32.606c0-.346-.075-.488-.457-.485q-2.863.027-5.729,0c-.39,0-.524.11-.515.51.025,1.051.009,2.1.009,3.155s-.049,2.106.013,3.154c.068,1.177.551,1.6,1.491,1.774a6.621,6.621,0,0,0,4.927-1.2.608.608,0,0,0,.258-.6C1612.561-1969.691,1612.557-1971.795,1612.57-1973.9ZM1595-1934.128a3.113,3.113,0,0,0-2.021-.707c-1.544-.018-3.089,0-4.632-.016-.325,0-.45.072-.445.425q.031,1.864,0,3.732c-.005.356.09.493.466.48.792-.026,1.588-.008,2.38-.008.751,0,1.5.007,2.252,0a3.149,3.149,0,0,0,1.918-.631A2.042,2.042,0,0,0,1595-1934.128Zm-.665-8.291a2.838,2.838,0,0,0-1.98-.79c-1.351-.028-2.7-.008-4.052-.026-.308-.005-.4.094-.4.4q.022,1.9,0,3.8c-.005.336.1.45.442.438.621-.022,1.243-.007,1.865-.007.578,0,1.158.013,1.736,0a3.651,3.651,0,0,0,2.185-.626A2.032,2.032,0,0,0,1594.332-1942.418Zm0,0a2.838,2.838,0,0,0-1.98-.79c-1.351-.028-2.7-.008-4.052-.026-.308-.005-.4.094-.4.4q.022,1.9,0,3.8c-.005.336.1.45.442.438.621-.022,1.243-.007,1.865-.007.578,0,1.158.013,1.736,0a3.651,3.651,0,0,0,2.185-.626A2.032,2.032,0,0,0,1594.332-1942.418Zm.665,8.291a3.113,3.113,0,0,0-2.021-.707c-1.544-.018-3.089,0-4.632-.016-.325,0-.45.072-.445.425q.031,1.864,0,3.732c-.005.356.09.493.466.48.792-.026,1.588-.008,2.38-.008.751,0,1.5.007,2.252,0a3.149,3.149,0,0,0,1.918-.631A2.042,2.042,0,0,0,1595-1934.128Zm17.573-39.769c0-.346-.075-.488-.457-.485q-2.863.027-5.729,0c-.39,0-.524.11-.515.51.025,1.051.009,2.1.009,3.155s-.049,2.106.013,3.154c.068,1.177.551,1.6,1.491,1.774a6.621,6.621,0,0,0,4.927-1.2.608.608,0,0,0,.258-.6C1612.561-1969.691,1612.557-1971.795,1612.57-1973.9Zm1.735,32.606c-1.167,2.375-2.287,4.653-3.437,6.992h6.844C1616.573-1936.638,1615.461-1938.919,1614.3-1941.292Zm25.856-1.248a3.125,3.125,0,0,0-1.864-.614c-1.374-.011-2.748.013-4.122-.014-.427-.009-.495.163-.484.529.022.772.006,1.545.006,2.318v1.417c0,1.479,0,1.5,1.5,1.474a18.272,18.272,0,0,0,3.787-.126,2.832,2.832,0,0,0,2.348-2.2A2.589,2.589,0,0,0,1640.161-1942.54Zm31.716-25.659c0-1.619,0-1.619-1.43-1.39-.127.021-.257.025-.384.047a12.061,12.061,0,0,0-4.624,1.448,2.4,2.4,0,0,0-.9,3.263c.412.954,1.361,1.308,2.686,1.015a8.233,8.233,0,0,0,3.664-2.276C1671.573-1966.71,1672.137-1967.343,1671.877-1968.2Zm0,0c0-1.619,0-1.619-1.43-1.39-.127.021-.257.025-.384.047a12.061,12.061,0,0,0-4.624,1.448,2.4,2.4,0,0,0-.9,3.263c.412.954,1.361,1.308,2.686,1.015a8.233,8.233,0,0,0,3.664-2.276C1671.573-1966.71,1672.137-1967.343,1671.877-1968.2Zm-31.716,25.659a3.125,3.125,0,0,0-1.864-.614c-1.374-.011-2.748.013-4.122-.014-.427-.009-.495.163-.484.529.022.772.006,1.545.006,2.318v1.417c0,1.479,0,1.5,1.5,1.474a18.272,18.272,0,0,0,3.787-.126,2.832,2.832,0,0,0,2.348-2.2A2.589,2.589,0,0,0,1640.161-1942.54Zm-25.856,1.248c-1.167,2.375-2.287,4.653-3.437,6.992h6.844C1616.573-1936.638,1615.461-1938.919,1614.3-1941.292Zm-1.735-32.606c0-.346-.075-.488-.457-.485q-2.863.027-5.729,0c-.39,0-.524.11-.515.51.025,1.051.009,2.1.009,3.155s-.049,2.106.013,3.154c.068,1.177.551,1.6,1.491,1.774a6.621,6.621,0,0,0,4.927-1.2.608.608,0,0,0,.258-.6C1612.561-1969.691,1612.557-1971.795,1612.57-1973.9ZM1595-1934.128a3.113,3.113,0,0,0-2.021-.707c-1.544-.018-3.089,0-4.632-.016-.325,0-.45.072-.445.425q.031,1.864,0,3.732c-.005.356.09.493.466.48.792-.026,1.588-.008,2.38-.008.751,0,1.5.007,2.252,0a3.149,3.149,0,0,0,1.918-.631A2.042,2.042,0,0,0,1595-1934.128Zm-.665-8.291a2.838,2.838,0,0,0-1.98-.79c-1.351-.028-2.7-.008-4.052-.026-.308-.005-.4.094-.4.4q.022,1.9,0,3.8c-.005.336.1.45.442.438.621-.022,1.243-.007,1.865-.007.578,0,1.158.013,1.736,0a3.651,3.651,0,0,0,2.185-.626A2.032,2.032,0,0,0,1594.332-1942.418Zm18.238-31.479c0-.346-.075-.488-.457-.485q-2.863.027-5.729,0c-.39,0-.524.11-.515.51.025,1.051.009,2.1.009,3.155s-.049,2.106.013,3.154c.068,1.177.551,1.6,1.491,1.774a6.621,6.621,0,0,0,4.927-1.2.608.608,0,0,0,.258-.6C1612.561-1969.691,1612.557-1971.795,1612.57-1973.9Zm27.591,31.357a3.125,3.125,0,0,0-1.864-.614c-1.374-.011-2.748.013-4.122-.014-.427-.009-.495.163-.484.529.022.772.006,1.545.006,2.318v1.417c0,1.479,0,1.5,1.5,1.474a18.272,18.272,0,0,0,3.787-.126,2.832,2.832,0,0,0,2.348-2.2A2.589,2.589,0,0,0,1640.161-1942.54Zm31.716-25.659c0-1.619,0-1.619-1.43-1.39-.127.021-.257.025-.384.047a12.061,12.061,0,0,0-4.624,1.448,2.4,2.4,0,0,0-.9,3.263c.412.954,1.361,1.308,2.686,1.015a8.233,8.233,0,0,0,3.664-2.276C1671.573-1966.71,1672.137-1967.343,1671.877-1968.2Zm0,0c0-1.619,0-1.619-1.43-1.39-.127.021-.257.025-.384.047a12.061,12.061,0,0,0-4.624,1.448,2.4,2.4,0,0,0-.9,3.263c.412.954,1.361,1.308,2.686,1.015a8.233,8.233,0,0,0,3.664-2.276C1671.573-1966.71,1672.137-1967.343,1671.877-1968.2Zm-31.716,25.659a3.125,3.125,0,0,0-1.864-.614c-1.374-.011-2.748.013-4.122-.014-.427-.009-.495.163-.484.529.022.772.006,1.545.006,2.318v1.417c0,1.479,0,1.5,1.5,1.474a18.272,18.272,0,0,0,3.787-.126,2.832,2.832,0,0,0,2.348-2.2A2.589,2.589,0,0,0,1640.161-1942.54ZM1612.57-1973.9c0-.346-.075-.488-.457-.485q-2.863.027-5.729,0c-.39,0-.524.11-.515.51.025,1.051.009,2.1.009,3.155s-.049,2.106.013,3.154c.068,1.177.551,1.6,1.491,1.774a6.621,6.621,0,0,0,4.927-1.2.608.608,0,0,0,.258-.6C1612.561-1969.691,1612.557-1971.795,1612.57-1973.9Zm0,0c0-.346-.075-.488-.457-.485q-2.863.027-5.729,0c-.39,0-.524.11-.515.51.025,1.051.009,2.1.009,3.155s-.049,2.106.013,3.154c.068,1.177.551,1.6,1.491,1.774a6.621,6.621,0,0,0,4.927-1.2.608.608,0,0,0,.258-.6C1612.561-1969.691,1612.557-1971.795,1612.57-1973.9Zm59.307,5.7c0-1.619,0-1.619-1.43-1.39-.127.021-.257.025-.384.047a12.061,12.061,0,0,0-4.624,1.448,2.4,2.4,0,0,0-.9,3.263c.412.954,1.361,1.308,2.686,1.015a8.233,8.233,0,0,0,3.664-2.276C1671.573-1966.71,1672.137-1967.343,1671.877-1968.2Zm0,0c0-1.619,0-1.619-1.43-1.39-.127.021-.257.025-.384.047a12.061,12.061,0,0,0-4.624,1.448,2.4,2.4,0,0,0-.9,3.263c.412.954,1.361,1.308,2.686,1.015a8.233,8.233,0,0,0,3.664-2.276C1671.573-1966.71,1672.137-1967.343,1671.877-1968.2Zm-59.307-5.7c0-.346-.075-.488-.457-.485q-2.863.027-5.729,0c-.39,0-.524.11-.515.51.025,1.051.009,2.1.009,3.155s-.049,2.106.013,3.154c.068,1.177.551,1.6,1.491,1.774a6.621,6.621,0,0,0,4.927-1.2.608.608,0,0,0,.258-.6C1612.561-1969.691,1612.557-1971.795,1612.57-1973.9Zm0,0c0-.346-.075-.488-.457-.485q-2.863.027-5.729,0c-.39,0-.524.11-.515.51.025,1.051.009,2.1.009,3.155s-.049,2.106.013,3.154c.068,1.177.551,1.6,1.491,1.774a6.621,6.621,0,0,0,4.927-1.2.608.608,0,0,0,.258-.6C1612.561-1969.691,1612.557-1971.795,1612.57-1973.9Zm0,0c0-.346-.075-.488-.457-.485q-2.863.027-5.729,0c-.39,0-.524.11-.515.51.025,1.051.009,2.1.009,3.155s-.049,2.106.013,3.154c.068,1.177.551,1.6,1.491,1.774a6.621,6.621,0,0,0,4.927-1.2.608.608,0,0,0,.258-.6C1612.561-1969.691,1612.557-1971.795,1612.57-1973.9Z" transform="translate(-229.356 -346.31)"/><path class="a" d="M1558.236-2129.245c-.109-2.24-.258-4.472-.568-6.694-.006-.058-.013-.118-.019-.176a62.436,62.436,0,0,0-1.257-7.561,44.732,44.732,0,0,0-1.39-5.678,4.124,4.124,0,0,0-.083-.436q-.554-1.781-1.115-3.561a31.359,31.359,0,0,0-1.276-3.61,23.954,23.954,0,0,0-1.265-3.1,19.658,19.658,0,0,0-1.331-3.094,23.287,23.287,0,0,0-1.39-2.84c-.875-1.906-1.946-3.7-3.077-5.633-.025.245-.034.341-.044.438a3.953,3.953,0,0,1-5.874,3.061,1.355,1.355,0,0,0-1.437-.063,20.722,20.722,0,0,1-7.97,1.5,55.2,55.2,0,0,1-9.42-.563c-1.14-.156-2.281-.294-3.538-.457.333.692.618,1.285.9,1.878q.647,1.541,1.295,3.084.519,1.409,1.041,2.82.5,1.6,1,3.2c.007.02.012.039.018.058q.384,1.684.764,3.369a.037.037,0,0,0,0,.011c.005.026.012.05.017.076.006.043.013.085.018.128.192.2.09.44.1.666a27.189,27.189,0,0,1,.163,3.766,1.159,1.159,0,0,1,.027-.181c-.01.076-.021.161-.032.256-.056.465-.083.934-.178,1.39a.547.547,0,0,0,.209.608,3.9,3.9,0,0,1,1.382,3.292,4.806,4.806,0,0,1-.55,1.63,3.975,3.975,0,0,1-6.408.612c-.386-.439-.723-.9-1.406-.7-.355-.03-.728.127-1.063-.1a11.263,11.263,0,0,1-2.812-.539c-.807-.279-1.616-.552-2.419-.841a58.227,58.227,0,0,1-6-2.758l-.072-.043c-2.136-1.261-4.276-2.516-6.335-3.9a.443.443,0,0,0-.542-.1v4.3q-.128,1.74-.254,3.481c-.006.165-.014.33-.021.5-.017.224.086.465-.1.661q-.389,2.327-.777,4.654a21.089,21.089,0,0,1-2.73,6.867.351.351,0,0,0-.036.409,4.7,4.7,0,0,1,.325,2.259,3.965,3.965,0,0,1-3.946,3.3,3.913,3.913,0,0,1-3.877-3.123.541.541,0,0,0-.345-.416c-.412-.176-.817-.366-1.225-.551a25.87,25.87,0,0,1-5.911-5.181c-1-1.165-1.955-2.374-2.93-3.564q-1.971-2.976-3.943-5.95l-.16-.256c-.286-.027-.355-.144-.292-.5-.909-1.6-1.816-3.195-2.755-4.844-1.062,1.9-2.1,3.757-3.131,5.612-1.276,1.99-2.51,4.009-3.89,5.932-2.474,3.369-5.1,6.586-8.671,8.889-.231.11-.453.239-.692.325a1.784,1.784,0,0,0-1.117,1.168,3.765,3.765,0,0,1-3.845,2.454,3.929,3.929,0,0,1-3.534-5.233.535.535,0,0,0-.062-.532c-.217-.29-.408-.6-.61-.9-.4-.869-.838-1.725-1.171-2.628-.427-1.159-.7-2.365-1.062-3.544-.363-1.927-.663-3.863-.926-5.807-.061-.833-.13-1.664-.181-2.5-.1-1.683-.214-3.366-.188-5.093a1.12,1.12,0,0,0-.227.08,65.111,65.111,0,0,1-13.443,7.384.53.53,0,0,0-.128.01,16.023,16.023,0,0,1-6.167,1.075.638.638,0,0,0-.414.143c-2.362,1.6-4.679,1.141-6.181-1.229a6.336,6.336,0,0,1-.368-2.279,4.5,4.5,0,0,1,.641-1.583,1.1,1.1,0,0,0,.21-1.175c-.193-.244-.075-.527-.1-.792-.005-.077-.01-.155-.017-.234q.075-1.534.151-3.07c.128-.119.072-.28.1-.422a21.722,21.722,0,0,1,.416-2.54l1.3-4.641q.892-2.4,1.785-4.807l1.407-3.173a1.162,1.162,0,0,0-.255-.03,62.04,62.04,0,0,1-14.445,1.064,17.966,17.966,0,0,1-6.365-1.393,1,1,0,0,0-.789-.008,3.992,3.992,0,0,1-4.817-2.08,5.7,5.7,0,0,1-.432-1.968,77.321,77.321,0,0,0-4.023,7.57,48.292,48.292,0,0,0-2.069,4.644c-.619,1.438-1.171,2.9-1.668,4.389-.412,1.1-.782,2.221-1.084,3.361a27.765,27.765,0,0,0-.918,3.228,23.785,23.785,0,0,0-.807,3.356,12.806,12.806,0,0,0-.51,2.449,45.173,45.173,0,0,0-.989,6.06,47.449,47.449,0,0,0-.547,6.326,28.609,28.609,0,0,0-.208,4.42c-.04,2.593.111,5.185.307,7.773a86.005,86.005,0,0,0,2.1,13.576,89.82,89.82,0,0,0,28.005,46.927,88.055,88.055,0,0,0,22.739,14.789,89.8,89.8,0,0,0,40.438,8,91.568,91.568,0,0,0,12.694-1.309,88.935,88.935,0,0,0,23.673-7.644,90.362,90.362,0,0,0,27.4-20.443,90.32,90.32,0,0,0,13.93-20.111,89.236,89.236,0,0,0,8.307-24.68,76.464,76.464,0,0,0,1.334-12.507,25.069,25.069,0,0,1,.124-3.465c.075-.8-.147-1.576-.132-2.368a.688.688,0,0,0-.005-.1,5.6,5.6,0,0,1,.137.874,10.381,10.381,0,0,1-.038,2.884c-.123.718.05,1.458-.085,2.18a17.4,17.4,0,0,0,.2-2.853A44.136,44.136,0,0,0,1558.236-2129.245Zm-134.549,26.438c.018,5.459.009,10.918.014,16.377,0,.375-.006.67-.422.9a.832.832,0,0,1-.985-.109c-.63-.41-1.261-.82-1.913-1.191a.805.805,0,0,1-.456-.816c.023-1.869.01-3.739.01-5.61v-.716a1.018,1.018,0,0,1-.83.244c-1.977,0-3.955.012-5.931-.01-.445,0-.619.109-.578.571a13.183,13.183,0,0,1,.006,1.354,1.1,1.1,0,0,1-1.611,1.089,2.36,2.36,0,0,1-.512-.266,18.335,18.335,0,0,1-3.844-3.595,2.2,2.2,0,0,1-.44-.852.992.992,0,0,1,.949-1.3c.515-.022,1.033-.026,1.546,0,.377.02.487-.129.474-.485-.022-.622.182-1.34-.063-1.843-.265-.543-1.1-.313-1.665-.49a7.55,7.55,0,0,1-2.853-1.426,3.853,3.853,0,0,1-1.313-3.822,2.546,2.546,0,0,1,1.6-1.954,6.784,6.784,0,0,1,6.793,1.3,3.2,3.2,0,0,1,.946,2.383c-.013,1.891.019,3.783-.017,5.673-.012.554.163.674.686.665,1.934-.031,3.868-.014,5.8-.01.274,0,.569-.077.857.319,0-2.339-.01-4.487.009-6.634,0-.412-.187-.436-.506-.435-1.687.009-3.375-.008-5.062.014a.659.659,0,0,1-.734-.459c-.147-.38-.344-.739-.513-1.109-.351-.767.017-1.329.87-1.329h21.877c.836,0,1.152.32,1.156,1.162,0,.279.019.56-.005.838a.87.87,0,0,1-.9.883c-.751.023-1.505.027-2.256,0-.416-.017-.552.1-.546.534.025,1.526.009,3.051.009,4.578,0,4-.005,7.995.009,11.992a.843.843,0,0,1-.467.869.774.774,0,0,1-.931-.1c-.627-.413-1.256-.827-1.913-1.19a.91.91,0,0,1-.5-.931c.014-5.008,0-10.015.024-15.023,0-.611-.184-.747-.756-.732q-2.223.056-4.448,0C1423.8-2103.513,1423.685-2103.327,1423.687-2102.807Zm18.845,45.212a8.04,8.04,0,0,1-5.438,2.008c-2.686.054-5.373.016-8.061.013a3.453,3.453,0,0,1-2.05-.667,2.218,2.218,0,0,1-.992-1.913c.015-4.986.008-9.974.008-14.961,0-1.747.879-2.88,2.625-2.922a66.252,66.252,0,0,1,9.016.1,6.934,6.934,0,0,1,4.185,1.958,4.819,4.819,0,0,1-.171,7.329c-.221.2-.454.382-.7.585.5.36,1.019.672,1.47,1.058A4.847,4.847,0,0,1,1442.532-2057.594Zm1.855-45.887a.868.868,0,0,1-.827-.392,2.8,2.8,0,0,1,.077-2.182.892.892,0,0,1,.726-.324q8.964.014,17.928.009a.867.867,0,0,1,.925.913c.034,1.647.137,2.066-1.872,1.981-.55-.023-1.26-.24-1.616.1s-.116,1.06-.116,1.609q-.014,7.675,0,15.351a.846.846,0,0,1-.449.887.784.784,0,0,1-.932-.088c-.663-.436-1.334-.862-2.025-1.254a.757.757,0,0,1-.42-.773c.019-1.5.009-3.009.009-4.6a7.4,7.4,0,0,1-2.438.684,5.789,5.789,0,0,1-4.566-1.689,18.314,18.314,0,0,1-2.846-3.235,2.431,2.431,0,0,1-.458-1.505c.023-1.655-.005-3.311.018-4.966,0-.42-.115-.593-.541-.537C1444.775-2103.465,1444.577-2103.508,1444.387-2103.482Zm20.266,47.918c-.328,0-.444-.158-.56-.411-.48-1.053-.983-2.1-1.458-3.152a.621.621,0,0,0-.655-.456q-4.48.031-8.96,0a.569.569,0,0,0-.613.412c-.474,1.079-.99,2.14-1.475,3.214-.106.232-.2.39-.5.387-1.8-.014-3.605-.006-5.494-.006.71-1.435,1.389-2.814,2.073-4.19,2.441-4.917,4.895-9.825,7.317-14.751a3.231,3.231,0,0,1,3.205-1.823,3.232,3.232,0,0,1,3.21,1.825q4.583,9.286,9.184,18.561c.045.093.084.191.167.377C1468.218-2055.572,1466.436-2055.581,1464.653-2055.564Zm5.384-42.312a1.014,1.014,0,0,1,1.188-1.394,1.094,1.094,0,0,1,.668,1,9.939,9.939,0,0,0,3.1,6.194,5.668,5.668,0,0,0,5.5,1.4,3.491,3.491,0,0,0,2.73-2.558,3.975,3.975,0,0,0-1.012-3.93c-.2-.219-.373-.194-.622-.1a10.225,10.225,0,0,1-3.273.617.836.836,0,0,1-.808-.394c-.349-.515-.738-1-1.1-1.509a.834.834,0,0,1,.573-1.4,10.414,10.414,0,0,0,3.72-.925,2.609,2.609,0,0,0,1.3-1.362,1.018,1.018,0,0,0-.8-1.5,6.7,6.7,0,0,0-4.208.515c-.4.16-.781.353-1.167.537a.988.988,0,0,1-1.4-.423c-.365-.607-.713-1.224-1.1-1.819-.182-.283-.144-.467.125-.635a2.257,2.257,0,0,1,.377-.241c3.515-1.335,6.5-1.635,9.75,1.148,1.465,1.255,2.534,3.572.449,5.762-.479.5-.217.683.161.949a5.5,5.5,0,0,0,5.735-.137c.222-.169.193-.361.193-.566,0-1.461-.009-2.924.01-4.385.005-.386-.092-.528-.5-.515-.923.03-1.849-.02-2.771.022a.763.763,0,0,1-.865-.556c-.131-.338-.308-.66-.47-.988-.372-.757-.014-1.327.839-1.328h10.188c.772,0,1.094.315,1.1,1.069,0,.279.005.559,0,.838a.855.855,0,0,1-.941.95c-.71.008-1.421.034-2.127-.009-.5-.031-.648.121-.645.635.022,4.234.012,8.469.012,12.7,0,1.311,0,2.623,0,3.934a.816.816,0,0,1-1.265.724c-.839-.519-1.934-.879-2.426-1.631-.48-.733-.119-1.877-.132-2.84q-.025-2.064,0-4.127c.005-.386-.048-.51-.492-.426a5.951,5.951,0,0,1-3.858-.488,11.906,11.906,0,0,1,.484,2.756,4.319,4.319,0,0,1-2.64,4.27,7.783,7.783,0,0,1-9.316-1.991A20.761,20.761,0,0,1,1470.037-2097.876Zm15.795,42.311c-.337,0-.433-.24-.578-.436-1.535-2.1-3.072-4.191-4.585-6.3a.993.993,0,0,0-.955-.479c-.75.033-1.5.032-2.255,0-.427-.018-.543.12-.538.542.021,2-.009,4,.022,6,.008.514-.089.707-.653.688-1.33-.045-2.664-.027-4-.006-.378.006-.514-.069-.514-.487.016-5.866.007-11.733.014-17.6a2.579,2.579,0,0,1,2.655-2.389,60.3,60.3,0,0,1,9.012.117,7.17,7.17,0,0,1,5.8,3.788c1.487,2.877.246,6.3-2.827,7.979-.893.488-.9.492-.277,1.3,1.828,2.387,3.659,4.77,5.586,7.281C1489.682-2055.572,1487.756-2055.58,1485.831-2055.565Zm14.379-5.655a8.868,8.868,0,0,0,5.508,1.648c1.267,0,2.535.011,3.8-.007.351-.005.489.074.48.457-.025,1.052-.013,2.105-.005,3.158,0,.245-.027.4-.34.4-2.656-.08-5.329.226-7.96-.39a12.612,12.612,0,0,1-7.333-4.339c-3.32-4.187-2.339-10.021,2.2-13.206a14.887,14.887,0,0,1,8.234-2.575c.687-.024,1.376,0,2.063,0,.881,0,1.763.023,2.643-.01.412-.015.5.126.493.511-.026.965-.033,1.935,0,2.9.018.469-.092.622-.593.612-1.48-.031-2.966-.041-4.445.018a7.961,7.961,0,0,0-5.087,1.891A5.668,5.668,0,0,0,1500.21-2061.22Zm28.169-42.306c-2.944-.037-5.89,0-8.834-.021-.513,0-.71.086-.689.652.047,1.265.014,2.532.014,3.884.4-.222.738-.426,1.091-.605a4.739,4.739,0,0,1,5.478.537,6.865,6.865,0,0,1,2.792,4.683,5.828,5.828,0,0,1-.35,2.659,13.511,13.511,0,0,1-3.208,4.924c-.627.631-.746.621-1.457.143-.463-.311-.924-.627-1.387-.939a.9.9,0,0,1-.08-1.621,8.067,8.067,0,0,0,3.246-5.01,6.414,6.414,0,0,0,.063-1.155c-.025-1.24-.4-1.6-1.656-1.555a5.616,5.616,0,0,0-2.971,1.274,3.215,3.215,0,0,0-1.6,3.143c.155,2.074.03,4.168.048,6.253a.748.748,0,0,1-.435.755.719.719,0,0,1-.874-.052c-.679-.45-1.371-.886-2.078-1.29a.705.705,0,0,1-.391-.723c.018-1.2.008-2.4.008-3.607-.253-.058-.363.137-.5.244-2.919,2.2-6,1.784-8.217-1.125a6.834,6.834,0,0,1-1.546-3.886,4.257,4.257,0,0,1,2.477-4.178,14.227,14.227,0,0,1,6.107-1.346c.064,0,.129,0,.193,0,1.53-.009,1.509-.009,1.5-1.531,0-.454-.173-.524-.567-.519-1.568.018-3.138.006-4.707.006-1.74,0-3.481,0-5.223,0-.716,0-.99-.284-1-1.01,0-.236,0-.473,0-.71,0-.8.318-1.118,1.117-1.118h18.305a37.038,37.038,0,0,0-3.468-4.381c-1.607-1.819-1.015-1.638-3.393-1.03-.624.16-1.251.314-1.858.521-.4.137-.567.086-.666-.356-.185-.814-.444-1.612-.663-2.419a.853.853,0,0,1,.8-1.151c1.047-.1,2.095-.192,3.143-.278a2.13,2.13,0,0,1,1.722.725,37.149,37.149,0,0,1,6.109,7.941.715.715,0,0,0,.739.435c1.225-.019,2.451-.01,3.676-.006a.9.9,0,0,1,1.035.991C1530.273-2103.665,1530.228-2103.5,1528.38-2103.526Zm1.977-8.28q-1.068.877-2.091,1.807a.4.4,0,0,1-.636.014c-.689-.578-1.406-1.126-2.1-1.7a.9.9,0,0,1-.021-1.462c.672-.6,1.358-1.182,2.016-1.8a.4.4,0,0,1,.635-.009c.7.6,1.42,1.176,2.14,1.751.237.188.4.386.3.646A.744.744,0,0,1,1530.357-2111.806Zm27.783-15.639a.339.339,0,0,1,.066.165A.845.845,0,0,0,1558.14-2127.445Z" transform="translate(-72.589 -217.198)"/><path class="a" d="M2082.8-2032.554c-.006-.058-.012-.118-.019-.176A.745.745,0,0,1,2082.8-2032.554Z" transform="translate(-597.724 -320.583)"/><path class="a" d="M2085.049-1994.409c-.123.718.051,1.458-.085,2.18a25.028,25.028,0,0,1,.124-3.464c.075-.8-.147-1.576-.132-2.369a.714.714,0,0,0-.005-.1,5.614,5.614,0,0,1,.137.874A10.375,10.375,0,0,1,2085.049-1994.409Z" transform="translate(-599.333 -346.31)"/><path class="a" d="M1920.118-2380.7a114.539,114.539,0,0,0-56.855-40.4c-1.314-.428-1.3-.417-1.7.92-.114.382.015.492.338.579.394.1.771.28,1.168.357.51.1.52.32.343.75-.471,1.152-.92,2.314-1.332,3.489a4.529,4.529,0,0,0,2.126,5.687,4.978,4.978,0,0,0,4.643.4c-.435,1.146-.835,2.2-1.235,3.251-.532,1.4-.524,1.378.849,1.935.5.2.725.2.943-.4,1.307-3.545,2.663-7.071,4.016-10.6.076-.2.029-.61.522-.388,2.034.914,4.057,1.855,6.032,2.892a2.638,2.638,0,0,1,1.212,2.772,2.278,2.278,0,0,1-2.3,1.717,7.639,7.639,0,0,1-1.535-.149.928.928,0,0,1-.857-.786c-.273-1.048-.7-1.272-1.738-1.135-.394.052-.488.15-.4.564.635,2.917,1.241,5.839,1.85,8.76.272,1.3.265,1.291,1.542.953.341-.089.443-.208.355-.568-.209-.855-.375-1.721-.549-2.583-.231-1.143-.453-2.288-.688-3.476a11.119,11.119,0,0,0,3.093.217,3.3,3.3,0,0,0,3.165-2.641,4.16,4.16,0,0,0-.23-2.116c1.355.792,2.567,1.478,3.757,2.2,1.156.7,2.289,1.441,3.437,2.154.218.136.31.233.13.488q-1.109,1.582-2.18,3.193c-.186.28-.333.236-.563.07-.453-.327-.911-.647-1.389-.937a3.34,3.34,0,0,0-3.814.091,3.393,3.393,0,0,0-.584,5.049,3.737,3.737,0,0,0,5.516.588,7.992,7.992,0,0,0,1.109-1.5c.214-.342.369-.414.725-.157q1.539,1.113,3.134,2.15c.332.217.372.359.139.686-.822,1.155-1.619,2.328-2.408,3.505-.284.425-.869.872-.756,1.278.106.387.79.593,1.171.933s.566.207.818-.166c2.108-3.114,4.239-6.211,6.349-9.322.221-.325.36-.441.718-.133.943.813,1.914,1.6,2.9,2.36.357.277.362.442.066.785-2.362,2.731-4.7,5.482-7.046,8.227-.78.913-.779.914.115,1.678.752.643.752.643,1.4-.118,2.373-2.779,4.754-5.55,7.108-8.343.333-.395.518-.4.874-.048.8.785,1.625,1.535,2.461,2.277.26.231.265.35,0,.586-1,.881-1.971,1.794-2.956,2.691a4.054,4.054,0,0,0-1.394,2.542,5.871,5.871,0,0,0,3.175,5.611,4.216,4.216,0,0,0,5.121-.6c1.04-.934,2.074-1.873,3.093-2.83.267-.251.417-.257.649.039.464.591.949,1.169,1.462,1.718.311.333.337.52-.04.856-2.227,1.993-4.422,4.019-6.628,6.034-.843.77-.842.771-1.6-.063-.8-.879-.786-.862-1.692-.046-.314.282-.265.431-.009.7a26.07,26.07,0,0,1,1.872,2.128,2.074,2.074,0,0,1,.017,2.578,2.236,2.236,0,0,1-2.659.711,4.192,4.192,0,0,1-1.155-.689,8.063,8.063,0,0,1-2.782-4.947c-.3-1.458-.3-1.447-1.771-1.137-.314.066-.371.186-.332.477a12.014,12.014,0,0,0,1.653,4.841,8.324,8.324,0,0,0,3.961,3.463,3.881,3.881,0,0,0,4.452-.9,3.592,3.592,0,0,0,.763-4.27.479.479,0,0,1,.142-.653q3.63-3.294,7.235-6.614c.3-.276.428-.195.632.081.533.729,1.1,1.43,1.633,2.16.188.259.345.354.6.1a3.794,3.794,0,0,1,.411-.31C1920.668-2379.967,1920.672-2379.969,1920.118-2380.7Zm-48.688-34.96c-.453,1.158-.963,2.3-1.313,3.491a2.454,2.454,0,0,1-2.229,1.728,4.091,4.091,0,0,1-.6.042,3.042,3.042,0,0,1-3.255-2.229,2.8,2.8,0,0,1,.154-1.58c.463-1.247.949-2.485,1.4-3.735.113-.313.226-.375.554-.257,1.693.612,3.371,1.259,5.046,1.922C1871.571-2416.123,1871.549-2415.958,1871.43-2415.656Zm15.332,14.88a7.111,7.111,0,0,1-1.511,1.9,1.138,1.138,0,0,1-.739.192,1.81,1.81,0,0,1-1.675-1.1,1.66,1.66,0,0,1,.43-1.882,1.616,1.616,0,0,1,1.9-.342,15.472,15.472,0,0,1,1.464.932C1886.737-2401,1886.874-2400.922,1886.762-2400.776Zm9.12-1.035c-.725,1.011-1.412,2.048-2.118,3.072-.066.1-.1.243-.281.242-.079-.053-.168-.11-.257-.17-1.08-.737-2.154-1.483-3.244-2.205-.292-.193-.352-.322-.128-.635.724-1.011,1.421-2.041,2.1-3.081.189-.289.312-.312.589-.107,1.05.779,2.118,1.534,3.185,2.29C1895.964-2402.241,1896.107-2402.125,1895.882-2401.811Zm15.831,14.554c-1.025.914-2.032,1.85-3.047,2.774a2.735,2.735,0,0,1-1.706.755,3.389,3.389,0,0,1-3.054-2.126,2.62,2.62,0,0,1,.755-3.035c.985-.926,2-1.82,2.987-2.746.218-.2.337-.24.56,0q1.762,1.878,3.559,3.724C1912.04-2387.634,1911.969-2387.484,1911.713-2387.257Z" transform="translate(-433.032 -31.321)"/><path class="a" d="M1841.374-2054.153c.112-.208-.023-.454.1-.661C1841.458-2054.59,1841.561-2054.349,1841.374-2054.153Z" transform="translate(-418.031 -304.145)"/><path class="a" d="M1915.025-2055.077c-.355-.03-.728.126-1.063-.1C1914.306-2055.041,1914.68-2055.214,1915.025-2055.077Z" transform="translate(-472.061 -303.871)"/><path class="a" d="M1279.773-2161.374a113.654,113.654,0,0,1,15.193-57.331c.67-1.172,1.563-1.66,2.542-1.4a2.183,2.183,0,0,1,1.428,3.325c-1.184,2.093-2.342,4.2-3.4,6.357a110.217,110.217,0,0,0-10.121,31.91,114.888,114.888,0,0,0-1.321,15.136c-.052,2.367,0,4.729.1,7.089a2.3,2.3,0,0,1-2.136,2.5,2.258,2.258,0,0,1-2.271-2.373C1279.755-2157.9,1279.773-2159.635,1279.773-2161.374Z" transform="translate(0 -181.061)"/><path class="a" d="M2122.084-2161.7a110.017,110.017,0,0,0-14.708-54.726c-1.092-1.9-.046-3.427,1.322-3.707a2.252,2.252,0,0,1,2.352,1.208q2.335,4.008,4.316,8.2a114.635,114.635,0,0,1,8.97,27.2,114.839,114.839,0,0,1,1.9,14.682q.358,5.538.2,11.083c-.018.622-.052,1.245-.09,1.867a2.248,2.248,0,0,1-2.257,2.117,2.222,2.222,0,0,1-2.125-2.249C2122.012-2157.92,2122.114-2159.809,2122.084-2161.7Z" transform="translate(-615.69 -181.059)"/><path class="a" d="M1312.156-2150.285a109.22,109.22,0,0,1,13.75-51.929c.073-.131.144-.264.222-.392a2.127,2.127,0,0,1,2.978-.854,2.17,2.17,0,0,1,.861,3c-1.1,2.036-2.191,4.078-3.188,6.168a103.812,103.812,0,0,0-9.28,31.339,105.033,105.033,0,0,0-.787,18.528,2.257,2.257,0,0,1-2.1,2.463,2.213,2.213,0,0,1-2.294-2.135C1312.16-2146.157,1312.125-2148.221,1312.156-2150.285Z" transform="translate(-24.102 -193.277)"/><path class="a" d="M2097.941-2150.032c.034,1.46-.086,3.48-.094,5.5a2.3,2.3,0,0,1-2.285,2.5,2.283,2.283,0,0,1-2.146-2.605,93.75,93.75,0,0,0-.1-11.407,104.047,104.047,0,0,0-12.3-42.913c-.294-.547-.614-1.083-.887-1.641a2.235,2.235,0,0,1,1.817-3.244,2.286,2.286,0,0,1,2.171,1.352,111.906,111.906,0,0,1,5.021,10.206,108.737,108.737,0,0,1,8.155,31.013C2097.681-2157.725,2097.875-2154.163,2097.941-2150.032Z" transform="translate(-595.567 -193.211)"/><path class="a" d="M1633.678-2449.59c0-.324-.069-.451-.421-.457-4.086-.075-8.168,0-12.244.316-3.666.288-7.305.767-10.931,1.37-.167.106-.363-.014-.532.07l-.067.018c-.053.011-.108.02-.163.027a1.5,1.5,0,0,0-.39.075c-.02.005-.038.01-.057.014s-.03.008-.044.012c-.241.059-.487.1-.727.165a5.835,5.835,0,0,1,.609-.141c.036-.009.074-.018.11-.028l.043-.013a2,2,0,0,1,.454-.09.306.306,0,0,1,.037,0,.306.306,0,0,1,.1-.031c.119-.021.25-.023.234-.222-1.8-1.242-3.57-2.531-5.465-3.639a6.357,6.357,0,0,0-5.017-.713c-1.048.273-1.016.239-.812,1.295.1.531.307.592.764.457a4.65,4.65,0,0,1,3.219.026,32.191,32.191,0,0,1,5.16,3.173c-.285.075-.462.132-.644.168-3.643.74-7.233,1.678-10.787,2.763-1.365.417-1.355.418-.867,1.77.115.317.243.359.555.255,1.1-.358,2.224-.654,3.32-1.027a2.132,2.132,0,0,1,1.952.314,2.791,2.791,0,0,1-.221,4.747c-.48.319-.879.542-1.463.044-.708-.6-1.274-.433-1.892.258-.325.362-.214.523.116.776,2.286,1.75,4.557,3.519,6.834,5.281.741.573.695.533,1.3-.171.477-.56.343-.822-.2-1.214-1.318-.954-2.583-1.979-3.88-2.984.075-.062.1-.1.134-.11,2.588-.625,5.177-1.243,7.763-1.877.339-.084.343.114.395.33.247,1.044.506,2.087.75,3.132.375,1.6.365,1.573,1.966,1.205.494-.114.529-.294.421-.737-.887-3.63-1.739-7.267-2.627-10.9-.119-.487-.076-.693.48-.781,3.268-.518,6.546-.968,9.847-1.21,1.777-.131,1.767-.119,1.83,1.7.013.356-.083.375-.391.324a10.577,10.577,0,0,0-3.021-.063c-1.988.249-3.666,1.031-4.443,3.022a4.4,4.4,0,0,0,3.41,5.866,7.812,7.812,0,0,0,4.666-.526c.512-.205.63-.074.635.423.005.471.084.941.119,1.412.018.226.067.358.347.318.467-.067.94-.106,1.411-.139.306-.022.449-.1.4-.467-.123-.937-.189-1.882-.278-2.823-.273-2.931-.543-5.863-.831-8.792-.038-.387.042-.525.461-.527,1.074,0,2.149-.032,3.222-.1.508-.032.643.12.64.627-.009,3.525.014,7.05.024,10.576.005,1.546,0,1.521,1.528,1.55.533.01.63-.169.627-.657-.026-3.632-.023-7.266-.028-10.9,0-1.2,0-1.2,1.22-1.18C1633.7-2448.216,1633.686-2448.216,1633.678-2449.59Zm-24.632,9.078c-1.789.421-3.577.848-5.467,1.3a3.823,3.823,0,0,0-.891-5.691c1.729-.449,3.442-.818,5.16-1.167.271-.054.341.075.39.285.382,1.6.758,3.211,1.154,4.813C1609.477-2440.633,1609.3-2440.573,1609.046-2440.513Zm13.781,1.167a8.715,8.715,0,0,1-3.183.658,7.859,7.859,0,0,1-.832-.116,2.493,2.493,0,0,1-2.151-2.166,2.612,2.612,0,0,1,1.576-2.76,6.264,6.264,0,0,1,4.274-.271c.263.063.329.209.351.45.108,1.2.218,2.39.353,3.583A.517.517,0,0,1,1622.827-2439.346Z" transform="translate(-234.601 -7.692)"/><path class="a" d="M1404.46-2333.968c-.869-.023-1.737-.1-2.724-.156a9.413,9.413,0,0,0,1.551-2.527c.307-.778.319-.774-.5-.99-1.078-.283-1.05-.272-1.5.762a6.02,6.02,0,0,1-3.7,3.619,1.747,1.747,0,0,1-2.335-1.735,3.448,3.448,0,0,1,.685-2.042c.771-1.19,1.533-2.385,2.345-3.545a.669.669,0,0,0-.05-1.023c-.781-.828-1.506-1.707-2.255-2.566-.732-.837-.732-.837.119-1.51.911-.721.888-.7.213-1.649-.3-.42-.479-.483-.922-.137a116.421,116.421,0,0,0-20.482,20.62c-.878,1.138-.869,1.125.28,1.974.283.209.391.169.591-.093.832-1.095,1.7-2.165,2.54-3.25a1.217,1.217,0,0,1,.728-.479,2.233,2.233,0,0,1,2.787,2.153,5.171,5.171,0,0,1-.372,1.753,1.273,1.273,0,0,1-1.313,1.039c-.853.014-1.185.468-1.262,1.32-.041.461.048.627.567.625,2.987-.017,5.973.008,8.962.02,1.186,0,1.167,0,1.163-1.168,0-.436-.111-.58-.573-.58-1.87,0-3.739-.048-5.608-.059-.372,0-.509-.039-.328-.45a8.97,8.97,0,0,0,.659-2.218,3.528,3.528,0,0,0-1.088-3.516,3.582,3.582,0,0,0-2.419-.736c.946-1.053,1.807-1.982,2.63-2.943.279-.324.427-.312.731-.02,2.5,2.417,5.029,4.816,7.548,7.218.325.311.648.848.989.862.407.017.645-.617,1.014-.9.487-.375.46-.634-.005-1.067-2.7-2.526-5.354-5.1-8.04-7.637-.319-.3-.356-.475-.019-.789.738-.688,1.448-1.408,2.146-2.137.247-.259.37-.231.588.031.561.68,1.145,1.341,1.737,1.993a2.889,2.889,0,0,0,2.991.875c.218-.052.407-.232.655-.17-.008,3.836,1.637,4.847,5.659,3.558,0,.834.011,1.691-.006,2.547-.006.329-.025.654.435.538.363-.092,1.014.405,1.022-.494.012-1.116.094-2.233.112-3.349.006-.409.128-.5.531-.453,1.025.11,2.056.16,3.085.235.878.065.85.062.926-.835C1404.98-2333.872,1404.842-2333.956,1404.46-2333.968Zm-12.058-8.68c.407-.349.823-.945,1.239-.947.431,0,.724.708,1.083,1.1.442.484.864.985,1.4,1.606h-5.743C1391.073-2341.489,1391.734-2342.073,1392.4-2342.648Zm.048,6.638c-1.161.089-3.63-3.365-3.63-3.365h1.566l5.743-.245S1393.612-2336.1,1392.45-2336.01Z" transform="translate(-70.352 -86.142)"/><path class="a" d="M1510.249-2397.44c-1.66-3.1-3.291-6.224-4.93-9.339-.471-.9-.47-.9.459-1.275,1.2-.489,1.181-.483.715-1.712-.151-.4-.3-.446-.684-.289a119.05,119.05,0,0,0-12.333,5.8,2.641,2.641,0,0,0-.419.139,9.67,9.67,0,0,0-1.084.6l-.041.023-.009.005a2.718,2.718,0,0,0-.514.315h0a.823.823,0,0,0-.146.169c-1.86,1.027-3.659,2.154-5.444,3.306-1.145.738-1.124.729-.381,1.865.224.345.357.351.682.133,1.638-1.1,3.318-2.139,5.022-3.135,1.234-.721,1.231-.727,1.893.537.466.888.458.867-.466,1.194a8.079,8.079,0,0,0-3.867,2.318,3.792,3.792,0,0,0-.67,3.986,3.964,3.964,0,0,0,3.249,2.609,5.514,5.514,0,0,0,3.684-.86,13.386,13.386,0,0,0,2.114-1.584c.159.307.274.56.416.8.262.435.354,1.147.786,1.252.361.087.847-.406,1.3-.6s.538-.38.284-.847c-1.151-2.109-2.244-4.252-3.391-6.365a.633.633,0,0,1,.165-.923,4.4,4.4,0,0,1,2.268-1.137,2.126,2.126,0,0,1,2.192.908,3.131,3.131,0,0,1,.248,3.012c-.141.44-.7.883-.421,1.271.25.345.87.409,1.309.63.285.143.413.045.552-.2a7.254,7.254,0,0,0,.847-2.352,4.188,4.188,0,0,0-3.245-5.118,5.352,5.352,0,0,0-3.681.854c-.467.269-.869,1-1.326.8-.4-.18-.534-.932-.828-1.4-.251-.4-.238-.6.239-.853q3.7-1.95,7.5-3.685c.418-.191.607-.157.831.275,1.551,2.992,3.13,5.968,4.7,8.947.24.452.408,1.128.78,1.278.431.173.92-.407,1.411-.6C1510.436-2396.846,1510.462-2397.04,1510.249-2397.44Zm-15.53.3c.384.857.867,1.67,1.3,2.505.093.178.259.348.035.569a6.183,6.183,0,0,1-3.566,2.021,2.379,2.379,0,0,1-2.29-3.38c.688-1.378,2.012-1.826,3.352-2.267C1494.157-2397.891,1494.462-2397.716,1494.719-2397.142Z" transform="translate(-152.699 -39.66)"/><path class="a" d="M1944.389-2098.451a.352.352,0,0,1-.039-.089h0c-.052-.187.037-.4-.066-.576C1944.476-2098.92,1944.374-2098.677,1944.389-2098.451Z" transform="translate(-494.632 -271.168)"/><path class="a" d="M1513.322-2080.053c.126.253-.014.539.1.792C1513.224-2079.5,1513.342-2079.787,1513.322-2080.053Z" transform="translate(-173.833 -285.358)"/><path class="a" d="M1650.686-2136.391c-.466.833-.721,1.771-1.262,2.568a49.368,49.368,0,0,1-2.571,4.922,48.952,48.952,0,0,1-3.058,5.154,33.61,33.61,0,0,1-6.905,8.336c-.4.326-.846.587-1.258.892-.267.2-.365.124-.493-.171a3.9,3.9,0,0,0-5.938-1.878c-.32.2-.418.134-.555-.157a21.623,21.623,0,0,1-1.809-6.607,33.252,33.252,0,0,1-.519-5.975,8.172,8.172,0,0,1-.111-2.093,18.249,18.249,0,0,1-.01-2.686,3.366,3.366,0,0,1,.031-1.167c-.091-2.315-.091-2.315,1.753-3.708l2.242-1.7,3.823-3.116,3.6-3.1c2.042-1.86,4.084-3.721,6.18-5.633.8,1.912,1.582,3.781,2.364,5.648.528,1.052,1.013,2.122,1.447,3.216.554,1.056,1.066,2.133,1.526,3.233a23.4,23.4,0,0,1,1.437,2.965A.828.828,0,0,1,1650.686-2136.391Z" transform="translate(-257.831 -231.43)"/><path class="a" d="M1917.513-2235.115c-2.332-.727-4.146-.2-5.4,1.848h0a3.835,3.835,0,0,0-.17,2.859c.186.5,0,.605-.409.746a17.529,17.529,0,0,1-5.5.829,75.3,75.3,0,0,1-14.34-1.561,2.758,2.758,0,0,1-2.548-1.98c-.115-.387-.462-.667-.529-1.082l-2.327-4.24q-1.028-1.754-2.054-3.507-.975-1.6-1.953-3.192l-2.193-3.339a16.589,16.589,0,0,1,2.171-.314c1.448-.249,2.9-.5,4.344-.746a145.057,145.057,0,0,0,15.485-3.36.948.948,0,0,1,1.071.27c1.18,1.185,2.4,2.33,3.6,3.5.149.146.345.26.4.484a34.123,34.123,0,0,1,2.989,3.225,27.2,27.2,0,0,1,2.567,3.1,32.1,32.1,0,0,1,2.76,3.6C1916.2-2237.113,1916.785-2236.141,1917.513-2235.115Z" transform="translate(-446.845 -157.212)"/><path class="a" d="M1328.377-1819.719c-2.235,1.184-4.48,2.351-6.7,3.564-.487.266-.667.168-.9-.3-.538-1.094-.561-1.079.532-1.656q4.242-2.241,8.482-4.488c.728-.385,1.226-.338,1.675.167a1.367,1.367,0,0,1,.048,1.825q-2.854,3.894-5.724,7.783c.138.2.324.1.473.1q4.542-.165,9.083-.349a1.425,1.425,0,0,1,1.633,1.039,1.082,1.082,0,0,1-.551,1.365c-3.147,1.671-6.3,3.334-9.442,5.015-.31.167-.422.1-.58-.184-.69-1.241-.7-1.238.518-1.888,2.026-1.08,4.053-2.156,6.106-3.248-.144-.173-.321-.093-.465-.088-2.62.085-5.241.171-7.861.275a1.321,1.321,0,0,1-1.409-.672,1.31,1.31,0,0,1,.265-1.484q2.464-3.338,4.906-6.693Z" transform="translate(-30.262 -476.806)"/><path class="a" d="M1760.6-2128.18a31.045,31.045,0,0,1-.76,6.585,24.605,24.605,0,0,1-1.027,3.748c-.176.391-.257.9-.557,1.139-.37.292-.719-.236-1.091-.368a3.983,3.983,0,0,0-5.02,2.188c-.163.373-.265.364-.573.182a18.881,18.881,0,0,1-4.633-4.134,22.609,22.609,0,0,1-2.469-3.243,49.9,49.9,0,0,1-3.865-6.072,42.559,42.559,0,0,1-2.437-4.415,31.035,31.035,0,0,1-1.818-3.589,1.129,1.129,0,0,1-.089-1.5c.385-.64.685-1.331,1.022-2q.775-1.677,1.548-3.351.713-1.612,1.424-3.228,1.235-3.032,2.47-6.063c.106-.262.2-.329.443-.107q3.363,3.028,6.743,6.037l4.031,3.338q2.176,1.687,4.354,3.37c.692.5,1.382.995,2.077,1.487a.478.478,0,0,1,.248.412c.026.958.066,1.916.1,2.873q0,1.613,0,3.225A19.574,19.574,0,0,1,1760.6-2128.18Z" transform="translate(-339.614 -231.401)"/><path class="a" d="M1615.778-2118.754a4.317,4.317,0,0,1-.052.573,11.174,11.174,0,0,1,.1-2.626A16.237,16.237,0,0,0,1615.778-2118.754Z" transform="translate(-250.049 -255.023)"/><path class="a" d="M2058.185-1758.394c-2.278-1.682-4.409-3.275-6.567-4.83-.424-.305-.429-.492-.125-.882.778-1,.76-1.016,1.765-.275,2.559,1.886,5.114,3.779,7.682,5.653.534.39.889.817.667,1.512a1.325,1.325,0,0,1-1.481.876q-4.7-.129-9.409-.262c-.118,0-.25-.071-.4.072l4.232,3.122c.795.587,1.584,1.182,2.389,1.754.249.177.269.292.086.553-.864,1.232-.853,1.239-2.035.368q-3.787-2.792-7.577-5.579c-.507-.371-.872-.775-.647-1.454a1.287,1.287,0,0,1,1.466-.884q4.673.122,9.345.256C2057.721-1758.391,2057.868-1758.394,2058.185-1758.394Z" transform="translate(-570.862 -519.94)"/><path class="a" d="M2135.991-1934.254l-5.137-.914c-.972-.173-1.942-.361-2.918-.508-.377-.056-.461-.188-.356-.547.13-.447,0-1.094.341-1.313.281-.179.849.082,1.287.16,3.129.553,6.256,1.122,9.388,1.656a1.194,1.194,0,0,1,1.146,1.1,1.272,1.272,0,0,1-.849,1.309q-4.334,1.979-8.658,3.981c-.113.052-.223.112-.463.233,1.256.224,2.388.429,3.521.629,1.522.269,3.043.544,4.568.8.4.066.529.2.447.627-.263,1.364-.244,1.354-1.592,1.111q-4.564-.823-9.132-1.622c-.976-.172-1.321-.421-1.406-1.058-.092-.7.206-1.114,1.1-1.527q4.063-1.875,8.126-3.751A1.159,1.159,0,0,0,2135.991-1934.254Z" transform="translate(-630.013 -391.394)"/><path class="a" d="M1407.481-1711.676c-.694.686-1.38,1.357-2.057,2.036-1.215,1.217-2.438,2.425-3.626,3.668-.324.339-.486.305-.792-.009-.934-.961-.948-.948-.023-1.879q3.363-3.384,6.723-6.772a1.2,1.2,0,0,1,1.541-.391,1.281,1.281,0,0,1,.641,1.528l-1.7,9.707c.249,0,.323-.212.448-.338,1.793-1.794,3.586-3.587,5.361-5.4.273-.279.41-.3.7-.012,1,1,1.009.99,0,2.009q-3.295,3.316-6.583,6.639c-.46.467-.923.779-1.586.45-.6-.3-.8-.8-.655-1.644q.8-4.535,1.613-9.068A.719.719,0,0,0,1407.481-1711.676Z" transform="translate(-89.717 -556.959)"/><path class="a" d="M2122.582-1889.672a6.287,6.287,0,0,0-6.283,6.339,6.268,6.268,0,0,0,6.282,6.267,6.326,6.326,0,0,0,6.3-6.339A6.316,6.316,0,0,0,2122.582-1889.672Zm.137,10.6a4.52,4.52,0,0,1-4.632-4.377,4.214,4.214,0,0,1,4.346-4.221,4.536,4.536,0,0,1,4.645,4.373A4.249,4.249,0,0,1,2122.718-1879.067Z" transform="translate(-622.67 -427.067)"/><path class="a" d="M1862.214-1613.127a6.327,6.327,0,0,0-6.345,6.292,6.294,6.294,0,0,0,6.255,6.3,6.32,6.32,0,0,0,6.349-6.285A6.311,6.311,0,0,0,1862.214-1613.127Zm.052,10.787a4.615,4.615,0,0,1-4.43-4.688,4.258,4.258,0,0,1,4.225-4.3,4.6,4.6,0,0,1,4.418,4.689A4.228,4.228,0,0,1,1862.266-1602.34Z" transform="translate(-428.82 -632.913)"/><path class="a" d="M1311.235-1867.144a6.267,6.267,0,0,0-6.3,6.24,6.26,6.26,0,0,0,6.268,6.336,6.238,6.238,0,0,0,6.3-6.229A6.281,6.281,0,0,0,1311.235-1867.144Zm-.2,10.606a4.22,4.22,0,0,1-4.293-4.212,4.579,4.579,0,0,1,4.672-4.428,4.245,4.245,0,0,1,4.3,4.213A4.6,4.6,0,0,1,1311.033-1856.538Z" transform="translate(-18.732 -443.836)"/><path class="a" d="M1624.432-2199.079a.388.388,0,0,1-.036.18C1624.409-2198.959,1624.42-2199.02,1624.432-2199.079Z" transform="translate(-256.524 -196.761)"/><path class="a" d="M1546.154-2176.4c-.109.91-.2,1.755-.31,2.6-.181,1.351-.216,2.719-.484,4.06-.055,1.519-.17,3.033-.377,4.541,0,.027-.006.055-.01.083a13.476,13.476,0,0,1-.128,2.413.733.733,0,0,1-.035.521,11.173,11.173,0,0,0-.1,2.626c-.006.069-.011.138-.018.206a12.946,12.946,0,0,0,.018,1.66c.127.954-.427,1.377-1.174,1.692a41.324,41.324,0,0,1-4.493,3.268h0c-4.137,2.778-8.36,5.371-13.431,6.291a10.044,10.044,0,0,0,.107-1.444,3.9,3.9,0,0,0-4.809-3.632c-.1.021-.212.028-.319.042-.437.2-.266-.183-.266-.31a16.229,16.229,0,0,1,.315-3,5.048,5.048,0,0,1,.341-1.474,17.953,17.953,0,0,1,.895-3.1,21.853,21.853,0,0,1,1.168-3.227,30.8,30.8,0,0,1,1.484-3.5c.6-1.448,1.278-2.855,2.015-4.236a1.644,1.644,0,0,1,1.471-1.255,170.15,170.15,0,0,0,17.387-4.6C1545.621-2176.248,1545.844-2176.312,1546.154-2176.4Z" transform="translate(-179.033 -213.639)"/><path class="a" d="M1667.325-1581.769c-.157-.293-.164-.4.194-.536a3.636,3.636,0,0,0,2.506-3.836,3.764,3.764,0,0,0-3.244-3.347c-1.226-.2-2.465-.337-3.7-.471a1.164,1.164,0,0,0-1.384,1.1c-.422,3.472-.853,6.943-1.233,10.42-.09.824.685.346,1.036.49.208.085.745.447.833-.236.1-.81.174-1.623.3-2.427.086-.543-.1-1.318.311-1.567.383-.232,1.069.052,1.622.081a.933.933,0,0,1,.868.617c.623,1.293,1.3,2.563,1.95,3.84.116.227.205.47.526.5.615.058,1.23.135,1.933.214-.133-.283-.223-.493-.329-.7C1668.789-1579,1668.068-1580.391,1667.325-1581.769Zm-3.9-2.114c-.319-.03-.387-.157-.351-.45q.222-1.754.413-3.512c.03-.273.133-.375.409-.338.849.117,1.712.168,2.548.34a2.112,2.112,0,0,1,1.642,2.354,2.189,2.189,0,0,1-2.3,1.894C1665.046-1583.689,1664.239-1583.8,1663.429-1583.883Z" transform="translate(-283.366 -650.151)"/><path class="a" d="M1843.221-2321.073c-1.477.873-2.944,1.754-4.425,2.611-1.542.893-3.1,1.755-4.642,2.649-.351.2-.563.236-.836-.144-.789-1.1-1.617-2.171-2.453-3.235a.519.519,0,0,1,0-.766c1.09-1.438,2.153-2.9,3.22-4.352.176-.24.323-.41.68-.285,2.835,1,5.626,2.1,8.352,3.37C1843.146-2321.21,1843.162-2321.159,1843.221-2321.073Z" transform="translate(-410.083 -103.303)"/><path class="a" d="M1498.023-1647.388l-.2.331q-2.883,4.8-5.758,9.6c-.205.344-.352.366-.686.162-1.259-.77-1.268-.757-.494-2.048.562-.938,1.115-1.883,1.7-2.805.189-.3.13-.418-.152-.584q-2.08-1.225-4.135-2.491c-.3-.188-.445-.177-.633.149-.709,1.225-1.461,2.424-2.174,3.647-.189.326-.32.4-.677.183-1.283-.775-1.293-.758-.523-2.036,1.737-2.884,3.484-5.762,5.2-8.66.251-.425.41-.459.818-.2,1.175.738,1.189.719.477,1.9-.574.956-1.141,1.916-1.734,2.86-.187.3-.184.452.146.644q2.058,1.2,4.083,2.451c.329.2.483.19.687-.164.694-1.209,1.443-2.385,2.136-3.594.214-.373.388-.43.727-.175.29.218.62.383.932.572C1497.865-1647.583,1497.994-1647.54,1498.023-1647.388Z" transform="translate(-151.848 -603.75)"/><path class="a" d="M1989.64-1679.93c-.17.151-.322.294-.483.427-1.013.84-1.014.84-1.858-.18-.726-.877-1.462-1.746-2.169-2.637-.23-.29-.374-.288-.652-.053q-1.818,1.542-3.678,3.035c-.329.263-.29.418-.044.706.92,1.078,1.807,2.185,2.722,3.267.208.246.225.37-.042.6-1.188,1.022-1.18,1.033-2.184-.181-2.135-2.582-4.259-5.174-6.416-7.739-.325-.387-.273-.543.091-.833,1.089-.865,1.074-.882,1.955.187.71.862,1.435,1.713,2.129,2.587.23.29.382.291.659.056,1.213-1.027,2.436-2.043,3.678-3.035.334-.267.278-.422.036-.706-.906-1.062-1.774-2.156-2.682-3.217-.253-.295-.256-.438.058-.7,1.156-.947,1.146-.962,2.1.187q3.224,3.9,6.445,7.8C1989.41-1680.224,1989.514-1680.089,1989.64-1679.93Z" transform="translate(-517.212 -576.411)"/><path class="a" d="M1577.945-2318.912c1.759-.877,3.566-1.644,5.381-2.388.911-.373,1.844-.693,2.756-1.063a.527.527,0,0,1,.749.2q1.542,2.1,3.139,4.16a.531.531,0,0,1-.009.776c-.834,1.09-1.638,2.2-2.454,3.306-.132.178-.2.4-.538.218-3-1.653-6-3.313-8.952-5.061C1577.988-2318.784,1577.981-2318.836,1577.945-2318.912Z" transform="translate(-221.948 -104.938)"/><path class="a" d="M1294.954-1933.5a1.316,1.316,0,0,0-1.142-1.136c-2.489-.572-4.968-1.181-7.45-1.777l-4.654-1.115c.4.777.079,1.706.64,2.106a5.9,5.9,0,0,0,2.037.524.268.268,0,0,0,.062.013c.368.005.5.2.552.556.209,1.356.457,2.708.689,4.062.2,1.163.2,1.163-.81,1.785-1.38.85-1.361.846-1.116,2.471.071.471.173.462.531.233q4.956-3.185,9.932-6.34A1.316,1.316,0,0,0,1294.954-1933.5Zm-2.785.577-4.722,2.995c-.243-1.439-.472-2.806-.706-4.173-.041-.244-.073-.419.294-.328,1.762.439,3.529.858,5.282,1.283C1292.323-1933,1292.241-1932.964,1292.169-1932.919Z" transform="translate(-1.445 -391.449)"/><path class="a" d="M2093.765-1788.9q-5.977-.745-11.954-1.487a1.237,1.237,0,0,0-1.34.682,1.278,1.278,0,0,0,.158,1.5q2.527,3.34,5.033,6.694c.782,1.042,1.566,2.083,2.393,3.183.315-.54.578-1.025.879-1.487a.479.479,0,0,0-.039-.673c-.431-.507-.81-1.057-1.237-1.567a.488.488,0,0,1-.06-.67q1.249-2.1,2.453-4.231a.571.571,0,0,1,.706-.359c.629.128,1.274.187,1.911.276.218.031.417.056.551-.192.285-.523.588-1.036.9-1.58A3.526,3.526,0,0,0,2093.765-1788.9Zm-5.358,1.444c-.707,1.218-1.414,2.437-2.168,3.733l-3.564-4.754c1.953.241,3.756.466,5.56.684C2088.489-1787.767,2088.524-1787.661,2088.407-1787.46Z" transform="translate(-595.874 -500.957)"/><path class="a" d="M1620.875-1586.46c.254-1.182.518-2.419.786-3.656q.636-2.923,1.277-5.847a1.238,1.238,0,0,1,1.725-1.1c1.929.419,3.855.852,5.788,1.249.454.093.588.229.464.712-.264,1.027-.234,1.04-1.3.812-1.468-.316-2.937-.627-4.4-.972-.366-.087-.486,0-.555.354-.167.863-.347,1.725-.573,2.574-.118.443.061.547.437.625,1.471.3,2.934.644,4.407.936.477.095.621.242.481.755-.27.987-.233,1-1.241.781-1.321-.286-2.644-.564-3.96-.871-.4-.094-.614-.08-.692.416a23.747,23.747,0,0,1-.554,2.512c-.114.419.046.513.4.588,1.637.344,3.266.728,4.907,1.053.45.089.488.266.4.653-.252,1.079-.238,1.079-1.313.842-1.8-.4-3.606-.784-5.406-1.189A1.2,1.2,0,0,1,1620.875-1586.46Z" transform="translate(-253.903 -644.819)"/><path class="a" d="M2017.793-1702.652a1.158,1.158,0,0,1-.856-.375q-3.43-3.406-6.861-6.81a1.111,1.111,0,0,1-.042-1.712c1.493-1.544,3.02-3.056,4.525-4.588.18-.183.307-.192.458.006a.392.392,0,0,0,.047.044c.934.849.934.849.052,1.738-1.029,1.037-2.049,2.082-3.09,3.107-.249.245-.292.393-.011.655q.991.921,1.921,1.906c.256.27.4.251.648-.008,1.105-1.142,2.243-2.254,3.347-3.4.256-.266.393-.256.65,0,.849.838.862.827.006,1.693-.951.962-1.9,1.931-2.864,2.877-.241.236-.259.365,0,.6.659.615,1.306,1.246,1.92,1.906.29.311.444.247.706-.024,1.151-1.188,2.333-2.346,3.482-3.535.289-.3.459-.391.8-.037.771.809.793.788-.014,1.6q-1.882,1.9-3.763,3.8A1.462,1.462,0,0,1,2017.793-1702.652Z" transform="translate(-543.288 -556.134)"/><path class="a" d="M1526.552-1618.935a1.749,1.749,0,0,1,.211-.677q2.021-4.273,4.037-8.548a1.173,1.173,0,0,1,1.737-.66c1.889.874,3.763,1.779,5.651,2.655.3.141.35.261.207.574-.512,1.115-.5,1.123-1.607.6-1.319-.623-2.644-1.235-3.952-1.882-.359-.177-.5-.12-.656.244-.337.788-.7,1.568-1.106,2.322-.232.429-.08.573.3.745,1.386.632,2.754,1.3,4.14,1.937.354.161.484.284.276.7-.52,1.026-.493,1.037-1.511.554-1.221-.579-2.45-1.144-3.662-1.741-.344-.169-.513-.152-.675.227-.345.808-.712,1.609-1.125,2.384-.2.384-.078.5.254.652,1.519.7,3.023,1.439,4.545,2.133.384.175.447.328.257.712-.5,1.007-.48,1.016-1.519.526-1.63-.769-3.258-1.543-4.892-2.305A1.4,1.4,0,0,1,1526.552-1618.935Z" transform="translate(-183.694 -621.109)"/><path class="a" d="M1801.888-1583.514a1.116,1.116,0,0,1-1.179-.908q-.986-4.793-1.948-9.591a1.093,1.093,0,0,1,.891-1.4c2.1-.453,4.2-.863,6.306-1.3.284-.059.363.036.427.3.3,1.238.311,1.238-.917,1.489-1.43.292-2.859.59-4.293.862-.379.072-.481.184-.377.588a23.591,23.591,0,0,1,.514,2.522c.065.45.241.508.633.424,1.49-.319,2.99-.592,4.475-.933.445-.1.589-.028.677.422.215,1.1.238,1.092-.861,1.31-1.326.263-2.65.542-3.977.8-.388.074-.529.193-.411.632a22.327,22.327,0,0,1,.505,2.458c.069.458.225.548.669.45,1.614-.354,3.24-.651,4.854-1.008.411-.091.546-.033.627.4.209,1.108.236,1.1-.882,1.334q-2.649.547-5.3,1.091C1802.178-1583.546,1802.027-1583.533,1801.888-1583.514Z" transform="translate(-386.288 -645.116)"/><path class="a" d="M1471.171-2244.536c-.776,1.078-1.292,2.317-2.1,3.373-.554,1.049-1.167,2.063-1.814,3.057-.618,1.034-1.109,2.138-1.792,3.135v0l-1.948,3.59q-.78,1.536-1.559,3.072c-.054.4-.3.559-.681.641a86.652,86.652,0,0,1-12.156,1.9,25.9,25.9,0,0,1-8.234-.439c-.45-.113-.512-.23-.248-.608a4.318,4.318,0,0,0,.559-1.629,4.335,4.335,0,0,0-1.164-3.1c-1.519-1.243-2.749-1.416-4.906-.646.714-1.032,1.323-2.041,2.073-2.953a28.963,28.963,0,0,1,2.314-3.1,32.848,32.848,0,0,1,2.74-3.344,34.625,34.625,0,0,1,2.924-3.24c1.2-1.407,2.587-2.633,3.894-3.936a.583.583,0,0,1,.64-.135,166.858,166.858,0,0,0,20.062,3.777c.424.057.847.13,1.273.161C1471.508-2244.923,1471.369-2244.747,1471.171-2244.536Z" transform="translate(-115.642 -159.653)"/><path class="a" d="M1877.813-2292.47c-5.106,1.175-10.264,2.056-15.457,2.748-1.906.254-3.818.484-5.726.733-.244.032-.458.073-.623-.178-.685-1.034-1.38-2.062-2.072-3.091q-1.576-2.191-3.157-4.379c-.151-.209-.118-.325.1-.445.714-.387,1.421-.788,2.131-1.184,2.557-1.564,5.14-3.089,7.656-4.717a1.751,1.751,0,0,1,2.112-.079,91.4,91.4,0,0,1,7.839,4.78,77,77,0,0,1,7.365,5.465C1878.42-2292.462,1878.031-2292.507,1877.813-2292.47Z" transform="translate(-424.962 -119.126)"/><path class="a" d="M1356.749-1757.367a3.578,3.578,0,0,1-2.763-1.569c-.821-1.127-1.587-2.293-2.4-3.427-.206-.287-.141-.412.121-.6,1.038-.756,1.03-.766,1.756.285.561.812,1.126,1.621,1.685,2.435a2.252,2.252,0,0,0,.891.816,1.643,1.643,0,0,0,1.813-.205,1.479,1.479,0,0,0,.533-1.612,4.243,4.243,0,0,0-.57-1.288,7.683,7.683,0,0,1-.776-1.621,3.075,3.075,0,0,1,1-3.641,3.38,3.38,0,0,1,3.916-.267,4.154,4.154,0,0,1,1.308,1.222c.761,1.091,1.5,2.2,2.276,3.278.193.27.181.391-.1.589-1.061.759-1.053.771-1.8-.311-.562-.811-1.117-1.627-1.686-2.434a1.906,1.906,0,0,0-1.724-.943,1.592,1.592,0,0,0-1.482,1.925,4.18,4.18,0,0,0,.572,1.355,7.536,7.536,0,0,1,.83,1.806A3.3,3.3,0,0,1,1356.749-1757.367Z" transform="translate(-53.369 -517.213)"/><path class="a" d="M1586.451-1593.339a5.856,5.856,0,0,1-1.743-.4q-1.564-.5-3.135-.981c-.278-.085-.417-.156-.3-.526.388-1.248.365-1.253,1.627-.859,1.045.326,2.084.677,3.141.957a1.7,1.7,0,0,0,2.066-1,1.474,1.474,0,0,0-.383-1.76,3.8,3.8,0,0,0-1.275-.739,8.917,8.917,0,0,1-1.508-.722,3.121,3.121,0,0,1-1.482-4.021,3.443,3.443,0,0,1,3.82-2.186c1.607.294,3.122.939,4.689,1.391.185.053.316.146.188.368a.521.521,0,0,0-.035.124c-.35,1.251-.35,1.251-1.572.867l-2.886-.91a2.026,2.026,0,0,0-1.509.051,1.623,1.623,0,0,0-.417,2.678,3.969,3.969,0,0,0,1.283.727,8.232,8.232,0,0,1,1.5.731,3.11,3.11,0,0,1,1.5,3.8A3.5,3.5,0,0,1,1586.451-1593.339Z" transform="translate(-224.395 -638.49)"/><path class="a" d="M1833.061-2200.377a.874.874,0,0,1-.037-.17C1833.035-2200.491,1833.048-2200.434,1833.061-2200.377Z" transform="translate(-411.816 -195.668)"/><path class="a" d="M1711.29-1585.685q-1.278,3.063-2.567,6.153c-.7,1.683-1.407,3.364-2.1,5.052a1.265,1.265,0,0,1-1.181.855,1.246,1.246,0,0,1-1.208-.9c-1.381-3.809-2.773-7.614-4.187-11.489h1.869c.375,0,.35.336.428.553.965,2.685,1.914,5.375,2.879,8.06.068.188.053.433.307.576q1.573-3.849,3.136-7.674c.578-1.416.576-1.419,2.091-1.315A.713.713,0,0,1,1711.29-1585.685Z" transform="translate(-312.838 -653.096)"/><path class="a" d="M1900.4-1630.732a1.19,1.19,0,0,1,.7-.9c1.783-.9,3.575-1.775,5.355-2.676.263-.133.363-.063.5.164.675,1.138.681,1.133-.5,1.72s-2.335,1.182-3.515,1.749c-.335.161-.454.287-.249.662.422.771.813,1.561,1.173,2.362.173.384.349.371.678.2,1.258-.65,2.537-1.26,3.792-1.916.35-.183.5-.14.678.216.555,1.115.57,1.107-.525,1.653-1.076.535-2.145,1.085-3.231,1.6-.332.157-.378.29-.21.615.642,1.237,1.239,2.5,1.887,3.73.2.381.136.531-.243.717-1.278.627-1.27.643-1.911-.645q-2.064-4.146-4.127-8.293A1.665,1.665,0,0,1,1900.4-1630.732Z" transform="translate(-461.962 -617.093)"/><path class="a" d="M1694.276-2330.517a15.646,15.646,0,0,1-2.727,6.44,15.6,15.6,0,0,1-5.03,4.879,17.2,17.2,0,0,1-10.934,2.817,16.646,16.646,0,0,1-8.283-2.817,15.868,15.868,0,0,1-4.9-4.752,15.15,15.15,0,0,1-2.722-6.158,15.822,15.822,0,0,1-.3-6.464c.036-.265-.033-.559.147-.8a16.836,16.836,0,0,1,1.513-4.567.763.763,0,0,1,.675-.4c2.194-.379,4.395-.716,6.612-.924a87.8,87.8,0,0,1,10.584-.51,99.274,99.274,0,0,1,13.1,1.166c.245.04.492.063.636.35a16.133,16.133,0,0,1,1.731,5.159A15.633,15.633,0,0,1,1694.276-2330.517Z" transform="translate(-282.416 -89.04)"/><path class="a" d="M1830.469-2264.467c-2.053.176-3.944.342-5.835.5-.66.055-1.328.052-1.979.16-.351.059-.463-.029-.526-.336-.29-1.4-.58-2.81-.89-4.21a.432.432,0,0,1,.263-.56q1.9-1.014,3.781-2.059c.224-.125.36-.141.528.093C1827.326-2268.779,1828.853-2266.688,1830.469-2264.467Z" transform="translate(-403.028 -143.182)"/><path class="a" d="M1527.2-2294.607q-1.659,2.429-3.32,4.858c-.506.78-1.038,1.549-1.509,2.35a.777.777,0,0,1-.881.434c-2.951-.365-5.907-.687-8.855-1.078-3.272-.434-6.53-.964-9.766-1.621-.187-.038-.372-.1-.556-.144l-1.878-.329a72.091,72.091,0,0,1,6.159-4.818,77.506,77.506,0,0,1,7.92-5.15c.591-.347,1.2-.66,1.793-1.011a.587.587,0,0,1,.7.015c3.315,2.063,6.687,4.025,10.1,5.925C1527.386-2295.018,1527.613-2294.874,1527.2-2294.607Z" transform="translate(-164.256 -120.73)"/><path class="a" d="M1862.436-2152.154c0,.107.05.238-.134.238a1.572,1.572,0,0,0-1.283,0,3.926,3.926,0,0,0-3.292,3.734c-.044.354-.178.337-.441.316a15.479,15.479,0,0,1-4.513-1.178,37.346,37.346,0,0,1-6.589-3.384,46.723,46.723,0,0,1-4.9-3.212q-1.408-.986-2.814-1.971a.6.6,0,0,1-.3-.706,17.555,17.555,0,0,1-.126-3.1,32.551,32.551,0,0,1-.252-3.88c-.005-.03-.009-.061-.013-.091-.221-1.427-.289-2.867-.407-4.3-.152-1.117-.311-2.232-.352-3.359q-.294-2.058-.589-4.114c-.061-.441.213-.308.437-.242,1.892.55,3.779,1.117,5.677,1.647,3.343.935,6.709,1.774,10.109,2.481a1.317,1.317,0,0,1,.234.1l2.392.433a.573.573,0,0,1,.435.336c.44.9.889,1.8,1.335,2.7a19.925,19.925,0,0,1,1.51,3.239,25.329,25.329,0,0,1,1.688,4,16.424,16.424,0,0,1,1.158,3.485,13.755,13.755,0,0,1,.807,3.215A9.594,9.594,0,0,1,1862.436-2152.154Z" transform="translate(-414.346 -212.84)"/><path class="a" d="M1933.915-2077.894a3.355,3.355,0,0,0-1.283,0A1.57,1.57,0,0,1,1933.915-2077.894Z" transform="translate(-485.959 -286.863)"/><path class="a" d="M1768.862-1579.255c.475-.048,1.183-.1,1.884-.2.3-.043.4.025.465.329.268,1.339.227,1.376-1.122,1.53a8.834,8.834,0,0,1-3.638-.174,5.984,5.984,0,0,1-4.317-6.085,6.09,6.09,0,0,1,5.042-5.594c.818-.166,1.661-.2,2.488-.332.311-.048.379.09.4.335.034.342.044.689.112,1.024.061.3-.06.37-.325.4q-.929.09-1.855.221a4.247,4.247,0,0,0-3.832,4.717C1764.353-1580.831,1766.22-1579.226,1768.862-1579.255Z" transform="translate(-359.043 -650.282)"/><path class="a" d="M1303.41-1902.283c-.213-.829-.423-1.706-.668-2.573-.109-.387-.058-.555.383-.661,1.2-.288,1.2-.315,1.506.9.611,2.391,1.211,4.784,1.845,7.168.1.364.028.475-.315.573-1.268.358-1.265.37-1.6-.909-.146-.56-.328-1.115-.424-1.684-.078-.464-.254-.527-.687-.414-2.989.783-5.988,1.529-8.976,2.319-.45.119-.585.033-.69-.4-.333-1.387-.351-1.385,1.022-1.739q4.114-1.062,8.23-2.12C1303.248-1901.884,1303.561-1901.852,1303.41-1902.283Z" transform="translate(-10.294 -415.151)"/><path class="a" d="M1461.317-1661.959c-.264-.193-.541-.392-.815-.6-.721-.534-.721-.535-.185-1.259,1.779-2.4,3.552-4.8,5.348-7.184.247-.328.274-.49-.092-.737-.711-.481-1.38-1.025-2.079-1.523-.265-.189-.375-.306-.126-.634.807-1.064.79-1.079,1.864-.281,1.915,1.421,3.821,2.854,5.748,4.258.387.282.492.462.152.883-.724.9-.7.92-1.643.217-.483-.358-.99-.69-1.443-1.082-.359-.31-.534-.294-.828.111-1.809,2.482-3.652,4.939-5.487,7.4C1461.62-1662.234,1461.547-1662.043,1461.317-1661.959Z" transform="translate(-134.109 -587.056)"/><path class="a" d="M1952.733-1650.9c-.236-.077-.292-.282-.395-.434-1.721-2.541-3.448-5.078-5.143-7.636-.266-.4-.43-.461-.822-.166-.685.516-1.424.959-2.124,1.456-.25.178-.367.162-.553-.094-.818-1.118-.828-1.111.286-1.863,2.011-1.357,4.029-2.7,6.028-4.077.364-.25.53-.247.78.143.657,1.024.679,1.01-.3,1.674-.516.349-1.02.717-1.553,1.036-.353.212-.4.369-.147.73,1.675,2.442,3.322,4.9,4.978,7.359.553.821.553.821-.3,1.391C1953.222-1651.219,1952.971-1651.059,1952.733-1650.9Z" transform="translate(-493.758 -595.129)"/><path class="a" d="M2093.258-1827.29c-.256-.021-.268.195-.335.334-.391.812-.781,1.623-1.149,2.445-.122.27-.226.33-.522.2-1.268-.553-1.275-.541-.689-1.784,1.033-2.192,2.078-4.379,3.094-6.578.178-.386.331-.444.714-.256,1.107.543,1.116.525.594,1.635-.256.544-.486,1.1-.776,1.625-.221.4-.141.558.27.749,2.785,1.29,5.553,2.618,8.337,3.911.43.2.566.343.315.828-.636,1.229-.606,1.245-1.878.646l-7.515-3.542Z" transform="translate(-603.233 -469.227)"/><path class="a" d="M1500.3-2408.151a3.386,3.386,0,0,1-3.14-4.281,5.1,5.1,0,0,1,2.664-3.158,10.788,10.788,0,0,1,7.555-1.018,23.659,23.659,0,0,1,5.47,1.837c-.711.378-1.354.715-1.991,1.061-.285.155-.5-.037-.721-.137a14.163,14.163,0,0,0-5.51-1.4,8.038,8.038,0,0,0-3.9.947,2.633,2.633,0,0,0-1.716,2.865,2.973,2.973,0,0,0,2.761,2.135c.107.009.214.014.321.02.025.358-.311.331-.5.451s-.394.232-.591.347A2.215,2.215,0,0,1,1500.3-2408.151Z" transform="translate(-161.724 -34.65)"/><path class="a" d="M1847.454-2217.317c-1.5-.384-2.862-.722-4.219-1.079-3.417-.9-6.8-1.905-10.174-2.965-.142-.045-.279-.107-.418-.16-.876-.279-1.749-.572-2.632-.827a.621.621,0,0,1-.534-.609,13.041,13.041,0,0,1-.2-1.587c-.013-.057-.026-.114-.037-.17a33.667,33.667,0,0,1-.612-3.605c-.221-1.132-.43-2.267-.671-3.394-.071-.333.083-.35.329-.373q3.287-.31,6.576-.635c.808-.079,1.616-.172,2.423-.27.154-.02.293-.074.4.089.99,1.526,2.122,2.958,2.97,4.576a25.178,25.178,0,0,1,2.035,3.1,37.954,37.954,0,0,1,2.064,3.352C1845.7-2220.446,1846.511-2218.935,1847.454-2217.317Z" transform="translate(-408.029 -171.5)"/><path class="a" d="M1630.985-2150.968c.112-.2-.035-.446.106-.642C1631.066-2151.394,1631.168-2151.158,1630.985-2150.968Z" transform="translate(-261.428 -232.095)"/><path class="a" d="M1717.512-2179.358c-.373.935-.74,1.873-1.109,2.809a42.978,42.978,0,0,1-1.672,4.257c-.892,2.481-2.008,4.867-3.089,7.428-.277-.607-.511-1.1-.729-1.594-.87-1.982-1.8-3.942-2.54-5.977a45.583,45.583,0,0,1-1.783-4.393q-.494-1.206-.986-2.411a.409.409,0,0,1,.1-.514c.6-.567,1.192-1.146,1.785-1.722q1.884-1.928,3.764-3.862c.188-.2.314-.217.516-.012,1.324,1.34,2.66,2.668,3.992,4,.534.5,1.064,1,1.6,1.487A.4.4,0,0,1,1717.512-2179.358Z" transform="translate(-316.935 -206.874)"/><path class="a" d="M2106.856-1843.8l.318.126c3.445,1.369,6.887,2.745,10.339,4.1.4.156.446.3.289.688-.552,1.34-.536,1.346-1.9.8-3.127-1.241-6.25-2.492-9.385-3.712-.472-.184-.573-.375-.329-.813a8.02,8.02,0,0,0,.386-.951C2106.619-1843.677,2106.632-1843.826,2106.856-1843.8Z" transform="translate(-615.048 -461.21)"/><path class="a" d="M1398.527-1726.3c-.03.21-.177.28-.287.375q-4.256,3.691-8.509,7.385c-.267.233-.391.184-.608-.053-1.045-1.143-1.05-1.134.116-2.144,2.531-2.191,5.068-4.376,7.583-6.585.377-.331.6-.363.889.067A10.762,10.762,0,0,0,1398.527-1726.3Z" transform="translate(-80.825 -547.722)"/><path class="a" d="M1747.036-1580.048c-.08-1.825-.151-3.65-.248-5.475-.02-.379.057-.523.472-.542,1.46-.066,1.46-.083,1.531,1.4.16,3.327.307,6.655.489,9.981.029.54-.056.753-.662.75-1.267-.007-1.284.033-1.352-1.22-.089-1.631-.148-3.263-.22-4.9Z" transform="translate(-347.624 -653.04)"/><path class="a" d="M1628.86-2127.91v0h0Z" transform="translate(-259.846 -249.736)"/><path class="a" d="M1646.6-2222.484q-4.232,1.58-8.452,3.19c-.413.157-.462.04-.39-.34.236-1.237.453-2.477.677-3.716.133-1.191.409-2.357.621-3.534.052-.288.19-.325.442-.31q2.809.174,5.621.324c.281.014.475.04.574.363.352,1.142.736,2.276,1.107,3.413C1647.015-2222.8,1646.972-2222.622,1646.6-2222.484Z" transform="translate(-266.451 -175.832)"/><path class="a" d="M1745.624-2206.075c-.123.245-.2.511-.3.768q-.873,2.624-1.745,5.248l-.209.128a8.813,8.813,0,0,0-.576-.731q-1.816-1.864-3.648-3.712c-.62-.626-.622-.623.057-1.225h0c.729-.807,1.469-1.606,2.185-2.424.212-.242.389-.151.616-.059,1.089.435,2.175.879,3.278,1.273C1745.7-2206.659,1745.824-2206.481,1745.624-2206.075Z" transform="translate(-341.594 -189.988)"/><path class="a" d="M1608.879-2267.143c-.165.572-.274,1.159-.407,1.741-.137.783-.28,1.566-.406,2.351-.052.317-.161.493-.532.462-2.548-.208-5.1-.4-7.812-.611l1.672-2.341c.96-1.37,1.926-2.737,2.877-4.111.158-.228.292-.235.521-.109q1.9,1.026,3.807,2.022C1608.867-2267.6,1608.971-2267.464,1608.879-2267.143Z" transform="translate(-238.158 -144.088)"/><path class="a" d="M1740.5-2059.753c-.286-.027-.355-.145-.292-.5A.512.512,0,0,0,1740.5-2059.753Z" transform="translate(-342.713 -300.098)"/><path class="a" d="M1792.606-2220.271c-2.873-1.036-5.767-2.019-8.611-3.139-.142-.057-.312-.054-.226-.28.39-1.246.783-2.49,1.164-3.74.09-.3.263-.364.563-.379,1.878-.1,3.755-.216,5.629-.359.339-.026.416.125.462.373q.387,2.049.769,4.1c.195,1.023.379,2.049.59,3.069C1793.016-2220.3,1793.045-2220.114,1792.606-2220.271Z" transform="translate(-375.136 -175.107)"/><path class="a" d="M1784.5-2174.6c-.934-.76-1.71-1.384-2.478-2.02-1.234-1.022-2.5-2.01-3.662-3.116q-2.329-1.922-4.512-4.006c-1.6-1.405-3.173-2.837-4.654-4.368a.321.321,0,0,1-.058-.027c-.92-.777-.923-.779-.5-1.89.234-.618.48-1.233.722-1.848.55-1.575,1.106-3.147,1.644-4.725.108-.319.253-.306.527-.206q5.117,1.89,10.3,3.584c.708.232.431.871.55,1.345a23.445,23.445,0,0,1,.507,3.613c.27,1.239.422,2.5.576,3.752.026.21.039.422.058.634.216,1.453.389,2.912.493,4.377C1784.166-2177.934,1784.322-2176.368,1784.5-2174.6Z" transform="translate(-363.684 -198.407)"/><path class="a" d="M1642.808-2187.859c-.121.081-.227.185-.341.278-.9.95-1.836,1.871-2.826,2.731-1.088.923-1.991,2.042-3.119,2.922-1.212,1.15-2.42,2.307-3.743,3.334-1.711,1.578-3.481,3.091-5.411,4.631a35.177,35.177,0,0,1,.276-3.577c.218-.414.07-.858.106-1.287h0v0a24.548,24.548,0,0,1,.282-2.968q.129-1.225.262-2.452c.183-.19.081-.426.106-.642.005-.042.01-.085.015-.126a14.85,14.85,0,0,1,.267-2.329,31.594,31.594,0,0,1,.5-3.477c.047-.424.107-.847.134-1.273.018-.27.177-.351.4-.426q5.21-1.766,10.345-3.734c.236-.09.37-.129.478.173.626,1.757,1.271,3.506,1.911,5.259a16.607,16.607,0,0,0,.678,1.635A.883.883,0,0,1,1642.808-2187.859Z" transform="translate(-258.738 -198.815)"/><path class="a" d="M1628.45-2126.62a4.6,4.6,0,0,0,.047-1.006,1.078,1.078,0,0,1,.058-.281v0C1628.52-2127.478,1628.668-2127.033,1628.45-2126.62Z" transform="translate(-259.542 -249.736)"/><path class="a" d="M1572.62-2229.034c-.123.693-.256,1.385-.385,2.078-.155,1.286-.341,2.567-.6,3.838-.011.059-.023.12-.036.179.064.228-.182.395-.138.606.239,1.156-.422,1.527-1.4,1.818-2.331.689-4.634,1.478-6.948,2.228a.69.69,0,0,1-.432.067c-1.394.527-2.833.907-4.263,1.314-1.584.45-3.175.87-4.954,1.354l1.763-3.039c.853-1.6,1.781-3.146,2.765-4.662.776-1.363,1.6-2.7,2.5-3.983.832-1.3,1.67-2.594,2.494-3.9a.556.556,0,0,1,.612-.234c2.615.247,5.231.49,7.845.747.471.046,1.131-.194,1.359.222C1572.971-2230.073,1572.7-2229.5,1572.62-2229.034Z" transform="translate(-203.723 -172.722)"/><path class="a" d="M1698.29-2204.576c-.25.231-.481.483-.721.725l-3.965,4.16c-.485-1.352-1-2.6-1.371-3.9-.3-.8-.587-1.6-.885-2.4-.093-.245-.047-.373.224-.478,1.194-.465,2.381-.951,3.564-1.444a.339.339,0,0,1,.447.08q1.347,1.421,2.706,2.832C1698.443-2204.839,1698.457-2204.729,1698.29-2204.576Z" transform="translate(-306.327 -190.153)"/><path class="a" d="M1794.928-2251.3c-.172,0-.344,0-.516,0-.826.007-.76.021-.59-.837a2.179,2.179,0,0,1,1.516-1.781,14.081,14.081,0,0,0,1.72-.876c.245-.132.4-.2.473.183.178.927.4,1.846.607,2.767.064.281-.029.371-.321.382-.963.034-1.926.1-2.888.151Z" transform="translate(-382.556 -155.211)"/><path class="a" d="M1649.648-2250.488c-1.07,0-2.141,0-3.211,0-.335,0-.473-.127-.4-.473.188-.88.375-1.761.543-2.646.073-.384.238-.371.528-.212a8.88,8.88,0,0,0,1.5.743,2.545,2.545,0,0,1,1.826,2.145c.1.506.067.672-.46.571a1.726,1.726,0,0,0-.322,0Z" transform="translate(-272.618 -155.939)"/><path class="a" d="M1817.129-2328.581c-.207-.254-.371-.451-.53-.651-1.178-1.481-1.17-1.479-.626-3.321.078-.264.158-.359.435-.281.969.272,1.943.53,2.915.792.219.059.285.155.131.359C1818.682-2330.66,1817.916-2329.632,1817.129-2328.581Z" transform="translate(-398.86 -97.182)"/><path class="a" d="M1629.156-2330.757c.779,1.585-.321,2.526-1.242,3.588-.742-.963-1.469-1.913-2.2-2.858-.2-.251-.071-.3.167-.369,1.011-.288,2.016-.6,3.024-.9C1629.267-2331.249,1628.969-2330.887,1629.156-2330.757Z" transform="translate(-257.43 -98.348)"/><path class="a" d="M1629.974-2287.554c-.983-.512-1.871-.985-2.771-1.437-.308-.154-.357-.291-.133-.575q.838-1.061,1.625-2.162c.191-.267.306-.293.51-.019.359.482.745.943,1.121,1.412a.624.624,0,0,1,.155.589C1630.3-2289.04,1630.15-2288.327,1629.974-2287.554Z" transform="translate(-258.411 -127.641)"/><path class="a" d="M1815.639-2290.989c-.047-.169.062-.282.152-.4.379-.492.773-.974,1.137-1.476.18-.249.286-.238.464,0q.842,1.135,1.719,2.245c.176.223.179.331-.1.472-.838.429-1.66.889-2.493,1.327-.122.064-.308.274-.386-.047C1815.964-2289.572,1815.8-2290.281,1815.639-2290.989Z" transform="translate(-398.867 -126.817)"/><path class="a" d="M1832.279-2450.86a1.61,1.61,0,0,1,1.645,1.474,1.453,1.453,0,0,1-1.582,1.266,1.65,1.65,0,0,1-1.683-1.518A1.46,1.46,0,0,1,1832.279-2450.86Z" transform="translate(-410.055 -9.348)"/><path class="a" d="M1720.955-2215.982c1.97-1.017,2.055-1.017,3.949-.021-.588.636-1.171,1.254-1.738,1.886-.168.188-.276.207-.454.011C1722.152-2214.721,1721.575-2215.322,1720.955-2215.982Z" transform="translate(-328.397 -183.61)"/><path class="a" d="M1760.071-2224.107c.449-.508.864-.965,1.263-1.436a.576.576,0,0,1,.508-.2c.3.009.6.008.9,0,.936-.019.958-.012.638.9-.209.594-.173,1.5-.683,1.7-.429.167-1.125-.351-1.7-.573C1760.7-2223.831,1760.412-2223.962,1760.071-2224.107Z" transform="translate(-357.513 -176.912)"/><path class="a" d="M1686.951-2223.736c-.873.358-1.667.674-2.452,1.011-.218.094-.3.046-.366-.169-.226-.713-.465-1.422-.7-2.131-.105-.311.045-.373.315-.363.492.02.984.028,1.477.038a.438.438,0,0,1,.355.105C1686.018-2224.757,1686.462-2224.271,1686.951-2223.736Z" transform="translate(-300.439 -177.178)"/><path class="a" d="M1801.092-2270.191c.188-.23.367-.468.569-.685.08-.087.155-.336.325-.149a.321.321,0,0,1-.012.506,8.913,8.913,0,0,1-.826.432Z" transform="translate(-388.047 -143.158)"/><path class="a" d="M1652.885-2269.627c-.352-.244-1.258-.076-.837-.991Z" transform="translate(-277.025 -143.512)"/><path class="a" d="M1638.727-2331.845c-.174-.136-.044-.417-.255-.536a3.941,3.941,0,0,1,1.546-.37h0c-.215.3-.573.282-.868.34A.447.447,0,0,0,1638.727-2331.845Z" transform="translate(-267.001 -97.26)"/><path class="a" d="M1615.778-2118.754c-.014.191-.032.382-.052.573a11.174,11.174,0,0,1,.1-2.626A16.243,16.243,0,0,1,1615.778-2118.754Z" transform="translate(-250.049 -255.023)"/><path class="a" d="M1644.1-2304.51c-.23-.221-.5-.379-.228-.7.061-.074.149-.234.236-.126A.693.693,0,0,1,1644.1-2304.51Z" transform="translate(-270.94 -117.642)"/><path class="a" d="M1810.855-2306.43c.4.313.409.577.01.848A.651.651,0,0,1,1810.855-2306.43Z" transform="translate(-395.202 -116.855)"/><path class="a" d="M1512.276-2386.435c.336-.332.888-.329,1.166-.75l.4.013-1.439.859A.21.21,0,0,1,1512.276-2386.435Z" transform="translate(-173.068 -56.745)"/><path class="a" d="M1828.073-2431.219a3.077,3.077,0,0,1-1.267-.275c.356-.209.6,0,.865.026Z" transform="translate(-407.187 -23.697)"/><path class="a" d="M1933.915-2077.894h-1.283A1.57,1.57,0,0,1,1933.915-2077.894Z" transform="translate(-485.959 -286.863)"/><path class="a" d="M1628.4-2126.612a3.424,3.424,0,0,1,.047-1.007c.015-.094.036-.187.058-.281h0C1628.467-2127.47,1628.615-2127.026,1628.4-2126.612Z" transform="translate(-259.488 -249.743)"/><path class="a" d="M1510.394-2384.25l.129.121-.776.391.017-.134C1509.926-2384.079,1510.185-2384.124,1510.394-2384.25Z" transform="translate(-171.186 -58.93)"/><path class="a" d="M1644.52-2333.615c.218-.2.5-.163.87-.3-.3.369-.6.284-.87.3Z" transform="translate(-271.503 -96.396)"/><path class="a" d="M1915.025-2055.117c-.355-.03-.728.126-1.063-.1A2.194,2.194,0,0,1,1915.025-2055.117Z" transform="translate(-472.061 -303.832)"/><path class="a" d="M1740.5-2059.753c-.286-.027-.355-.145-.292-.5C1740.305-2060.084,1740.4-2059.919,1740.5-2059.753Z" transform="translate(-342.713 -300.098)"/><path class="a" d="M1651.912-2435.031a.837.837,0,0,1-.517.126c-.124.043-.265.125-.255-.119.129-.048.3.022.381-.154Z" transform="translate(-276.43 -21.022)"/><path class="a" d="M1513.417-2079.26c-.193-.244-.075-.526-.1-.792C1513.5-2079.806,1513.386-2079.523,1513.417-2079.26Z" transform="translate(-173.833 -285.358)"/><path class="a" d="M1841.354-2054.153c.016-.223-.067-.461.1-.661C1841.438-2054.59,1841.541-2054.349,1841.354-2054.153Z" transform="translate(-418.011 -304.145)"/><path class="a" d="M1630.985-2150.968c.035-.214-.047-.447.106-.642C1631.066-2151.394,1631.168-2151.158,1630.985-2150.968Z" transform="translate(-261.428 -232.095)"/><path class="a" d="M1944.366-2098.451c-.014-.03-.027-.059-.039-.089h0a1.261,1.261,0,0,1-.066-.576C1944.454-2098.92,1944.352-2098.677,1944.366-2098.451Z" transform="translate(-494.609 -271.168)"/><path class="a" d="M1493.571-1907.43c-1.292-.337-1.986-1.051-1.989-2.1a1.976,1.976,0,0,1,2.175-1.862.465.465,0,0,1,.437.526c.012.578,0,1.156,0,1.734h.037a9.344,9.344,0,0,0,.009,1.157C1494.318-1907.391,1494.093-1907.294,1493.571-1907.43Z" transform="translate(-157.664 -410.884)"/><path class="a" d="M1893.2-1883.2a8.234,8.234,0,0,1-3.664,2.276c-1.326.293-2.274-.061-2.686-1.015a2.4,2.4,0,0,1,.9-3.263,12.056,12.056,0,0,1,4.623-1.448c.127-.022.257-.026.384-.047,1.43-.228,1.43-.228,1.43,1.39C1894.446-1884.452,1893.882-1883.82,1893.2-1883.2Z" transform="translate(-451.666 -429.201)"/><path class="a" d="M1587.908-1779.1q.023-1.9,0-3.8c0-.307.092-.407.4-.4,1.35.018,2.7,0,4.052.026a2.838,2.838,0,0,1,1.98.79,2.032,2.032,0,0,1-.2,3.183,3.649,3.649,0,0,1-2.185.626c-.578.016-1.158,0-1.736,0-.622,0-1.244-.015-1.865.007C1588.012-1778.652,1587.9-1778.767,1587.908-1779.1Z" transform="translate(-229.364 -506.246)"/><path class="a" d="M1594.915-1746.51a3.148,3.148,0,0,1-1.918.631c-.75.008-1.5,0-2.252,0-.792,0-1.588-.018-2.38.008-.376.013-.471-.124-.466-.48q.027-1.867,0-3.732c-.005-.352.12-.428.445-.425,1.544.016,3.089,0,4.632.016a3.113,3.113,0,0,1,2.021.707A2.042,2.042,0,0,1,1594.915-1746.51Z" transform="translate(-229.356 -530.655)"/><path class="a" d="M1774.66-1779.628a2.833,2.833,0,0,1-2.348,2.2,18.279,18.279,0,0,1-3.787.127c-1.5.025-1.5.005-1.5-1.474v-1.417c0-.773.016-1.546-.006-2.318-.01-.367.057-.538.484-.529,1.375.027,2.748,0,4.122.014a3.124,3.124,0,0,1,1.864.614A2.589,2.589,0,0,1,1774.66-1779.628Z" transform="translate(-362.683 -506.438)"/><path class="a" d="M1684.591-1768.707h-6.844c1.15-2.339,2.271-4.617,3.437-6.992C1682.341-1773.327,1683.452-1771.046,1684.591-1768.707Z" transform="translate(-296.236 -511.903)"/><path class="a" d="M1664.863-1898.342a.608.608,0,0,1-.258.6,6.619,6.619,0,0,1-4.927,1.2c-.94-.169-1.423-.6-1.491-1.774-.062-1.048-.013-2.1-.013-3.154s.016-2.1-.009-3.155c-.009-.4.125-.514.515-.51q2.864.023,5.73,0c.382,0,.458.139.457.485C1664.854-1902.548,1664.858-1900.444,1664.863-1898.342Z" transform="translate(-281.653 -415.557)"/><path class="a" d="M1646.359-2433.959a6.141,6.141,0,0,1-1.12.275c.27-.375.626-.262.867-.406C1646.172-2434.01,1646.314-2434.079,1646.359-2433.959Z" transform="translate(-272.038 -21.832)"/><path class="a" d="M1648.884-2434.32l-.253-.131.642-.124.255.119C1649.339-2434.287,1649.1-2434.351,1648.884-2434.32Z" transform="translate(-274.563 -21.471)"/><path class="a" d="M1493.571-1907.43c-1.292-.337-1.986-1.051-1.989-2.1a1.976,1.976,0,0,1,2.175-1.862.465.465,0,0,1,.437.526c.012.578,0,1.156,0,1.734h.037a9.344,9.344,0,0,0,.009,1.157C1494.318-1907.391,1494.093-1907.294,1493.571-1907.43Z" transform="translate(-157.664 -410.884)"/><path class="a" d="M1893.2-1883.2a8.234,8.234,0,0,1-3.664,2.276c-1.326.293-2.274-.061-2.686-1.015a2.4,2.4,0,0,1,.9-3.263,12.056,12.056,0,0,1,4.623-1.448c.127-.022.257-.026.384-.047,1.43-.228,1.43-.228,1.43,1.39C1894.446-1884.452,1893.882-1883.82,1893.2-1883.2Z" transform="translate(-451.666 -429.201)"/><path class="a" d="M1594.915-1746.51a3.148,3.148,0,0,1-1.918.631c-.75.008-1.5,0-2.252,0-.792,0-1.588-.018-2.38.008-.376.013-.471-.124-.466-.48q.027-1.867,0-3.732c-.005-.352.12-.428.445-.425,1.544.016,3.089,0,4.632.016a3.113,3.113,0,0,1,2.021.707A2.042,2.042,0,0,1,1594.915-1746.51Z" transform="translate(-229.356 -530.655)"/><path class="a" d="M1594.136-1779.3a3.649,3.649,0,0,1-2.185.626c-.578.016-1.158,0-1.736,0-.622,0-1.244-.015-1.865.007-.337.013-.447-.1-.442-.438q.023-1.9,0-3.8c0-.307.092-.407.4-.4,1.35.018,2.7,0,4.052.026a2.838,2.838,0,0,1,1.98.79A2.032,2.032,0,0,1,1594.136-1779.3Z" transform="translate(-229.364 -506.246)"/><path class="a" d="M1774.66-1779.628a2.833,2.833,0,0,1-2.348,2.2,18.279,18.279,0,0,1-3.787.127c-1.5.025-1.5.005-1.5-1.474v-1.417c0-.773.016-1.546-.006-2.318-.01-.367.057-.538.484-.529,1.375.027,2.748,0,4.122.014a3.124,3.124,0,0,1,1.864.614A2.589,2.589,0,0,1,1774.66-1779.628Z" transform="translate(-362.683 -506.438)"/><path class="a" d="M1684.591-1768.707h-6.844c1.15-2.339,2.271-4.617,3.437-6.992C1682.341-1773.327,1683.452-1771.046,1684.591-1768.707Z" transform="translate(-296.236 -511.903)"/><path class="a" d="M1664.863-1898.342a.608.608,0,0,1-.258.6,6.619,6.619,0,0,1-4.927,1.2c-.94-.169-1.423-.6-1.491-1.774-.062-1.048-.013-2.1-.013-3.154s.016-2.1-.009-3.155c-.009-.4.125-.514.515-.51q2.864.023,5.73,0c.382,0,.458.139.457.485C1664.854-1902.548,1664.858-1900.444,1664.863-1898.342Z" transform="translate(-281.653 -415.557)"/></g></svg>