<svg xmlns="http://www.w3.org/2000/svg" width="51.556" height="47.927" viewBox="0 0 51.556 47.927"><defs><style>.a{fill:none;}.b,.c{stroke:none;}.c{fill:#1b3d6c;}</style></defs><g class="a" transform="matrix(0.809, 0.588, -0.588, 0.809, 16.111, 0)"><path class="b" d="M42.467,7.618C41.291,7.013,35.1,5.05,33.446,5.759c-3.166,1.35.625,11.333-11.827,8.366C8.668,10.036,13.562,2.274,13.562,2.274S6.185-1.146,2.8.4.437,5.016.033,8.47,2.713,21.141,19.252,26.121s21.3-6.075,21.3-6.075S46.361,9.623,42.467,7.618Z"/><path class="c" d="M 5.012596130371094 4 C 4.65850830078125 4 4.485248565673828 4.03959846496582 4.44287109375 4.050952911376953 C 4.374626159667969 4.083171844482422 4.325881958007813 4.110330581665039 4.292900085449219 4.130474090576172 C 4.187511444091797 4.499889373779297 4.170333862304688 5.463909149169922 4.158687591552734 6.117410659790039 C 4.143775939941406 6.953948974609375 4.126884460449219 7.902120590209961 4.006275177001953 8.933919906616211 C 3.942745208740234 9.477390289306641 4.240077972412109 11.60553932189941 6.366954803466797 14.16810989379883 C 8.333526611328125 16.53752899169922 12.3653450012207 19.8701286315918 20.40498542785645 22.29090881347656 C 22.87139701843262 23.03355979919434 25.16522598266602 23.41012001037598 27.22277641296387 23.41012001037598 C 30.28888702392578 23.41012001037598 32.83464813232422 22.58465003967285 34.78933715820313 20.95664024353027 C 36.15101623535156 19.82253646850586 36.78647613525391 18.64570426940918 36.89215469360352 18.43804931640625 L 36.931396484375 18.33359909057617 L 37.06166839599609 18.09970092773438 C 37.07013702392578 18.08449935913086 37.92998504638672 16.52569007873535 38.69526672363281 14.61760997772217 C 39.47072219848633 12.68418502807617 39.7151985168457 11.49728584289551 39.78536605834961 10.84938049316406 C 38.703125 10.47703552246094 37.01155090332031 9.992752075195313 35.71540069580078 9.753696441650391 C 35.70545196533203 9.796186447143555 35.69573211669922 9.837821960449219 35.68631744384766 9.878139495849609 C 35.07177734375 12.51009941101074 33.63263702392578 18.67367935180664 25.65817642211914 18.67367935180664 C 24.17204666137695 18.67367935180664 22.54769706726074 18.45877838134766 20.69229698181152 18.01668930053711 L 20.55219650268555 17.98331069946289 L 20.41485595703125 17.93993949890137 C 14.46526527404785 16.06106948852539 10.71663665771484 13.11044883728027 9.273097991943359 9.170019149780273 C 8.681999206542969 7.556510925292969 8.575138092041016 6.031133651733398 8.699619293212891 4.708147048950195 C 7.398975372314453 4.308389663696289 6.035758972167969 4 5.012596130371094 4 M 5.012596130371094 -3.814697265625e-06 C 8.657146453857422 -3.814697265625e-06 13.56215667724609 2.274148941040039 13.56215667724609 2.274148941040039 C 13.56215667724609 2.274148941040039 8.668037414550781 10.03560066223145 21.61941528320313 14.12561988830566 C 23.21697616577148 14.50626850128174 24.54635620117188 14.67368221282959 25.65818023681641 14.67368221282959 C 33.21244430541992 14.67368221282959 30.6864128112793 6.936374664306641 33.44617462158203 5.759199142456055 C 33.69358444213867 5.653221130371094 34.04231262207031 5.606971740722656 34.46065521240234 5.606979370117188 C 36.83991622924805 5.607028961181641 41.46731567382813 7.103359222412109 42.46742630004883 7.618228912353516 C 46.3613166809082 9.622879028320313 40.55623626708984 20.04597854614258 40.55623626708984 20.04597854614258 C 40.55623626708984 20.04597854614258 37.38338851928711 27.41011810302734 27.22278022766113 27.41011810302734 C 24.93506622314453 27.41011810302734 22.29120063781738 27.03625869750977 19.25170707702637 26.12104988098145 C 2.712657928466797 21.14104080200195 -0.3703422546386719 11.92276954650879 0.0333251953125 8.469499588012695 C 0.4369850158691406 5.016239166259766 -0.5797042846679688 1.951339721679688 2.802505493164063 0.4025001525878906 C 3.426967620849609 0.1165351867675781 4.187328338623047 -3.814697265625e-06 5.012596130371094 -3.814697265625e-06 Z"/></g></svg>