<svg xmlns="http://www.w3.org/2000/svg" width="1301" height="478" viewBox="0 0 1301 478"><defs><style>.a,.b{fill:none;}.b{stroke:#1b3d6c;stroke-width:5px;}.c{fill:#1c3e6d;font-size:30px;font-family:Montserrat-SemiBold, Montserrat;font-weight:600;}.d,.g{fill:#1b3d6c;}.e{fill:#fff;font-size:100px;font-family:Montserrat-ExtraBold, Montserrat;font-weight:800;}.f,.g{stroke:none;}</style></defs><g class="a" transform="translate(1080)"><path class="f" d="M94,0A94,94,0,1,1,0,94,94,94,0,0,1,94,0Z"/><path class="g" d="M 94 10 C 47.68223571777344 10 10 47.68223571777344 10 94 C 10 140.3177642822266 47.68223571777344 178 94 178 C 140.3177642822266 178 178 140.3177642822266 178 94 C 178 47.68223571777344 140.3177642822266 10 94 10 M 94 0 C 145.9147644042969 0 188 42.08523559570313 188 94 C 188 145.9147644042969 145.9147644042969 188 94 188 C 42.08523559570313 188 0 145.9147644042969 0 94 C 0 42.08523559570313 42.08523559570313 0 94 0 Z"/></g><g class="a" transform="translate(723)"><path class="f" d="M94,0c22.635,0,49.056,5.566,69.723,31.006C184.6,56.939,188,94,188,94s-21.209,10.652-43.29,37.387C128.917,150.508,115.908,188,94,188A94,94,0,0,1,94,0Z"/><path class="g" d="M 94 10 C 47.68223571777344 10 10 47.68223571777344 10 94 C 10 140.3177642822266 47.68223571777344 178 94 178 C 103.5719299316406 178 113.4260330200195 161.6878662109375 122.1201324462891 147.2959594726563 C 126.8325653076172 139.4952087402344 131.7054748535156 131.4288024902344 136.9998016357422 125.0185317993164 C 153.0353546142578 105.6037216186523 168.7146148681641 94.14498901367188 177.1542358398438 88.77639007568359 C 175.2634887695313 77.83512115478516 169.8220367431641 54.53123474121094 155.9615020751953 37.31166076660156 C 140.8244018554688 18.678466796875 121.1356964111328 10 94 10 M 94 0 C 116.6347351074219 0 143.056396484375 5.56640625 163.7231292724609 31.00633239746094 C 184.5970611572266 56.93879699707031 188 94 188 94 C 188 94 166.7913970947266 104.6519012451172 144.7099609375 131.3867034912109 C 128.9171752929688 150.5082397460938 115.9082336425781 188 94 188 C 42.08523559570313 188 0 145.9147644042969 0 94 C 0 42.08523559570313 42.08523559570313 0 94 0 Z"/></g><g class="a" transform="translate(366)"><path class="f" d="M94,0c22.635,0,21.908,188,0,188A94,94,0,0,1,94,0Z"/><path class="g" d="M 91.46144104003906 10.03781127929688 C 46.31179046630859 11.38294982910156 10 48.53033447265625 10 94 C 10 139.4187774658203 46.23442840576172 176.5340118408203 91.31376647949219 177.9576416015625 C 103.7431564331055 157.6565856933594 103.8730850219727 29.72962951660156 91.46144104003906 10.03781127929688 M 94 0 C 116.6347274780273 0 115.9082336425781 188 94 188 C 42.08522796630859 188 0 145.9147644042969 0 94 C 0 42.08523559570313 42.08522796630859 0 94 0 Z"/></g><g class="a" transform="translate(9)"><path class="f" d="M94,188A94,94,0,0,1,0,94C0,42.085,115.908,188,94,188Z"/><path class="g" d="M 83.79823303222656 177.3838958740234 C 71.80471038818359 154.3162536621094 27.19071388244629 100.7545776367188 10.00316047668457 93.61249542236328 C 10.0010986328125 93.73692321777344 10.0000057220459 93.86608123779297 10.0000057220459 94.00000762939453 C 10.0000057220459 136.8659820556641 42.27274322509766 172.3352966308594 83.79823303222656 177.3838958740234 M 94.00000762939453 188 C 42.08522796630859 188 5.710177902074065e-06 145.9147491455078 5.710177902074065e-06 94.00000762939453 C 5.710177902074065e-06 86.16082763671875 2.64517068862915 82.83125305175781 7.057307243347168 82.83125305175781 C 31.86442947387695 82.83125305175781 112.6000671386719 188 94.00000762939453 188 Z"/></g><line class="b" x2="1070" transform="translate(103.5 93.5)"/><text class="c" transform="translate(0 238)"><tspan x="13.64" y="29">Conceptual </tspan><tspan x="5.915" y="66">Design With </tspan><tspan x="10.445" y="103">FEED/BEDP</tspan></text><text class="c" transform="translate(336 238)"><tspan x="19.04" y="29">Detail Design </tspan><tspan x="28.025" y="66">Engineering </tspan><tspan x="33.875" y="103">With 2D/3D </tspan><tspan x="22.265" y="140">CAD Support </tspan><tspan x="5.345" y="177">using Analytics </tspan><tspan x="93.725" y="214">tool</tspan></text><text class="c" transform="translate(702 238)"><tspan x="32.805" y="29">Support to </tspan><tspan x="8.955" y="66">Procurement, </tspan><tspan x="24.12" y="103">Fabrication, </tspan><tspan x="33.63" y="140">Inspection </tspan><tspan x="22.755" y="177">And Testing</tspan></text><text class="c" transform="translate(1046 238)"><tspan x="10.47" y="29">Final Handover </tspan><tspan x="64.32" y="66">to client</tspan></text><circle class="d" cx="79.5" cy="79.5" r="79.5" transform="translate(23 14)"/><circle class="d" cx="79.5" cy="79.5" r="79.5" transform="translate(380 14)"/><circle class="d" cx="79.5" cy="79.5" r="79.5" transform="translate(737 14)"/><circle class="d" cx="79.5" cy="79.5" r="79.5" transform="translate(1094 14)"/><text class="e" transform="translate(103 130)"><tspan x="-20.25" y="0">1</tspan></text><text class="e" transform="translate(460 130)"><tspan x="-29.95" y="0">2</tspan></text><text class="e" transform="translate(817 130)"><tspan x="-30.15" y="0">3</tspan></text><text class="e" transform="translate(1174 130)"><tspan x="-35" y="0">4</tspan></text></svg>