<svg xmlns="http://www.w3.org/2000/svg" width="231.031" height="230.657" viewBox="0 0 231.031 230.657"><defs><style>.a{fill:#111e3d;}.b{fill:#fff;}.c{fill:#fefefe;}.d{fill:#1b3c6d;}.e{fill:#010b2c;}</style></defs><g transform="translate(-1200.291 1393.59)"><path class="a" d="M1343.588-1357.2c-58.6.119-106.329,47.89-106.013,106.112.319,58.774,47.786,106.092,106.22,105.889,58.591-.2,105.934-47.578,105.924-106.005C1449.713-1309.688,1402.02-1357.32,1343.588-1357.2Zm-99.2,75.773c13.142-38.665,39.443-63.238,79.538-71.319,34.391-6.931,64.952,2.446,90.84,26.181a100.054,100.054,0,0,1,28.194,45.307c.633,2.064.623,2.071-1.527,2.071H1246.048C1243.7-1279.187,1243.633-1279.21,1244.385-1281.428Zm198.539,60.394c-12.861,38.227-38.794,62.815-78.229,71.139-37.049,7.822-69.45-2.892-96.13-29.835a98.341,98.341,0,0,1-24.249-41.491c-.6-1.985-.6-1.993,1.461-1.993q48.938,0,97.874,0h97.692C1443.59-1223.214,1443.651-1223.191,1442.924-1221.033Z" transform="translate(-27.842 -27.174)"/><path class="b" d="M1427.6-1307.334a113.812,113.812,0,0,0-41.007-62.149,113.21,113.21,0,0,0-54.367-23.1c-1.932-.281-3.935-.19-5.784-.972q-8.6-.019-17.209-.036c-1.421.833-2.978-.063-4.432.352a113.615,113.615,0,0,0-19.868,3.682c-27.4,7.8-49.242,23.454-65.074,47.059-16.958,25.29-22.762,53.246-17.916,83.266a111.4,111.4,0,0,0,28.579,58.609,113.279,113.279,0,0,0,64.342,35.695,113.038,113.038,0,0,0,60.853-5.171,115.082,115.082,0,0,0,74.474-92.577A112.211,112.211,0,0,0,1427.6-1307.334Zm-2.277,41.78c-.82,4.285-1.375,8.615-2.413,12.867a108.646,108.646,0,0,1-33.36,56c-16.343,14.781-35.477,24.17-57.31,27.07-39.453,5.242-72.818-7.032-99.495-36.621a102.986,102.986,0,0,1-24.814-50.037c-5.9-30.314-.418-58.546,17-84.145,14.2-20.861,33.557-35.11,57.586-42.833a105.28,105.28,0,0,1,47.4-4.178c34.479,4.854,61.012,22.178,79.67,51.448a105.037,105.037,0,0,1,15.455,43.618,126.246,126.246,0,0,1,.395,25.482C1425.563-1266.43,1425.735-1265.967,1425.319-1265.554Z"/><path class="c" d="M1343.588-1357.2c-58.6.119-106.329,47.89-106.013,106.112.319,58.774,47.786,106.092,106.22,105.889,58.591-.2,105.934-47.578,105.924-106.005C1449.713-1309.688,1402.02-1357.32,1343.588-1357.2Zm-99.2,75.773c13.142-38.665,39.443-63.238,79.538-71.319,34.391-6.931,64.952,2.446,90.84,26.181a100.054,100.054,0,0,1,28.194,45.307c.633,2.064.623,2.071-1.527,2.071H1246.048C1243.7-1279.187,1243.633-1279.21,1244.385-1281.428Zm198.539,60.394c-12.861,38.227-38.794,62.815-78.229,71.139-37.049,7.822-69.45-2.892-96.13-29.835a98.341,98.341,0,0,1-24.249-41.491c-.6-1.985-.6-1.993,1.461-1.993q48.938,0,97.874,0h97.692C1443.59-1223.214,1443.651-1223.191,1442.924-1221.033Z" transform="translate(-27.842 -27.174)"/><path class="b" d="M1343.588-1357.2c-58.6.119-106.329,47.89-106.013,106.112.319,58.774,47.786,106.092,106.22,105.889,58.591-.2,105.934-47.578,105.924-106.005C1449.713-1309.688,1402.02-1357.32,1343.588-1357.2Zm-99.2,75.773c13.142-38.665,39.443-63.238,79.538-71.319,34.391-6.931,64.952,2.446,90.84,26.181a100.054,100.054,0,0,1,28.194,45.307c.633,2.064.623,2.071-1.527,2.071H1246.048C1243.7-1279.187,1243.633-1279.21,1244.385-1281.428Zm198.539,60.394c-12.861,38.227-38.794,62.815-78.229,71.139-37.049,7.822-69.45-2.892-96.13-29.835a98.341,98.341,0,0,1-24.249-41.491c-.6-1.985-.6-1.993,1.461-1.993q48.938,0,97.874,0h97.692C1443.59-1223.214,1443.651-1223.191,1442.924-1221.033Z" transform="translate(-27.842 -27.174)"/><path class="b" d="M1464.659-820.19c-12.645,36.339-38.141,59.714-76.912,67.626-36.426,7.436-68.28-2.749-94.511-28.362a92.847,92.847,0,0,1-23.841-39.442c-.588-1.887-.585-1.895,1.437-1.895q48.115,0,96.226,0h96.047C1465.313-822.263,1465.373-822.241,1464.659-820.19Z" transform="translate(-51.352 -426.652)"/><path class="b" d="M1463.206-1268.947H1271.111c-2.31,0-2.375-.022-1.636-2.133,12.921-36.794,38.779-60.177,78.2-67.867,33.812-6.6,63.86,2.328,89.312,24.914a94.82,94.82,0,0,1,27.72,43.114C1465.33-1268.954,1465.32-1268.947,1463.206-1268.947Z" transform="translate(-51.352 -39.223)"/><path class="d" d="M1345.3-1001.713c1.134-2.925,2.068-3.546,5.314-3.579,2.957-.03,5.914-.079,8.87-.12q.134-.375.37-.054c.777-1.969.234-4.009.294-6.015.018-.59-.589-.489-1-.49-5.416,0-10.832.021-16.248-.018-1.349-.01-1.036.9-1.038,1.62-.014,6.812-.075,13.625.038,20.434.029,1.737-.512,2.1-2.122,2.048-3.586-.115-3.588-.034-3.588-3.629v-3.3a10.979,10.979,0,0,1-7.673,1.015,8.715,8.715,0,0,1-6.949-7.9c-.044-1,.1-1.6,1.247-2.007a4.324,4.324,0,0,0,2.86-5.677c-.6-1.664-1.568-2.7-3.618-2.63-4.159.136-4.162.038-4.162,4.174,0,3.169,0,3.168-3.092,3.169-2.008,0-4.017-.024-6.024.011-1.165.02-2.327.338-2.42,1.7s1.122,1.589,2.153,1.729c1.505.2,3.024.31,4.538.449a16.306,16.306,0,0,1,3.56.743c2.045.665,3.949,1.547,4.223,3.983a6.359,6.359,0,0,1-2.808,6.327c-3.808,2.627-12.037,2.259-15.607-.681-.224-.184-.659-.4-.477-.652.489-.69,1.173-1.244,1.648-1.942.677-.994,1.371-.585,2.182-.25a11.659,11.659,0,0,0,5.519.93,5.647,5.647,0,0,0,3.337-1.3,1.832,1.832,0,0,0,.712-1.942,1.628,1.628,0,0,0-1.5-1.139c-2.157-.356-4.308-.75-6.471-1.068-2.971-.437-5.09-1.857-5.893-4.885a.824.824,0,0,1,0-1.231c1.384-4.1,2.944-5.214,7.283-5.225.962,0,1.923-.039,2.884-.06.682-.752.226-1.672.371-2.5-.674-.6-1.486-.267-2.224-.277-3.283-.043-6.57.042-9.851-.049-1.309-.036-1.622.406-1.613,1.651.054,6.867,0,13.736.053,20.6.011,1.325-.176,1.912-1.737,1.87-3.942-.108-3.945-.019-3.945-3.995,0-6.2-.031-12.4.027-18.6.012-1.189-.3-1.54-1.512-1.533-3.923.023-3.924-.03-3.924,3.865,0,3.468,0,3.468-3.508,3.468-2.25,0-4.5-.018-6.75.009-1,.012-2.117.12-2.214,1.379-.1,1.363,1.057,1.683,2.1,1.776,2.239.2,4.494.229,6.734.424,2.4.209,4.624.843,5.4,3.515.825,2.839.727,5.551-1.611,7.747a10.084,10.084,0,0,1-5.526,2.58c-1.16.175-1.185.567-.57,1.361a8.937,8.937,0,0,1,.645.882c.422.712,1.782,1.218,1.425,1.885a12.787,12.787,0,0,1-2.719,2.9c-.49.462-.737-.181-1.006-.408a15.467,15.467,0,0,1-3.711-4.684c-.286-.543-.514-1.069-1.283-1.1-2.77-.1-4.449-1.655-5.407-4.137a1.633,1.633,0,0,1,.025-1.71,4.681,4.681,0,0,1,8.043-.832,2.8,2.8,0,0,0,3.208,1.005,3.991,3.991,0,0,0,3-2.673c.356-1.14-.281-1.733-1.334-1.92-2.21-.391-4.423-.774-6.643-1.1-2.961-.44-5.094-1.839-5.9-4.869a.905.905,0,0,1,0-1.268c1.4-4.132,2.921-5.2,7.4-5.2.913,0,1.825-.011,2.738,0,1.029.017,1.951.233,1.928-1.468-.024-1.769-1.065-1.391-2.034-1.394-2.738-.011-5.476-.05-8.212.019-1.126.029-1.754-.2-1.544-1.471a3.566,3.566,0,0,0,0-1.092c-.21-1.4.283-1.858,1.767-1.839,6.569.086,13.14.016,19.709.06a2.1,2.1,0,0,0,2.123-1.227c2.574-4.423,6.422-6.933,11.61-6.927s9.043,2.525,11.562,6.982a2.2,2.2,0,0,0,2.35,1.161q23.634-.025,47.268.011c.642,0,1.689-.49,1.88.494a6.242,6.242,0,0,1-.094,3.581c-.31.727-1.506-.2-2.079.544h0a3.388,3.388,0,0,0-.186,1.954c-.018,6.748-.049,13.5.021,20.245.013,1.31-.381,1.594-1.624,1.582-4.059-.042-4.06.009-4.06-4.061,0-2.553.021-5.107-.02-7.66-.008-.479.345-1.106-.343-1.447q-.216.242-.365-.046c-.962-.033-1.923-.085-2.885-.094-1.612-.016-3.261-.43-3.8,2.019-.307,1.4-1.9,1.991-3.365,1.988a3.842,3.842,0,0,1-3.542-2.121,14.1,14.1,0,0,1-.6-1.5A.533.533,0,0,1,1345.3-1001.713Z" transform="translate(-51.352 -275.666)"/><path class="d" d="M1779.229-987.914a3.43,3.43,0,0,0-.184,1.953c-.017,6.741-.046,13.483.021,20.224.013,1.285-.345,1.613-1.609,1.6-4.105-.036-4.1.017-4.11-4.174,0-.846-.053-1.691-.087-2.536,0-.021-.074-.062-.1-.053a.671.671,0,0,0-.155.093q-.109.284-.348.1a10.362,10.362,0,0,1-10.345-.86,7.817,7.817,0,0,1-3.451-5.328c-.272-1.507-.363-2.769,1.626-3.32a3.288,3.288,0,0,0,2.381-2.922,10.969,10.969,0,0,1-.038-2.239c-.73-2.314-1.411-2.892-3.687-2.818-1.348.043-2.734-.353-4.047.255l0-.008c-.47.526-.23,1.163-.231,1.742-.02,6.812-.044,13.624.016,20.435.011,1.239-.264,1.652-1.58,1.64-4.1-.04-4.1.02-4.1-4,0-6.082-.056-12.165.039-18.245.024-1.555-.452-1.984-1.932-1.873-1.238.093-2.243-.174-2.2,1.792.145,6.869.015,13.744.09,20.616.015,1.368-.327,1.737-1.706,1.711-4-.076-4-.009-4-3.957,0-2.615-.057-5.232.026-7.845.036-1.141-.319-1.55-1.438-1.4-.538.072-1.1-.029-1.641.022-.829.078-1.277-.162-1.155-1.086a8.315,8.315,0,0,0,.007-1.094c0-3.029,0-3.067,2.947-3.144.917-.024,1.378-.24,1.261-1.227a11.007,11.007,0,0,1-.008-1.276c0-2.872,0-2.9-2.853-3.06-.764-.042-1.026-.232-1.085-1.031-.245-3.334-.276-3.332,2.973-3.332q36.878,0,73.755,0c.728,0,1.456-.047,2.184-.073a6.767,6.767,0,0,1,.147,4.339c-1.535.317-3.149-.306-4.652.389.295,3.139.087,6.285.118,9.427.041,4.177.021,8.356,0,12.533,0,.577.24,1.216-.247,1.733-1.819-.016-4.178.653-5.31-.237-1.191-.937-.331-3.406-.38-5.2-.068-2.531-.017-5.066-.017-7.954-2.859,1.683-5.5,3.123-8.017,4.766-1.307.855-2.092.911-2.669-.658a4,4,0,0,0-.635-1.1c-.835-1.038-.708-1.751.567-2.31.481-.211,1.343-.331,1.191-1.106-.116-.587-.736-.923-1.31-1.178a3.369,3.369,0,0,0-3.75.514,4.824,4.824,0,0,0-1.344,4.993,7.989,7.989,0,0,0,2.618,3.666c1.419,1.163,1.59,2.2.694,3.818-1.278,2.313-1.178,2.418-3.161.724-3.8-3.248-6.2-7.2-5.582-12.4.67-5.645,5.68-8.816,11.171-7.237a19.383,19.383,0,0,1,5.939,3.1c1.206.868,4.118-.485,4.288-1.972.484-4.231.484-4.231-3.7-4.231-6.507,0-13.014-.01-19.521.018-.549,0-1.2-.337-1.665.284Z" transform="translate(-399.503 -299.424)"/><path class="d" d="M1674-986.325c-1.4-2.127-3.254-2.25-5.712-.467-.57.414-.987,1.458-1.694,1.177a8.434,8.434,0,0,1-2.648-1.887c-.6-.591.053-1.257.359-1.8a8.688,8.688,0,0,1,11.767-2.931,8.508,8.508,0,0,1,2.291,12.147c-.762.982-.917,1.364.119,2.332,2.867,2.68,2.592,7.556-.375,10.268-4.471,4.087-12.43,2.685-15.243-2.644-.772-1.463-.87-2.566.9-3.311a16.547,16.547,0,0,0,2.1-1.277c1,2.168,1.6,4.807,4.592,4.761a4.032,4.032,0,0,0,3.912-3.227c-.027-.973-.011-1.947-.008-2.92-.551-2.226-2.289-2.261-4.032-2.068-1.592.176-1.92-.479-1.867-1.94.037-1.029.533-1.173,1.284-1.356,1.937-.472,3.722-1.172,4.334-3.364A8.425,8.425,0,0,1,1674-986.325Z" transform="translate(-345.043 -298.826)"/><path class="d" d="M1763.4-1014.658a8.513,8.513,0,0,1-7.1-3.479c-.609-.83-.639-1.358.374-2,1.27-.8,2.094-1.174,3.452.133a4.972,4.972,0,0,0,7.06-.508c1.521-1.633,2.168.28,3.114.672,1.287.533.258,1.333-.13,1.863A8.286,8.286,0,0,1,1763.4-1014.658Z" transform="translate(-414.896 -278.122)"/><path class="d" d="M1319.89-1023.328c.156-.322.287-.659.473-.963a3.12,3.12,0,0,1,3.694-1.6,3.021,3.021,0,0,1,2.384,3.225,3.017,3.017,0,0,1-2.581,3.064,3.119,3.119,0,0,1-3.581-1.82,9.724,9.724,0,0,1-.414-1A.54.54,0,0,1,1319.89-1023.328Z" transform="translate(-89.123 -274.485)"/><path class="d" d="M2029.719-950.266q.01-10.852.025-21.7c0-.664.069-1.327.106-1.991.463.442.31,1.016.311,1.544q.013,10.255,0,20.51C2030.155-951.34,2030.4-950.669,2029.719-950.266Z" transform="translate(-619.396 -313.369)"/><path class="d" d="M1652.131-974.006c.46.357.362.869.362,1.345q.005,10.676,0,21.352a.7.7,0,0,1-.36.627v-23.324Z" transform="translate(-337.423 -313.335)"/><path class="d" d="M1437.5-974.023c.124.871.7,1.809-.37,2.5C1437.265-972.352,1436.787-973.276,1437.5-974.023Z" transform="translate(-176.841 -313.322)"/><path class="d" d="M2048.177-988.294a25.342,25.342,0,0,0-.147-4.339A4.294,4.294,0,0,1,2048.177-988.294Z" transform="translate(-633.07 -299.424)"/><path class="e" d="M1568.513-935.951l0,.894-.117.328c-.674-.378-.394-1.114-.236-1.451C1568.415-936.73,1568.358-936.008,1568.513-935.951Z" transform="translate(-274.568 -341.428)"/><path class="d" d="M1319.3-1015.772l-.027.9-.252.44a1.736,1.736,0,0,1-.026-1.472c.005-.015.117-.009.168.013A.594.594,0,0,1,1319.3-1015.772Z" transform="translate(-88.533 -282.04)"/><path class="b" d="M1502.229-975.234c1.816,0,3.392.031,4.965-.013.776-.022,1.079.239,1.072,1.034-.028,3.153.04,6.308-.034,9.46-.036,1.529-1.932,3.064-3.84,3.319-2.032.272-4.313-.764-4.843-2.158-.187-.493-.037-.736.349-1.056,3.207-2.664,4.035-5.594,2.726-9.486C1502.531-974.412,1502.426-974.687,1502.229-975.234Z" transform="translate(-223.419 -312.407)"/><path class="b" d="M1398.71-1005.315h-13.256a6.828,6.828,0,0,1,6.371-4.267A6.985,6.985,0,0,1,1398.71-1005.315Z" transform="translate(-138.275 -286.764)"/><path class="b" d="M1854.568-973.171a10.971,10.971,0,0,0-.47-1.171c-.477-.894-.178-1.085.762-1.124,4.86-.2,4.916-.226,4.833,4.7-.037,2.2.424,4.436-.284,6.61-.469-3.352-.056-6.721-.139-8.461.149,1.736-.4,5.1.146,8.452-1.724,2.8-5.536,3.467-7.678,1.314-.761-.765-1.444-1.589.142-2.306.9-.408,1.335-1.352,1.974-2.06,1.616-1.868,1.078-4.085.984-6.224C1854.838-973.457,1854.752-973.167,1854.568-973.171Z" transform="translate(-485.872 -312.197)"/></g></svg>