<svg xmlns="http://www.w3.org/2000/svg" width="55.5" height="55.5" viewBox="0 0 55.5 55.5"><defs><style>.a{fill:#1b3d6c;}</style></defs><circle class="a" cx="5.751" cy="5.751" r="5.751" transform="translate(21.999 21.999)"/><path class="a" d="M4734.485,2136.838h-15.936a5.757,5.757,0,0,0-5.75,5.751v15.936a5.757,5.757,0,0,0,5.75,5.751h15.936a5.757,5.757,0,0,0,5.751-5.751v-15.936A5.757,5.757,0,0,0,4734.485,2136.838Zm-7.968,22.553a8.834,8.834,0,1,1,8.834-8.834A8.845,8.845,0,0,1,4726.518,2159.391Zm8.972-15.791a2.025,2.025,0,1,1,2.025-2.025A2.025,2.025,0,0,1,4735.489,2143.6Z" transform="translate(-4698.768 -2122.807)"/><path class="a" d="M4467.508,1863.8a27.75,27.75,0,1,0,27.75,27.75A27.75,27.75,0,0,0,4467.508,1863.8Zm16.8,35.718a8.844,8.844,0,0,1-8.834,8.834h-15.936a8.844,8.844,0,0,1-8.834-8.834V1883.58a8.844,8.844,0,0,1,8.834-8.834h15.936a8.844,8.844,0,0,1,8.834,8.834Z" transform="translate(-4439.759 -1863.798)"/></svg>