<svg xmlns="http://www.w3.org/2000/svg" width="55.5" height="55.5" viewBox="0 0 55.5 55.5"><defs><style>.a{fill:#1b3d6c;fill-rule:evenodd;}</style></defs><path class="a" d="M5873.536,1904.625v-10.834c0-5.8-3.1-8.505-7.23-8.505a6.231,6.231,0,0,0-5.66,3.121v-2.677h-6.281c.083,1.773,0,18.9,0,18.9h6.281v-10.552a4.285,4.285,0,0,1,.207-1.531,3.435,3.435,0,0,1,3.221-2.3c2.273,0,3.182,1.732,3.182,4.272v10.109h6.28Zm-25.787-21.474a3.5,3.5,0,1,0-.04,0Zm10.213,36.147a27.75,27.75,0,1,1,27.75-27.75A27.751,27.751,0,0,1,5857.962,1919.3Zm-7.073-14.673v-18.9h-6.28v18.9Z" transform="translate(-5830.212 -1863.798)"/></svg>