<svg xmlns="http://www.w3.org/2000/svg" width="58.828" height="55.599" viewBox="0 0 58.828 55.599"><defs><style>.a,.c,.f{fill:none;}.b,.e{fill:#1b3d6c;}.b,.c{stroke:#1b3d6c;}.c{stroke-linecap:round;stroke-width:2px;}.d,.e{stroke:none;}</style></defs><g transform="translate(-155.086 -4779.315)"><g class="a" transform="translate(180 4804)"><path class="d" d="M0-11.091C0-19.7,6.364-24.685,13.111-24.685S26.984-19.7,26.984-11.091,13.111,13.14,13.111,13.14,0-2.484,0-11.091Z"/><path class="e" d="M 13.11050891876221 -19.68505477905273 C 9.204248428344727 -19.68505477905273 4.999998092651367 -16.99568557739258 4.999998092651367 -11.09095478057861 C 4.999998092651367 -10.39884471893311 5.2044677734375 -8.791224479675293 6.573898315429688 -5.800594329833984 C 7.547409057617188 -3.674574375152588 8.928937911987305 -1.243694305419922 10.68010902404785 1.424505233764648 C 11.54623603820801 2.744193077087402 12.41781425476074 3.990984916687012 13.22382259368896 5.10212230682373 C 14.09986877441406 3.963921546936035 15.05200099945068 2.679567337036133 15.99835872650146 1.317025184631348 C 21.55270767211914 -6.679994583129883 21.98437881469727 -10.20199394226074 21.98437881469727 -11.09095478057861 C 21.98437881469727 -12.42725467681885 21.72876739501953 -13.65918445587158 21.22465896606445 -14.75252437591553 C 20.76799774169922 -15.74294471740723 20.10835838317871 -16.6238842010498 19.26406860351563 -17.37087440490723 C 17.60180854797363 -18.8415641784668 15.35891819000244 -19.68505477905273 13.11050891876221 -19.68505477905273 M 13.11050891876221 -24.68505477905273 C 19.85659790039063 -24.68505477905273 26.98437881469727 -19.69788360595703 26.98437881469727 -11.09095478057861 C 26.98437881469727 -2.484024047851563 13.11050891876221 13.13990497589111 13.11050891876221 13.13990497589111 C 13.11050891876221 13.13990497589111 -1.9073486328125e-06 -2.484024047851563 -1.9073486328125e-06 -11.09095478057861 C -1.9073486328125e-06 -19.69788360595703 6.364408493041992 -24.68505477905273 13.11050891876221 -24.68505477905273 Z"/></g><g class="b" transform="translate(189 4787)"><circle class="d" cx="4.5" cy="4.5" r="4.5"/><circle class="f" cx="4.5" cy="4.5" r="4"/></g><line class="c" x1="19" y2="19" transform="translate(156.5 4807.5)"/><line class="c" x1="37" y1="7" transform="translate(156.5 4826.5)"/><line class="c" x1="19" y2="19" transform="translate(193.5 4814.5)"/></g></svg>