<svg xmlns="http://www.w3.org/2000/svg" width="156.031" height="230.657" viewBox="0 0 156.031 230.657"><defs><style>.a{fill:#fff;}</style></defs><g transform="translate(-4352.87 1114.031)"><path class="a" d="M4508.3-593.919a10.914,10.914,0,0,0-.964-4.916c-16.723-9.039-33.46-18.047-50.142-27.158-1.781-.974-2.936-.1-4.254.6-6.484,3.42-12.988,6.8-19.4,10.353a4.556,4.556,0,0,1-5.042-.027c-5.9-3.3-11.989-6.281-17.843-9.66-2.836-1.64-5.19-1.865-8.085-.126-4.587,2.754-9.368,5.192-14.132,7.635-11.892,6.1-23.409,12.925-35.572,18.5v65.275a6.629,6.629,0,0,0,3.111,2.727c12.042,5.766,23.557,12.542,35.458,18.576,4.6,2.333,8.783,5.568,13.978,6.673h2.542c6.521-2.315,12.27-6.164,18.333-9.372a9.015,9.015,0,0,1,9.078-.067c6.421,3.107,12.189,7.555,19.2,9.44h2.542c1.82-1.1,3.921-1.514,5.8-2.526,14.031-7.573,27.961-15.334,42.051-22.8,1.69-.9,3.087-2.007,3.26-4.09C4508.431-554.556,4508.266-574.239,4508.3-593.919ZM4407.794-515.5c-2.276,1.255-3.744-.612-5.332-1.438-13.708-7.132-27.345-14.394-41.006-21.615-.688-.686-.515-1.568-.517-2.394q-.01-25.14,0-50.281c0-.819-.2-1.714.572-2.358,13.844-7.278,27.736-14.466,41.489-21.912,2.722-1.471,4.731-1.483,7.289.117,3.539,2.216,7.319,4.045,11.442,6.283-6.536,4.421-13.768,6.614-19.534,11.278.542,14.54.164,29.084.2,43.626.018,6.623.418,13.26-.266,19.876,3.2,3.228,7.62,4.407,11.375,6.711,2.486,1.525,5.151,2.758,8.4,4.468C4416.771-520.367,4412.265-517.969,4407.794-515.5Zm25.507-13.8c-1.588.9-2.942,1.217-4.7.229q-7.778-4.36-15.75-8.376a3.75,3.75,0,0,1-2.441-3.865q.115-24.746.018-49.489c0-1.721.4-2.853,2.07-3.692,5.406-2.722,10.776-5.525,16.056-8.481a4.582,4.582,0,0,1,5.071.115c4.906,2.763,9.846,5.483,14.9,7.959a4.263,4.263,0,0,1,2.74,4.556c-.14,8.034-.054,16.072-.054,24.11s-.085,16.074.054,24.108a4.305,4.305,0,0,1-2.756,4.544C4443.358-535,4438.334-532.138,4433.3-529.308Zm64.357-8.31c-13.885,7.5-27.683,15.163-41.509,22.774-.481.52-.941.607-1.353-.076l-14.76-8.281,18.85-10.783c.819-1.712-.085-3.636.657-5.357,0-.587,0-1.177,0-1.766-.679-7.062-.115-14.142-.3-21.213.16-11.833-.326-23.672.248-35.5-4.259-3.755-9.712-5.46-14.443-8.409-1.312-.817-2.716-1.487-4.974-2.709,5.413-2.889,10.241-5.548,15.161-8.027,1.06-.533,2.1.569,3.075,1.089,13.186,7.044,26.336,14.155,39.566,21.114a4.114,4.114,0,0,1,2.5,4.281q-.112,24.148.011,48.3A4.431,4.431,0,0,1,4497.659-537.618Z" transform="translate(0 -377.907)"/><path class="a" d="M4743.548-975.972q-14.016,8.1-28.039,16.2c-.682.393-1.546,1.225-2.205.432a3.167,3.167,0,0,1-.3-2.4,9.921,9.921,0,0,1,4.331-6.018c3.941-2.689,7.944-5.289,11.978-7.838a17.731,17.731,0,0,0,5.717-5.485,37.779,37.779,0,0,0-.006-12.714c-5.579,3.182-11.2,6.292-16.721,9.574-3.427,2.037-5.794,4.821-5.336,9.229.081.775.594,2.143-1.117,2.121-.089,0-.2-.135-.258-.233a1.837,1.837,0,0,1-.116-.4,38.841,38.841,0,0,0-.018-10.073c.219-2.684,2.486-3.633,4.312-4.785,4.28-2.7,8.7-5.18,13.041-7.787a22.881,22.881,0,0,0,5.911-5.325c1.248-.582.721-1.719.723-2.606q.048-25.608.024-51.215a3.866,3.866,0,0,0-.363-2.051c4.086-.7,9.972,3.18,9.975,6.668q.033,35.689,0,71.379c0,.957.235,1.994-.608,2.779-.8-.821-.518-1.859-.519-2.813q-.023-34.461.013-68.921c0-.811-.49-1.769-.061-2.073-.062.522.016,1.53.015,2.514q-.01,33.615,0,67.23A16.964,16.964,0,0,1,4743.548-975.972Z" transform="translate(-277.913 -43.865)"/><path class="a" d="M4548.228-1055.3c2.479-2.317,5.63-3.442,8.62-4.855.893,7.82.143,15.667.387,23.5,0,9.377-.015,18.755.017,28.133,0,1.375-.336,2.8.374,4.122,2.719,4.666,7.4,6.938,11.7,9.708,3.841,2.474,8.556,3.794,11.021,8.137-.8,1.673.76,4.05-1.577,5.261-2.279-3.705-5.81-5.934-9.467-8-3.894-2.2-7.8-4.385-11.7-6.576-.821,2.716-.163,5.5-.372,8.241.245,1.75-.551,3.61.558,5.269,3.137,3.755,7.376,6.018,11.466,8.484,3.472,2.094,6.776,4.411,9.181,7.744a6.191,6.191,0,0,1,.946,5.649l-30.217-17.6c-1.048-1.969-.805-4.11-.813-6.212C4548.267-1007.971,4548.516-1031.638,4548.228-1055.3Z" transform="translate(-151.408 -41.752)"/><path class="a" d="M4674.96-1111.552c1.918-1.123,3.739-2.617,6.11-2.468,5.05.318,7.125,2.684,7.125,7.91,0,10.265-.108,20.532.068,30.794.051,2.972-.71,5.14-3.428,6.311-1.971.85-2.6,2.869-4.208,4.367-.664-3.138-3.353-4.083-5.474-5.622C4674.52-1084.022,4674.895-1097.788,4674.96-1111.552Z" transform="translate(-249.498)"/><path class="a" d="M4719.033-1087.793c3.143-.859,5.039,1.778,7.549,2.693a6.13,6.13,0,0,1,1.707,4.579c-.034,14.769-.006,29.538-.033,44.307a9,9,0,0,1-.83,4.086c-1.83,2-4.436,2.281-6.816,3.017-5.208,1.611-9.26,4.181-9.267,10.411,0,.531-.191,1.106-.942,1.085-2.393-7.456-.952-12.345,5-16.544a15.281,15.281,0,0,0,3.364-3.677c.881-.585.613-1.5.614-2.3q.02-22.8.01-45.6A3.94,3.94,0,0,0,4719.033-1087.793Z" transform="translate(-276.244 -20.204)"/><path class="a" d="M4609.44-1084.62a28.363,28.363,0,0,1,7.532-3.659c.9,1.275.465,2.725.469,4.088.037,13.191.005,26.382.046,39.573,0,1.353-.481,2.813.5,4.063a9,9,0,0,0,5.163,7.125,7.159,7.159,0,0,1,3.913,3.9c-1.078,2.221,1.062,5.228-1.718,7.034-1.916-4.254-5.711-5.828-9.815-7.173-2.779-.911-6.3-1.042-7.09-4.924.318-14.763.037-29.528.15-44.292C4608.608-1080.823,4608.22-1082.848,4609.44-1084.62Z" transform="translate(-198.075 -19.959)"/><path class="a" d="M4546.453-1038.579c1.6,1.319.936,3.142.938,4.742q.067,33.15.029,66.3c0,2.057-.017,4.113-.026,6.17-1.739-.431-1.436-1.854-1.436-3.07q-.015-36.3.019-72.594A5.552,5.552,0,0,1,4546.453-1038.579Z" transform="translate(-149.633 -58.477)"/><path class="a" d="M4607.265-1072.016c-.005,15.094.01,30.189-.046,45.284-.006,1.6.67,3.432-.952,4.746-1.008-2-.451-4.134-.46-6.194q-.092-19.782.011-39.565C4605.826-1069.23,4604.868-1071.256,4607.265-1072.016Z" transform="translate(-195.901 -32.563)"/><path class="a" d="M4854.115-957.984v-76.239h.921v75.687Z" transform="translate(-388.479 -61.854)"/><path class="a" d="M5039.438-502.825q-.114.441-.226.882c-.648,4.326-.258,8.678-.276,13.015-.059,14.744-.032,29.488-.008,44.232,0,1.53-.277,3.09.284,4.59l.154.873-1.728.791q-.125-32.342-.23-64.684c0-.219.3-.438.463-.657Z" transform="translate(-530.536 -472.959)"/><path class="a" d="M4815.243-1057.062c1.132,1,.76,2.345.762,3.567q.031,24.282-.008,48.564c0,1.316.548,2.9-1.136,3.742q.111-23.707.229-47.414C4815.1-1051.424,4815.19-1054.243,4815.243-1057.062Z" transform="translate(-358.055 -44.153)"/><path class="a" d="M4786.96-1022.268c0-15.592-.022-31.184.026-46.776a19.128,19.128,0,0,0-.87-6.2l1.687.888c.726,1.171.4,2.472.4,3.712q.037,21.742.005,43.484a9.25,9.25,0,0,1-.3,3.755A1.159,1.159,0,0,1,4786.96-1022.268Z" transform="translate(-335.778 -30.065)"/><path class="a" d="M4793.718-1020.343q-.053-25.475-.107-50.951c1.319.679.937,1.928.938,2.992q.03,22.189,0,44.378C4794.552-1022.68,4794.757-1021.358,4793.718-1020.343Z" transform="translate(-341.587 -33.123)"/><path class="a" d="M4751.631-1087.208c1.009.864.759,2.047.76,3.144q.016,21.706-.007,43.413c0,1.206.388,2.591-1.021,3.4Q4751.5-1062.23,4751.631-1087.208Z" transform="translate(-308.843 -20.789)"/><path class="a" d="M4647.279-1041.222c-1.578-1.331-.9-3.145-.907-4.743-.079-14.327-.083-28.654-.109-42.981,1.544-.689,1.192.635,1.191,1.254Q4647.4-1064.457,4647.279-1041.222Z" transform="translate(-227.365 -19.292)"/><path class="a" d="M4672.445-1103.013c.746,5.5.2,11.016.26,16.523.1,8.255-.033,16.512-.066,24.768-1.209-.878-1.074-2.205-1.076-3.439q-.029-17.631,0-35.262C4671.564-1101.363,4671.336-1102.429,4672.445-1103.013Z" transform="translate(-246.982 -8.539)"/><path class="a" d="M4587-924.211c-1.269-1.117-.776-2.618-.781-3.96-.031-9.406,0-18.812.005-28.218.23-.4.463-.387.7-.007Z" transform="translate(-180.784 -121.947)"/><path class="a" d="M4587.245-1036.591q-.35,0-.7.007l0-23.575c1.059.079.875.9.871,1.545Q4587.345-1047.6,4587.245-1036.591Z" transform="translate(-181.102 -41.752)"/><path class="a" d="M4683.738-727.754q.79-2.63,1.576-5.261a37.233,37.233,0,0,1-.533,11.642C4683.169-723.415,4683.782-725.621,4683.738-727.754Z" transform="translate(-256.371 -295.298)"/><path class="a" d="M4683.588-820.1c1.784-2.049.212-4.917,1.718-7.034v12.211C4683.2-816.616,4683.761-818.474,4683.588-820.1Z" transform="translate(-256.316 -222.357)"/><path class="a" d="M4816.2-774.555a19.935,19.935,0,0,1,.006,12.714Z" transform="translate(-359.097 -263.104)"/><path class="a" d="M4711.454-729.156a15.886,15.886,0,0,1,.018,10.073Z" transform="translate(-277.913 -298.289)"/><path class="a" d="M4586.168-766c.312-2.806-.831-5.743.759-8.434q-.038,4.22-.075,8.44C4586.621-765.6,4586.393-765.62,4586.168-766Z" transform="translate(-180.728 -263.195)"/><path class="a" d="M4586.254-736.948c.228.007.456.009.684.006l.261,5.07C4585.441-733.3,4586.53-735.249,4586.254-736.948Z" transform="translate(-180.814 -292.25)"/><path class="a" d="M4571.865-435.78l.062-63.5c1.016,1.061.659,2.395.661,3.626q.029,28.14,0,56.28C4572.586-438.149,4572.947-436.808,4571.865-435.78Z" transform="translate(-169.727 -476.447)"/><path class="a" d="M4387.556-480.459q-.029,27.516-.056,55.032c-1.455-1.013-.937-2.548-.938-3.883q-.049-23.654,0-47.307C4386.564-477.943,4386.025-479.494,4387.556-480.459Z" transform="translate(-26.042 -491.037)"/><path class="a" d="M4603.29-476.208v52.844l-.422,0v-53.016Z" transform="translate(-193.755 -494.2)"/><path class="a" d="M4794.162-420.727v-51.15l.423,0v51.321Z" transform="translate(-342.014 -497.686)"/><path class="a" d="M4824.209-499.274l.042,35.557q-.354.568-.71,0c0-10.516-.026-21.032,0-31.548C4823.55-496.614,4823.074-498.092,4824.209-499.274Z" transform="translate(-364.714 -476.454)"/><path class="a" d="M4823.385-341.221q.354,0,.709,0,0,10.579.009,21.157c-1.636-4.887-.354-9.919-.713-14.871C4823.24-337.02,4823.378-339.125,4823.385-341.221Z" transform="translate(-364.557 -598.949)"/><path class="a" d="M4824.314-239.327c-.089,1.8.9,3.735-.657,5.356C4823.81-235.764,4822.937-237.684,4824.314-239.327Z" transform="translate(-364.769 -677.921)"/><path class="a" d="M4805.555-130.784l1.353.078,1,.452c-.285.147-.711.492-.83.407C4806.589-130.2,4805.016-128.858,4805.555-130.784Z" transform="translate(-350.758 -762.045)"/><path class="a" d="M5042.915-433.765c-.937-.908-.7-2.087-.7-3.192q-.014-27.727,0-55.453c0-1.1-.237-2.284.7-3.191Z" transform="translate(-534.24 -479.3)"/><path class="a" d="M4444.229-394.5c-.85.016-1.881.654-2.337-.682a2.042,2.042,0,0,1,.248-2.276c.729-.626,1.669-.937,2.379-1.586,1.165-1.624.815-3.059-.535-4.382-.973-.91-.768-2.037-.606-3.164.093-.28.21-.711.376-.718,7.64-.343,15.315-1.626,22.856.8.717,2.979-1.475,2.5-3.145,2.65-.3.171-.61.336-.92.5a2.741,2.741,0,0,1-1.042,0,2.839,2.839,0,0,1-.858-.587l.027-.013a8.774,8.774,0,0,0-5.933-.02c-.081,5.44-.125,10.88-.295,16.317-.018.555,1.091,2.9-1.369,1.479,1.04-5.231-.054-10.542.279-13.357-.18,2.818.609,8.116-.294,13.35-.932-.132-.958-.81-.921-1.526a76,76,0,0,1-.037-15.647c-2.794-1.384-4.129-.837-3.975,2.6.189,4.228.058,8.472.033,12.708-.008,1.38-.13,2.732-1.931,1.134-.745-1.551-.272-3.2-.354-4.8C4445.812-392.979,4445.877-394.221,4444.229-394.5Z" transform="translate(-68.821 -547.23)"/><path class="a" d="M4514.309-359.923c-1.53-1.111-1.733-2.986-2.585-4.487-1.6-2.821-.558-3.774,2.389-3.379.607-.207.859-.96,1.563-1.018a.9.9,0,0,1,.8.852,9.512,9.512,0,0,1-.252,3.2c-1.781,1.095-1.678,2.9-1.751,4.64Z" transform="translate(-122.535 -577.569)"/><path class="a" d="M4470.716-406.91c-6.452-1.333-12.986-.618-19.485-.771-1.482-.035-3.2-.374-3.55,1.845l-.4.074-.267-.309c-.175-1.449.061-2.422,1.917-2.4,6.771.068,13.542.038,20.314.029C4470.312-408.447,4470.763-407.938,4470.716-406.91Z" transform="translate(-72.925 -546.827)"/><path class="a" d="M4421.434-336.6c-1.336,2.858-3.33,2.616-5.337.921-.971-.819-2.466-2.066-1.647-3.379.9-1.445,1.709.63,2.708.77,1.118.156,1.817-.53,2.668-.937C4421.291-338.916,4420.99-337.528,4421.434-336.6Z" transform="translate(-47.543 -600.234)"/><path class="a" d="M4430.088-384.731c2.107,1.474-.875,3.923,1.041,5.433-.86.444-.979,1.3-1.17,2.113-.564-.919-.967-2.14-2.461-1.3-1.709-.717-1.232-2.04-.921-3.319Z" transform="translate(-56.887 -565.229)"/><path class="a" d="M4486.344-387.535q.018,7.823.037,15.646A59.6,59.6,0,0,1,4486.344-387.535Z" transform="translate(-103.06 -563.055)"/><path class="a" d="M4425.7-405.305q-.041.458-.083.917l-3.532-.657c-1.169-1.137-.886-2.3-.074-3.483C4424.54-408.94,4424.575-406.5,4425.7-405.305Z" transform="translate(-53.038 -546.749)"/><path class="a" d="M4415.744-408.37q.037,1.742.073,3.483c-1.17,1.163-2.04.489-2.432-.639C4412.669-407.588,4414.373-407.9,4415.744-408.37Z" transform="translate(-46.77 -546.908)"/><path class="a" d="M4525.961-330.323a1.293,1.293,0,0,1,.408-.04c1.828.429,1.923,1.993,2.149,3.423.023.147-.686.631-.839.55-1.494-.785-1.794-2.222-1.88-3.744Z" transform="translate(-134.025 -607.359)"/><path class="a" d="M4440.77-341.547l-1.606-2.624c.066-.675-.086-1.514.8-1.733.834-.206,1.313.3,1.457,1.1A5,5,0,0,1,4440.77-341.547Z" transform="translate(-66.88 -595.284)"/><path class="a" d="M4530.907-381.345l-.146-3.787a4.272,4.272,0,0,1,0-5.085l1.107.107C4531.44-387.2,4532.756-384.1,4530.907-381.345Z" transform="translate(-137.219 -560.977)"/><path class="a" d="M4453.056-348.172c2.4-.107,2.029,1.658,2.057,3.1.029,1.493-.034,2.987-.056,4.481C4453.2-342.8,4455.708-346.17,4453.056-348.172Z" transform="translate(-77.647 -593.559)"/><path class="a" d="M4421.955-371.741c1.111.883-.271,2.458.92,3.319-1.583.6-2.255-.288-2.521-1.638C4420.112-371.286,4420.809-371.763,4421.955-371.741Z" transform="translate(-52.265 -575.296)"/><path class="a" d="M4499.78-393.669a4.924,4.924,0,0,1,5.933.02Z" transform="translate(-113.86 -557.539)"/><path class="a" d="M4526.111-385.1l-1.187.756a14.706,14.706,0,0,0,.249-5.815l.924-.007A7.856,7.856,0,0,1,4526.111-385.1Z" transform="translate(-133.347 -561.02)"/><path class="a" d="M4880.8-403.928a4.122,4.122,0,0,1-2.061.7,1,1,0,0,0,.81-.394c.388-.531,0-1.019-.556-1.294a7.035,7.035,0,0,0-3.291-.373c-8.511-.007-17.023-.034-25.536,0-.284,1.847-.043,3.341,2.3,3.42,1.528,4.187-.178,8.614.952,12.83a16.9,16.9,0,0,0,5,5.847c.932.2,1.291-.155,1.08-1.087-1.654-2.387-4.652-3.978-4.424-7.478-.411-3.386-.8-6.774.186-10.135l3.864.061c1.831,1.3.868,3.244,1.137,4.9.29,1.811-.759,3.856.958,5.413.961-2.43.544-4.983.4-7.435-.179-2.929,1.189-3.314,3.5-2.9,1.935,3.28,1.234,6.679.454,10.081,1.118,1.179,1.867,2.974,4.029,2.4,2.423.268.477,2.641,1.686,3.5l2.09,2.706c.558-4.958-1.154-9.7,3.205-13.125,1.192-.938.376-2.495-1.5-2.112-1.671.342-1.493-.675-1.534-1.66-.047-1.116.205-1.926,1.586-1.892,1.689.041,3.387.068,5.073-.031C4881.964-402.081,4881.459-403.015,4880.8-403.928Zm-9.9,9.593c-1.006.616-1.413,2.022-3.314,2.247,0-2.4.14-4.72-.033-7.012-.216-2.832,1.085-3.408,3.485-2.742C4872.867-399.3,4871.937-396.819,4870.9-394.335Z" transform="translate(-385.344 -549.28)"/><path class="a" d="M4881.127-406.613c-1.684,2.035-3.892.873-6.208,1.125,1.31-1.531,3.015-.189,4.7-1.653-8.3,0-16.042,0-23.779,0-1.821,0-3.688.249-5.343-.831,3.8-1.455,7.734-.448,11.6-.594,5.211-.2,10.436-.064,15.654-.039C4879.228-408.6,4881.053-409.059,4881.127-406.613Z" transform="translate(-385.671 -546.594)"/><path class="a" d="M4885.408-389.851c2.107,0,1.875,1.542,1.908,2.907q.093,3.7.189,7.409c-.054,1.66-1.2,1.845-2.289,1.333-.845-.4-1.645-1.626-.994-2.436C4886.549-383.529,4884.862-386.812,4885.408-389.851Z" transform="translate(-411.629 -561.26)"/><path class="a" d="M4916.9-389.91c2.475,1.811,2.723,7.3.455,10.081C4916.625-383.163,4917.008-386.548,4916.9-389.91Z" transform="translate(-437.135 -561.215)"/><path class="a" d="M4887.184-310.741l1.078-1.087a5.819,5.819,0,0,1,2.653,4c.15,1.144.527,2.887-.889,3.137-1.332.236-2.038-1.239-1.835-2.6A4.7,4.7,0,0,0,4887.184-310.741Z" transform="translate(-414.108 -621.73)"/><path class="a" d="M4966.78-356.644c.047-.809-.124-1.993.785-2.127,1.147-.169.883,1.08,1.025,1.808.5,2.585-.738,4.737-1.976,6.778-.3.493-.583-.566-.776-.993C4965.354-353.137,4966.6-354.8,4966.78-356.644Z" transform="translate(-474.981 -585.337)"/><path class="a" d="M4860.569-390.022c2.1,4.145.56,8.559.951,12.831C4859.583-381.348,4861.186-385.767,4860.569-390.022Z" transform="translate(-393.447 -561.128)"/><path class="a" d="M4869.17-379.986c-1.108-3.4-1.388-6.785.185-10.136Q4869.261-385.054,4869.17-379.986Z" transform="translate(-399.439 -561.05)"/><path class="a" d="M4965.353-349.263c.5,1.962-.542,3.659-.942,5.466C4962.991-345.918,4964.842-347.475,4965.353-349.263Z" transform="translate(-473.554 -592.717)"/><path class="a" d="M4936.868-334.459c1.761-.05,1.761-.05,1.686,3.5C4937.243-331.766,4938.781-333.945,4936.868-334.459Z" transform="translate(-452.615 -604.183)"/><path class="a" d="M4660.263-392.513c-2.787-.507-2.588,1.367-2.51,3.146a1.346,1.346,0,0,1-.791.78c-1.559-1.364-1.93-3.348-2.613-5.151-.281-.741-.625-2.076.24-2.275,3.907-.9,1.928-3.882,2.338-6.009-.931-1.218-3.784.435-3.566-1.85s2.625-1.551,4.164-1.57c5.458-.068,10.918-.072,16.378-.067.442,1.247,3.51,2.77-.448,3.541-1.644.32-.938,1.84-.955,2.821-.078,4.5-.008,9.007-.064,13.51-.008.644.508,1.867-.911,1.714-.379-.041-.681-.8-1.018-1.222q0-.337,0-.675c-.094-5.14.2-10.285-.158-15.417-1.047-1.96-2.525-1.491-4.057-.714l.087-.136c-1.253,3.926-.193,7.96-.56,11.925-.189,2.038.576,4.156-.505,6.118-2.123-1.049-1.817-3.042-1.625-4.784.229-2.066-.857-2.715-2.507-3.071,1.767-2.513-1.991-1.744-1.929-3.243,1.911-1.466,4.294-2.678,3.131-5.785-.629-.918-1.151-.7-1.611.164-.4,1.453-.067,3.025-.779,4.408C4657.54-394.9,4661.331-393.872,4660.263-392.513Z" transform="translate(-232.881 -549.101)"/><path class="a" d="M4669.437-419.278c-2.812,1.854-5.935.557-8.9.841-3.633.347-7.35-.411-11.059.44.5,1.861,2.525.83,2.984,2.206-.978-.023-1.954-.048-2.931-.068-1.836-.038-1.811-1.62-1.93-2.711-.167-1.528,1.251-1.155,2.114-1.164,4.329-.047,8.665-.176,12.984.029,2.58.123,3.888-.56,3.563-3.6C4667.033-421.518,4667.3-419.6,4669.437-419.278Z" transform="translate(-228.413 -535.332)"/><path class="a" d="M4701.316-457.84c.591-1.615,1.859-2.235,3.271-1.462,1.79.98,2.528,2.752,2.588,5.164-1.849-.553-3.55-2.994-4.986-.092C4700.038-454.982,4701.264-456.553,4701.316-457.84Z" transform="translate(-269.75 -507.178)"/><path class="a" d="M4710.875-393.316c1.375-1.493,2.788-1.362,4.227-.1a81.726,81.726,0,0,1,.1,16.637l-.109.267c-1.587-4.479-.528-9.1-.6-13.646C4714.443-393.031,4713.593-393.983,4710.875-393.316Z" transform="translate(-277.464 -557.736)"/><path class="a" d="M4706.522-372.147c.029-4.739.025-9.478.107-14.216.023-1.32-.512-2.844.958-3.827q-.1,9.036-.221,18.073c0,.106-.21.315-.261.3A3.287,3.287,0,0,1,4706.522-372.147Z" transform="translate(-274.09 -560.998)"/><path class="a" d="M4699.734-451.664c.337,1.192-.354,2.633.874,3.61v5.356C4698.532-446.219,4698.438-448.892,4699.734-451.664Z" transform="translate(-268.168 -513.354)"/><path class="a" d="M4669.361-332.871l.791-.78c1.229.771,1.534,2.052,1.84,3.331a1.374,1.374,0,0,1-1.1,1.141C4670.057-330.274,4669.232-331.375,4669.361-332.871Z" transform="translate(-245.28 -604.817)"/><path class="a" d="M4678-363.2c.879,1.058,3.445,1.378,1.588,3.633a.719.719,0,0,1-.918-.614c-.219-1.225-2.821-1.918-.814-3.642l.294.26Z" transform="translate(-251.286 -581.433)"/><path class="a" d="M4676.213-317.7l1.1-1.141c.669.719,1.345,1.7.378,2.365C4676.839-315.894,4676.4-316.888,4676.213-317.7Z" transform="translate(-250.6 -616.294)"/><path class="a" d="M4492.314-369.211v-16.838c.281,5.62,1.86,11.267.016,16.845Z" transform="translate(-108.073 -564.207)"/><path class="a" d="M4457.565-384.306a16.021,16.021,0,0,0,.145-5.872C4459.1-388.185,4459.3-386.222,4457.565-384.306Z" transform="translate(-81.142 -561.007)"/><path class="a" d="M4530.149-385.139q-.007-2.533-.014-5.066c.264-.007.526-.011.79-.012q0,2.542,0,5.085C4530.667-385.131,4530.409-385.133,4530.149-385.139Z" transform="translate(-137.385 -560.977)"/><path class="a" d="M4942.656-382.394q.07-3.754.14-7.507C4946.789-387.324,4943.778-384.876,4942.656-382.394Z" transform="translate(-457.101 -561.222)"/><path class="a" d="M4729.76-373.387q-.049-8.319-.1-16.637A36.6,36.6,0,0,1,4729.76-373.387Z" transform="translate(-292.024 -561.126)"/><path class="a" d="M4685.006-393.379l-4.158.1C4682.195-394.9,4683.585-394.785,4685.006-393.379Z" transform="translate(-254.192 -557.685)"/></g></svg>