<svg xmlns="http://www.w3.org/2000/svg" xmlns:xlink="http://www.w3.org/1999/xlink" width="609.021" height="615.481" viewBox="0 0 609.021 615.481"><defs><style>.a,.b,.d{fill:none;}.b,.c{stroke:#1b3c6d;}.b,.c,.d{stroke-miterlimit:10;}.c,.dz{fill:#78ffff;}.c,.d{stroke-width:12px;}.d{stroke:#78ffff;}.e{isolation:isolate;}.f{fill:#3d8181;}.g{clip-path:url(#a);}.h{fill:#112544;}.i{fill:#112646;}.j{fill:#122848;}.k{fill:#12294a;}.l{clip-path:url(#b);}.m{fill:#3e8585;}.n{clip-path:url(#c);}.o{fill:#0e1f39;}.p{fill:#3c8080;}.q{fill:#0e1e37;}.r{clip-path:url(#d);}.s{fill:#0f213d;}.t{clip-path:url(#e);}.u{clip-path:url(#f);}.v{clip-path:url(#g);}.w{fill:#4a9e9e;}.x{fill:#4da3a3;}.y{fill:#4fa8a8;}.z{fill:#52adad;}.aa{clip-path:url(#h);}.ab{fill:#132a4c;}.ac{clip-path:url(#i);}.ad{clip-path:url(#j);}.ae{clip-path:url(#k);}.af{clip-path:url(#l);}.ag{fill:#489a9a;}.ah{clip-path:url(#m);}.ai{clip-path:url(#n);}.aj{clip-path:url(#o);}.ak{fill:#0f203b;}.al{fill:#0f223d;}.am{fill:#10233f;}.an{fill:#102441;}.ao{fill:#183560;}.ap{fill:#4ea6a6;}.aq{clip-path:url(#p);}.ar{fill:#418a8a;}.as{fill:#438f8f;}.at{fill:#469494;}.au{fill:#489999;}.av{fill:#122747;}.aw{clip-path:url(#q);}.ax{clip-path:url(#r);}.ay{clip-path:url(#s);}.az{clip-path:url(#t);}.ba{clip-path:url(#u);}.bb{clip-path:url(#v);}.bc{fill:#3f8585;}.bd{clip-path:url(#w);}.be{clip-path:url(#x);}.bf{clip-path:url(#y);}.bg{fill:#58baba;}.bh{fill:#142c50;}.bi{clip-path:url(#z);}.bj{fill:#112645;}.bk{clip-path:url(#aa);}.bl{clip-path:url(#ab);}.bm{clip-path:url(#ac);}.bn{clip-path:url(#ad);}.bo{fill:#54b3b3;}.bp{clip-path:url(#ae);}.bq{fill:#69e0e0;}.br{clip-path:url(#af);}.bs{fill:#53b1b1;}.bt{clip-path:url(#ag);}.bu{clip-path:url(#ah);}.bv{clip-path:url(#ai);}.bw{clip-path:url(#aj);}.bx{clip-path:url(#ak);}.by{clip-path:url(#al);}.bz{fill:#142c4f;}.ca{clip-path:url(#am);}.cb{clip-path:url(#an);}.cc{fill:#4ca2a2;}.cd{clip-path:url(#ao);}.ce{clip-path:url(#ap);}.cf{clip-path:url(#aq);}.cg{clip-path:url(#ar);}.ch{clip-path:url(#as);}.ci{clip-path:url(#at);}.cj{clip-path:url(#au);}.ck{clip-path:url(#av);}.cl{clip-path:url(#aw);}.cm{clip-path:url(#ax);}.cn{fill:#132a4d;}.co{clip-path:url(#ay);}.cp{clip-path:url(#az);}.cq{fill:#3d8282;}.cr{clip-path:url(#ba);}.cs{clip-path:url(#bb);}.ct{clip-path:url(#bc);}.cu{fill:#042544;}.cv{fill:#042646;}.cw{fill:#042748;}.cx{clip-path:url(#bd);}.cy{clip-path:url(#be);}.cz{clip-path:url(#bf);}.da{clip-path:url(#bg);}.db{clip-path:url(#bh);}.dc{fill:#031f39;}.dd{fill:#03203b;}.de{fill:#03213d;}.df{fill:#03223f;}.dg{fill:#042341;}.dh{clip-path:url(#bi);}.di{fill:#55b4b4;}.dj{fill:#18345f;}.dk{fill:#122849;}.dl{clip-path:url(#bj);}.dm{fill:#69dfdf;}.dn{clip-path:url(#bk);}.do{clip-path:url(#bl);}.dp{fill:#0e1f38;}.dq{clip-path:url(#bm);}.dr{fill:#05335f;}.ds{clip-path:url(#bn);}.dt{clip-path:url(#bo);}.du{clip-path:url(#bp);}.dv{fill:#55b5b5;}.dw{fill:#031e37;}.dx{fill:#042a4d;}.dy{fill:#0e1f37;}.ea{fill:#1b3c6d;}</style><clipPath id="a"><path class="a" d="M513.949,691.16,503.8,687.279a.941.941,0,0,0,.476.052,1.214,1.214,0,0,0,.467-.174l10.146,3.881a1.222,1.222,0,0,1-.467.174A.949.949,0,0,1,513.949,691.16Z" transform="translate(-503.803 -687.157)"/></clipPath><clipPath id="b"><path class="a" d="M503.436,687.018a1.127,1.127,0,0,1-.575-.532l10.146,3.881a1.122,1.122,0,0,0,.575.531Z" transform="translate(-502.861 -686.486)"/></clipPath><clipPath id="c"><path class="a" d="M513.048,691.781,502.9,687.9a1.585,1.585,0,0,1-.811-.752l10.146,3.881A1.585,1.585,0,0,0,513.048,691.781Z" transform="translate(-502.091 -687.148)"/></clipPath><clipPath id="d"><path class="a" d="M497.157,676.881,487.011,673a17.733,17.733,0,0,0,5.847.233L503,677.114A17.733,17.733,0,0,1,497.157,676.881Z" transform="translate(-487.011 -673)"/></clipPath><clipPath id="e"><path class="a" d="M508.914,608.458a9.884,9.884,0,0,0-1.611-.781l10.146,3.88a9.934,9.934,0,0,1,1.611.782C516.016,611.175,511.837,609.9,508.914,608.458Z" transform="translate(-507.303 -607.677)"/></clipPath><clipPath id="f"><path class="a" d="M506.9,608.692l10.146,3.881a9.706,9.706,0,0,1,1.5.72l-10.146-3.881A9.684,9.684,0,0,0,506.9,608.692Z" transform="translate(-506.896 -608.692)"/></clipPath><clipPath id="g"><path class="a" d="M499.43,648.688a10.15,10.15,0,0,0,1.548-1.078l10.146,3.881a10.15,10.15,0,0,1-1.548,1.078,10.92,10.92,0,0,1-3.819,1.269,10.588,10.588,0,0,1-5.23-.541l-10.146-3.881a10.573,10.573,0,0,0,5.229.541A10.919,10.919,0,0,0,499.43,648.688Z" transform="translate(-490.381 -647.61)"/></clipPath><clipPath id="h"><path class="a" d="M500.932,652.354l-10.146-3.881a10.109,10.109,0,0,0,4.994.517,10.46,10.46,0,0,0,3.653-1.212,9.678,9.678,0,0,0,1.456-1.016l10.146,3.881a9.677,9.677,0,0,1-1.456,1.016,10.459,10.459,0,0,1-3.653,1.212A10.109,10.109,0,0,1,500.932,652.354Z" transform="translate(-490.786 -646.761)"/></clipPath><clipPath id="i"><path class="a" d="M484.659,689.964l-10.146-3.881a.9.9,0,0,0,.453.048,1.58,1.58,0,0,0,.9-.517l10.146,3.881a1.583,1.583,0,0,1-.9.517A.906.906,0,0,1,484.659,689.964Z" transform="translate(-474.513 -685.613)"/></clipPath><clipPath id="j"><path class="a" d="M474.249,686.25l10.146,3.881a.9.9,0,0,0,.161.081l-10.146-3.881A.887.887,0,0,1,474.249,686.25Z" transform="translate(-474.249 -686.25)"/></clipPath><clipPath id="k"><path class="a" d="M474.161,686.183a1,1,0,0,1-.137-.1l10.146,3.881a1.007,1.007,0,0,0,.137.1l-.955-.365-1.013-.387-1.051-.4-1.071-.409-1.07-.409-1.051-.4-1.013-.387-.955-.365-.23-.088-.243-.093-.253-.1-.257-.1-.257-.1-.128-.049-.248-.1-.121-.046C474.322,686.245,474.228,686.217,474.161,686.183Z" transform="translate(-474.024 -686.079)"/></clipPath><clipPath id="l"><path class="a" d="M483.989,691.115l-10.146-3.88a1.331,1.331,0,0,1-.409-.251l10.146,3.881A1.306,1.306,0,0,0,483.989,691.115Z" transform="translate(-473.435 -686.983)"/></clipPath><clipPath id="m"><path class="a" d="M511.726,588.648l-10.146-3.881a17.613,17.613,0,0,1,5.858.184l10.146,3.881A17.627,17.627,0,0,0,511.726,588.648Z" transform="translate(-501.58 -584.605)"/></clipPath><clipPath id="n"><path class="a" d="M512.29,587.543l-10.146-3.881a17.77,17.77,0,0,1,5.685.229l10.146,3.881A17.75,17.75,0,0,0,512.29,587.543Z" transform="translate(-502.144 -583.532)"/></clipPath><clipPath id="o"><path class="a" d="M496.572,637.285,486.427,633.4a9.287,9.287,0,0,1-5.608-6.388,17.962,17.962,0,0,1,7.332-19.069,9.827,9.827,0,0,1,3.659-1.309,9.975,9.975,0,0,1,4.941.6l10.146,3.88a9.982,9.982,0,0,0-4.941-.6,9.837,9.837,0,0,0-3.659,1.308,17.963,17.963,0,0,0-7.332,19.069A9.287,9.287,0,0,0,496.572,637.285Z" transform="translate(-480.241 -606.547)"/></clipPath><clipPath id="p"><path class="a" d="M469.116,676.244l-10.146-3.881a1.643,1.643,0,0,1-.206-1.859l10.146,3.88A1.644,1.644,0,0,0,469.116,676.244Z" transform="translate(-458.574 -670.505)"/></clipPath><clipPath id="q"><path class="a" d="M468.413,676.63l-10.146-3.881a2.322,2.322,0,0,1-.292-2.669l10.146,3.881A2.322,2.322,0,0,0,468.413,676.63Z" transform="translate(-457.693 -670.08)"/></clipPath><clipPath id="r"><path class="a" d="M494.65,570.848l10.146,3.881a1.045,1.045,0,0,1,.559.544l-10.146-3.881A1.047,1.047,0,0,0,494.65,570.848Z" transform="translate(-494.65 -570.848)"/></clipPath><clipPath id="s"><path class="a" d="M494.346,570.809l10.146,3.881a.956.956,0,0,0-.475-.051l-10.146-3.88A.949.949,0,0,1,494.346,570.809Z" transform="translate(-493.871 -570.749)"/></clipPath><clipPath id="t"><path class="a" d="M493.079,570.945a1.272,1.272,0,0,1,.483-.179l8.961,3.427,1.185.453a1.283,1.283,0,0,0-.483.18Z" transform="translate(-493.079 -570.766)"/></clipPath><clipPath id="u"><path class="a" d="M494.168,569.781l10.146,3.881a1.386,1.386,0,0,0-.693-.074,1.772,1.772,0,0,0-.672.248L492.8,569.954a1.772,1.772,0,0,1,.672-.248A1.386,1.386,0,0,1,494.168,569.781Z" transform="translate(-492.803 -569.692)"/></clipPath><clipPath id="v"><path class="a" d="M463.989,648.244a22.259,22.259,0,0,1-.656-3.267l10.146,3.881a22.316,22.316,0,0,0,.655,3.261l-1.183-.453-1.254-.479-1.3-.5-1.325-.507-1.325-.507-1.3-.5-1.254-.479-1.183-.453,10.125,3.873v.005a19.851,19.851,0,0,0,1.129,2.984l-10.146-3.881A19.83,19.83,0,0,1,463.989,648.244Z" transform="translate(-463.333 -644.977)"/></clipPath><clipPath id="w"><path class="a" d="M474.392,655.609l-10.146-3.88a21.716,21.716,0,0,1-1.088-2.916,22.483,22.483,0,0,1-.652-3.183l10.146,3.881a22.483,22.483,0,0,0,.652,3.183A21.691,21.691,0,0,0,474.392,655.609Z" transform="translate(-462.506 -645.629)"/></clipPath><clipPath id="x"><path class="a" d="M472.581,601.291l10.146,3.88a35.521,35.521,0,0,0-3.838,6.071l-10.146-3.881A35.488,35.488,0,0,1,472.581,601.291Z" transform="translate(-468.743 -601.291)"/></clipPath><clipPath id="y"><path class="a" d="M478.443,610.392,468.3,606.511a35.943,35.943,0,0,1,3.743-5.862l10.146,3.88A35.98,35.98,0,0,0,478.443,610.392Z" transform="translate(-468.297 -600.649)"/></clipPath><clipPath id="z"><path class="a" d="M483.1,588.236l-10.146-3.881a1.86,1.86,0,0,1,.816-1.839l10.146,3.88A1.861,1.861,0,0,0,483.1,588.236Z" transform="translate(-472.932 -582.516)"/></clipPath><clipPath id="aa"><path class="a" d="M460.366,645.793l-10.146-3.881a.846.846,0,0,0,.182.047l10.146,3.881A.847.847,0,0,1,460.366,645.793Z" transform="translate(-450.22 -641.912)"/></clipPath><clipPath id="ab"><path class="a" d="M482.223,588.092l-10.146-3.881a2.708,2.708,0,0,1,1.173-2.632L483.4,585.46A2.708,2.708,0,0,0,482.223,588.092Z" transform="translate(-472.053 -581.579)"/></clipPath><clipPath id="ac"><path class="a" d="M449.821,640.984a1.242,1.242,0,0,1-.6-1.452l10.146,3.881a1.242,1.242,0,0,0,.6,1.452Z" transform="translate(-449.198 -639.532)"/></clipPath><clipPath id="ad"><path class="a" d="M459.372,645.483,449.226,641.6a1.794,1.794,0,0,1-.872-2.086L458.5,643.4A1.8,1.8,0,0,0,459.372,645.483Z" transform="translate(-448.316 -639.516)"/></clipPath><clipPath id="ae"><path class="a" d="M463.316,618.5l-10.146-3.88a1.7,1.7,0,0,1,1.262-1.49l10.146,3.881A1.7,1.7,0,0,0,463.316,618.5Z" transform="translate(-453.17 -613.131)"/></clipPath><clipPath id="af"><path class="a" d="M462.451,618.079,452.3,614.2a2.477,2.477,0,0,1,1.812-2.127l10.146,3.881A2.477,2.477,0,0,0,462.451,618.079Z" transform="translate(-452.305 -612.071)"/></clipPath><clipPath id="ag"><path class="a" d="M748.173,426.671l10.146,3.881a13.165,13.165,0,0,1,5.19,3.64c4.577,5.184,5.712,13.629,2.9,21.513l-10.146-3.881c2.816-7.884,1.68-16.329-2.9-21.513A13.158,13.158,0,0,0,748.173,426.671Z" transform="translate(-748.173 -426.671)"/></clipPath><clipPath id="ah"><path class="a" d="M733.233,495.022l-10.146-3.881a13.241,13.241,0,0,0,6.61.715,16.392,16.392,0,0,0,6.121-2.224l10.146,3.881a16.393,16.393,0,0,1-6.121,2.224A13.243,13.243,0,0,1,733.233,495.022Z" transform="translate(-723.087 -489.632)"/></clipPath><clipPath id="ai"><path class="a" d="M737.024,425.4a13.628,13.628,0,0,1,6.8.72L753.969,430a13.628,13.628,0,0,0-6.8-.721Z" transform="translate(-737.024 -425.253)"/></clipPath><clipPath id="aj"><path class="a" d="M744.162,424.8l10.146,3.881a14.171,14.171,0,0,0-7.071-.75l-10.146-3.881A14.172,14.172,0,0,1,744.162,424.8Z" transform="translate(-737.091 -423.898)"/></clipPath><clipPath id="ak"><path class="a" d="M725.619,428.141a17.531,17.531,0,0,1,6.958-2.652l10.146,3.88a17.549,17.549,0,0,0-6.958,2.652Z" transform="translate(-725.619 -425.489)"/></clipPath><clipPath id="al"><path class="a" d="M734.6,431.1l-10.146-3.881a18.4,18.4,0,0,1,7.708-3.072l10.146,3.881A18.4,18.4,0,0,0,734.6,431.1Z" transform="translate(-724.456 -424.144)"/></clipPath><clipPath id="am"><path class="a" d="M726.974,479.116l-10.146-3.881a13.537,13.537,0,0,1-5.318-3.744c-4.866-5.512-5.85-14.549-2.517-22.647l10.146,3.881c-3.333,8.1-2.349,17.135,2.517,22.647A13.532,13.532,0,0,0,726.974,479.116Z" transform="translate(-707.037 -448.844)"/></clipPath><clipPath id="an"><path class="a" d="M726.231,479.388l-10.146-3.881a14.062,14.062,0,0,1-5.524-3.887c-5.168-5.859-6.116-15.55-2.366-24.118l10.146,3.881c-3.749,8.568-2.8,18.259,2.366,24.118A14.068,14.068,0,0,0,726.231,479.388Z" transform="translate(-705.919 -447.501)"/></clipPath><clipPath id="ao"><path class="a" d="M596.692,320.871l7.278,2.784q.588.225,1.168.481l-7.279-2.784Q597.281,321.1,596.692,320.871Z" transform="translate(-596.692 -320.871)"/></clipPath><clipPath id="ap"><path class="a" d="M576.347,318.461a24.874,24.874,0,0,1,12.411,1.372l7.279,2.784a24.888,24.888,0,0,0-12.411-1.372Z" transform="translate(-576.347 -318.208)"/></clipPath><clipPath id="aq"><path class="a" d="M589.022,318.793l7.279,2.784a25.27,25.27,0,0,0-12.609-1.394l-7.279-2.784A25.272,25.272,0,0,1,589.022,318.793Z" transform="translate(-576.412 -317.143)"/></clipPath><clipPath id="ar"><path class="a" d="M572.809,319.017q1.079-.243,2.158-.395l7.279,2.784q-1.079.152-2.159.395Z" transform="translate(-572.809 -318.622)"/></clipPath><clipPath id="as"><path class="a" d="M534.724,336.582c6.238-9.076,14.7-15.392,23.234-17.313l7.278,2.784c-8.529,1.922-17,8.237-23.233,17.313l-.85-.325-.9-.345-.935-.357-.953-.364-.952-.365-.936-.357-.9-.345Z" transform="translate(-534.724 -319.269)"/></clipPath><clipPath id="at"><path class="a" d="M518.459,380.559a56.249,56.249,0,0,1,9.916-32.911l7.279,2.784a56.25,56.25,0,0,0-9.916,32.911Z" transform="translate(-518.443 -347.648)"/></clipPath><clipPath id="au"><path class="a" d="M524.851,369.674l-7.279-2.784a57.214,57.214,0,0,1,10.079-31.33c6.333-9.227,14.939-15.641,23.609-17.593q1.1-.249,2.207-.4l7.279,2.784q-1.1.155-2.207.4c-8.671,1.952-17.277,8.366-23.609,17.593A57.211,57.211,0,0,0,524.851,369.674Z" transform="translate(-517.572 -317.563)"/></clipPath><clipPath id="av"><path class="a" d="M490.017,367.02,497.3,369.8c7.518,2.876,14.021,10.653,16.831,21.3l-7.279-2.784C504.038,377.673,497.535,369.9,490.017,367.02Z" transform="translate(-490.017 -367.02)"/></clipPath><clipPath id="aw"><path class="a" d="M467.547,366.241l7.279,2.784a17.606,17.606,0,0,0-8.8-1.053,17.286,17.286,0,0,0-2.95.683c-6.512,2.117-13.073,8.6-17.557,17.348a51.946,51.946,0,0,0-4.544,35.324l-7.278-2.784a51.945,51.945,0,0,1,4.544-35.324c4.484-8.746,11.044-15.23,17.557-17.348a17.375,17.375,0,0,1,2.95-.684A17.613,17.613,0,0,1,467.547,366.241Z" transform="translate(-432.394 -365.023)"/></clipPath><clipPath id="ax"><path class="a" d="M467.443,365.2l7.278,2.785a18.007,18.007,0,0,0-9-1.077,17.726,17.726,0,0,0-3.032.7c-6.667,2.166-13.375,8.782-17.949,17.7a52.879,52.879,0,0,0-4.513,36.3l-7.279-2.784a52.883,52.883,0,0,1,4.513-36.3c4.575-8.922,11.282-15.539,17.949-17.7a17.8,17.8,0,0,1,3.032-.7A18.017,18.017,0,0,1,467.443,365.2Z" transform="translate(-431.542 -363.958)"/></clipPath><clipPath id="ay"><path class="a" d="M715.751,777.115a7.149,7.149,0,0,0,1.044.464l5.562,3.026a7.112,7.112,0,0,1-1.043-.464Z" transform="translate(-715.751 -777.115)"/></clipPath><clipPath id="az"><path class="a" d="M721.832,779.179l-5.562-3.026a6.811,6.811,0,0,0,3.009.814l5.562,3.026A6.808,6.808,0,0,1,721.832,779.179Z" transform="translate(-716.27 -776.153)"/></clipPath><clipPath id="ba"><path class="a" d="M718.768,769.915l-5.562-3.026a7.78,7.78,0,0,1-3.879-5.816,11.042,11.042,0,0,1,4.328-10.184l5.562,3.025a11.046,11.046,0,0,0-4.328,10.184A7.781,7.781,0,0,0,718.768,769.915Z" transform="translate(-709.222 -750.889)"/></clipPath><clipPath id="bb"><path class="a" d="M709.706,746.777a.5.5,0,0,0-.193-.187l5.562,3.025a.5.5,0,0,1,.193.187c.351.584-.233,1.868-.972,2.588l-5.562-3.025C709.473,748.645,710.057,747.36,709.706,746.777Z" transform="translate(-708.734 -746.59)"/></clipPath><clipPath id="bc"><path class="a" d="M709.5,749.6l-5.562-3.025a2.481,2.481,0,0,0,1.559.2c.265-.037.526-.1.774-.152s.479-.108.689-.138a1.123,1.123,0,0,1,.681.058l5.562,3.025a1.127,1.127,0,0,0-.68-.057c-.21.029-.443.083-.689.137s-.509.115-.774.152A2.477,2.477,0,0,1,709.5,749.6Z" transform="translate(-703.941 -746.457)"/></clipPath><clipPath id="bd"><path class="a" d="M701.637,740.25l5.562,3.026c.2.724-.035,2.99,1.3,3.837.036.023.073.045.109.064l-5.562-3.025c-.037-.02-.073-.042-.109-.065C701.6,743.24,701.838,740.974,701.637,740.25Z" transform="translate(-701.637 -740.25)"/></clipPath><clipPath id="be"><path class="a" d="M701.557,740.115a.331.331,0,0,0-.124-.21L707,742.931a.331.331,0,0,1,.124.211Z" transform="translate(-701.433 -739.905)"/></clipPath><clipPath id="bf"><path class="a" d="M701.363,739.9l5.562,3.026a.132.132,0,0,0-.067-.016l-5.562-3.026A.139.139,0,0,1,701.363,739.9Z" transform="translate(-701.296 -739.883)"/></clipPath><clipPath id="bg"><path class="a" d="M703.708,752.122a3.735,3.735,0,0,0,2.095-.982l5.562,3.025a3.739,3.739,0,0,1-2.1.983,4.071,4.071,0,0,1-2.49-.42l-5.562-3.025A4.078,4.078,0,0,0,703.708,752.122Z" transform="translate(-701.218 -751.14)"/></clipPath><clipPath id="bh"><path class="a" d="M705.692,750.339l-5.562-3.026a3.154,3.154,0,0,1-1.155-1.058c-1.527-2.366.55-6.28,1.2-6.371l5.562,3.026c-.652.091-2.728,4.005-1.2,6.371A3.164,3.164,0,0,0,705.692,750.339Z" transform="translate(-698.427 -739.883)"/></clipPath><clipPath id="bi"><path class="a" d="M730.749,649.015l-5.562-3.025a7.015,7.015,0,0,1,2.612.127c.254.061.461.126.611.177l5.562,3.026c-.15-.051-.357-.117-.611-.177A7.034,7.034,0,0,0,730.749,649.015Z" transform="translate(-725.187 -645.922)"/></clipPath><clipPath id="bj"><path class="a" d="M695.507,773.973a11.347,11.347,0,0,0,3.4-9.715l5.562,3.025a11.349,11.349,0,0,1-3.4,9.716Z" transform="translate(-695.507 -764.258)"/></clipPath><clipPath id="bk"><path class="a" d="M698.443,760.588a8.079,8.079,0,0,0-4.123-5.739l5.562,3.025A8.079,8.079,0,0,1,704,763.614h0l-5.562-3.025Z" transform="translate(-694.32 -754.849)"/></clipPath><clipPath id="bl"><path class="a" d="M693.81,755.819l5.562,3.025a7.533,7.533,0,0,1,3.849,5.345,10.746,10.746,0,0,1-3.858,9.686l-5.562-3.026a10.743,10.743,0,0,0,3.858-9.685A7.529,7.529,0,0,0,693.81,755.819Z" transform="translate(-693.8 -755.819)"/></clipPath><clipPath id="bm"><path class="a" d="M693.987,754.69l5.562,3.026c-.2-.107-.355-.182-.459-.229l-5.562-3.026C693.632,754.508,693.791,754.583,693.987,754.69Z" transform="translate(-693.528 -754.461)"/></clipPath><clipPath id="bn"><path class="a" d="M736.042,672.1l-5.562-3.026c.126-.084.251-.171.375-.264l5.562,3.026Q736.231,671.977,736.042,672.1Z" transform="translate(-730.48 -668.813)"/></clipPath><clipPath id="bo"><path class="a" d="M722.788,670.478a7.662,7.662,0,0,0,3.172-1.233l5.562,3.026a7.67,7.67,0,0,1-3.172,1.233,6.292,6.292,0,0,1-3.9-.669l-5.562-3.025A6.289,6.289,0,0,0,722.788,670.478Z" transform="translate(-718.889 -669.245)"/></clipPath><clipPath id="bp"><path class="a" d="M722.416,663.784l-5.562-3.026a5.91,5.91,0,0,1-2.117-1.958c-2.446-3.711-.233-8.9,2.107-10.984a7.8,7.8,0,0,1,1.961-1.24,7.12,7.12,0,0,1,1.892-.543l5.562,3.025a7.128,7.128,0,0,0-1.892.544,7.782,7.782,0,0,0-1.961,1.24c-2.339,2.08-4.552,7.274-2.107,10.984A5.912,5.912,0,0,0,722.416,663.784Z" transform="translate(-713.67 -646.033)"/></clipPath></defs><g transform="translate(-67.807 -73.953)"><path class="b" d="M651.34,167.661l-163.106-4.315-5.992,28.047-38.884,5.178" transform="translate(-146.447 -32.678)"/><path class="b" d="M913.087,596.412,818.3,595.49l-27.315,61.054-29.266,1.007" transform="translate(-270.593 -201.193)"/><path class="b" d="M970.68,276.234l-123.295,5.137-6.85,135.853-19.114,18.733" transform="translate(-293.874 -76.699)"/><path class="c" d="M675.766,636.254,395,534.049V182.725L674.946,283.51Z" transform="translate(-127.589 -40.235)"/><path class="d" d="M675.766,636.254,395,534.049V182.725L674.946,283.51Z" transform="translate(-127.589 -40.235)"/><g transform="translate(277.984 357.334)"><path class="a" d="M412.333,569.9l87.32-35,35,87.32-87.321,35Z" transform="translate(-412.333 -534.9)"/><g transform="translate(21.951 21.225)"><g class="e"><g transform="translate(34.793 71.659)"><path class="f" d="M515.577,691.318l-10.146-3.881-.082-.28,10.146,3.881Z" transform="translate(-505.349 -687.157)"/></g><g class="e" transform="translate(33.85 71.659)"><g class="g"><g class="e"><path class="h" d="M513.949,691.238,503.8,687.357a.993.993,0,0,0,.136.041l10.146,3.881a1,1,0,0,1-.136-.041" transform="translate(-503.803 -687.235)"/><path class="i" d="M514.172,691.305l-10.146-3.881a.952.952,0,0,0,.177.021l10.146,3.881a.953.953,0,0,1-.177-.021" transform="translate(-503.89 -687.261)"/><path class="j" d="M514.462,691.32l-10.146-3.881a.981.981,0,0,0,.163-.01c.034,0,.069-.011.1-.02l10.146,3.881q-.053.013-.1.02a.974.974,0,0,1-.163.01" transform="translate(-504.003 -687.256)"/><path class="k" d="M514.9,691.192l-10.146-3.881a1.269,1.269,0,0,0,.362-.154l10.146,3.881a1.275,1.275,0,0,1-.363.154" transform="translate(-504.174 -687.157)"/></g></g></g><g class="e" transform="translate(33.275 71.25)"><g class="l"><g class="e"><path class="m" d="M513.581,690.9l-10.146-3.881a1.124,1.124,0,0,1-.575-.531l10.146,3.881a1.124,1.124,0,0,0,.575.531" transform="translate(-502.861 -686.486)"/></g></g></g><g class="e" transform="translate(32.806 71.654)"><g class="n"><g class="e"><path class="o" d="M513.048,691.781,502.9,687.9a1.585,1.585,0,0,1-.811-.752l10.146,3.881a1.585,1.585,0,0,0,.811.752" transform="translate(-502.091 -687.148)"/></g></g></g><g transform="translate(29.607 63.234)"><path class="p" d="M510.662,685.243l-10.146-3.881-3.669-8.016,10.146,3.881Z" transform="translate(-496.847 -673.346)"/></g><g transform="translate(29.263 63.92)"><path class="q" d="M509.972,686.086,499.826,682.2l-3.543-7.733,10.146,3.881Z" transform="translate(-496.283 -674.471)"/></g><g class="e" transform="translate(23.606 63.023)"><g class="r"><g class="e"><path class="i" d="M497.157,676.881,487.011,673a19.511,19.511,0,0,0,3.261.371l10.146,3.881a19.568,19.568,0,0,1-3.261-.371" transform="translate(-487.011 -673)"/><path class="j" d="M502.5,677.4l-10.146-3.881a16.524,16.524,0,0,0,2.585-.138l10.146,3.881a16.524,16.524,0,0,1-2.585.138" transform="translate(-489.096 -673.149)"/></g></g></g><g transform="translate(36.012 24.512)"><path class="s" d="M517.493,636.257l-10.146-3.881,1.223-22.5,10.146,3.881Z" transform="translate(-507.347 -609.873)"/></g><g class="e" transform="translate(35.985 23.173)"><g class="t"><g class="e"><path class="m" d="M519.06,612.34l-10.146-3.881a9.884,9.884,0,0,0-1.611-.781l10.146,3.88a9.934,9.934,0,0,1,1.611.782" transform="translate(-507.303 -607.677)"/></g></g></g><g class="e" transform="translate(35.737 23.792)"><g class="u"><g class="e"><path class="o" d="M518.541,613.294l-10.146-3.881a9.684,9.684,0,0,0-1.5-.72l10.146,3.881a9.706,9.706,0,0,1,1.5.72" transform="translate(-506.896 -608.692)"/></g></g></g><g class="e" transform="translate(25.662 47.534)"><g class="v"><g class="e"><path class="w" d="M500.527,654.452l-10.146-3.881a9.649,9.649,0,0,0,1.406.417l10.146,3.881a9.644,9.644,0,0,1-1.406-.417" transform="translate(-490.381 -648.765)"/><path class="x" d="M502.832,655.136l-10.146-3.881a10.51,10.51,0,0,0,1.971.232l10.146,3.881a10.561,10.561,0,0,1-1.971-.232" transform="translate(-491.28 -649.031)"/><path class="y" d="M506.063,655.311l-10.146-3.881a11.446,11.446,0,0,0,2.963-.32l10.146,3.881a11.436,11.436,0,0,1-2.963.32" transform="translate(-492.54 -648.975)"/><path class="z" d="M510.92,654l-10.146-3.881a10.646,10.646,0,0,0,2.709-1.057c.267-.149.533-.317.794-.5l10.146,3.881c-.261.182-.526.35-.794.5A10.669,10.669,0,0,1,510.92,654" transform="translate(-494.434 -647.98)"/><path class="y" d="M516.661,652.07l-10.146-3.881c.256-.179.508-.373.755-.579l10.146,3.881c-.246.206-.5.4-.755.579" transform="translate(-496.672 -647.61)"/></g></g></g><g class="e" transform="translate(25.909 47.016)"><g class="aa"><g class="e"><path class="h" d="M500.932,653.448l-10.146-3.881a9.268,9.268,0,0,0,1.342.4l10.146,3.881a9.27,9.27,0,0,1-1.342-.4" transform="translate(-490.786 -647.855)"/><path class="i" d="M503.132,654.1l-10.146-3.881a10.082,10.082,0,0,0,1.883.221l10.146,3.881a10.082,10.082,0,0,1-1.883-.221" transform="translate(-491.644 -648.11)"/><path class="j" d="M506.219,654.268l-10.146-3.881a10.943,10.943,0,0,0,2.837-.307l10.146,3.881c-.35.085-.706.154-1.068.2a10.793,10.793,0,0,1-1.769.1" transform="translate(-492.848 -648.055)"/><path class="k" d="M510.869,653.019l-10.146-3.881a10.186,10.186,0,0,0,2.585-1.008c.249-.14.495-.3.738-.465l10.146,3.881q-.364.254-.737.465a10.192,10.192,0,0,1-2.585,1.008" transform="translate(-494.661 -647.113)"/><path class="j" d="M516.315,651.193l-10.146-3.881c.244-.17.484-.355.719-.551l10.146,3.881q-.352.295-.719.551" transform="translate(-496.785 -646.761)"/></g></g></g><g transform="translate(17.331 63.023)"><path class="ab" d="M486.871,684.576l-10.146-3.881L483,673l10.146,3.881Z" transform="translate(-476.725 -673)"/></g><g class="e" transform="translate(15.982 70.717)"><g class="ac"><g class="e"><path class="h" d="M484.659,690.264l-10.146-3.881a.867.867,0,0,0,.126.037l10.146,3.881a.852.852,0,0,1-.126-.037" transform="translate(-474.513 -685.913)"/><path class="i" d="M484.865,690.325l-10.146-3.881a.863.863,0,0,0,.167.02l10.146,3.881a.905.905,0,0,1-.166-.02" transform="translate(-474.593 -685.937)"/><path class="j" d="M485.138,690.339l-10.146-3.881a1.006,1.006,0,0,0,.16-.01.913.913,0,0,0,.107-.021l10.146,3.881a1.066,1.066,0,0,1-.107.021,1.007,1.007,0,0,1-.16.01" transform="translate(-474.7 -685.93)"/><path class="k" d="M485.576,690.165l-10.146-3.881a1.434,1.434,0,0,0,.478-.224l10.146,3.881a1.434,1.434,0,0,1-.478.224" transform="translate(-474.871 -685.787)"/><path class="j" d="M486.36,689.783,476.214,685.9a1.906,1.906,0,0,0,.288-.247l10.146,3.881a1.94,1.94,0,0,1-.288.247" transform="translate(-475.176 -685.629)"/><path class="i" d="M486.832,689.52l-10.146-3.881.024-.026,10.146,3.881-.024.026" transform="translate(-475.36 -685.613)"/></g></g></g><g class="e" transform="translate(15.821 71.106)"><g class="ad"><g class="e" transform="translate(-0.137 -0.104)"><path class="m" d="M484.468,690.146l-10.146-3.881a.96.96,0,0,1-.3-.185l10.146,3.881a.963.963,0,0,0,.3.185" transform="translate(-474.024 -686.079)"/></g></g></g><g class="e" transform="translate(15.683 71.002)"><g class="ae"><g class="e"><path class="m" d="M484.468,690.146l-10.146-3.881a.96.96,0,0,1-.3-.185l10.146,3.881a.963.963,0,0,0,.3.185" transform="translate(-474.024 -686.079)"/></g></g></g><g class="e" transform="translate(15.324 71.553)"><g class="af"><g class="e"><path class="o" d="M483.989,691.115l-10.146-3.88a1.331,1.331,0,0,1-.409-.251l10.146,3.881a1.306,1.306,0,0,0,.408.251" transform="translate(-473.435 -686.983)"/></g></g></g><g transform="translate(38.351 9.123)"><path class="ag" d="M521.328,588.848l-10.146-3.881.086-.32,10.146,3.881Z" transform="translate(-511.182 -584.647)"/></g><g class="e" transform="translate(32.494 9.098)"><g class="ah"><g class="e" transform="translate(0 0)"><path class="y" d="M511.726,588.648l-10.146-3.881a17.851,17.851,0,0,1,2.811-.156l10.146,3.881a17.85,17.85,0,0,0-2.811.156" transform="translate(-501.58 -584.605)"/><path class="x" d="M516.334,588.5l-10.146-3.881a18.215,18.215,0,0,1,3.047.34l10.146,3.881a18.08,18.08,0,0,0-3.047-.34" transform="translate(-503.377 -584.609)"/></g></g></g><g class="e" transform="translate(32.838 8.443)"><g class="ai"><g class="e" transform="translate(0 0)"><path class="j" d="M512.29,587.543l-10.146-3.881a17.257,17.257,0,0,1,2.538-.125l10.146,3.881a17.274,17.274,0,0,0-2.538.125" transform="translate(-502.144 -583.532)"/><path class="i" d="M516.451,587.421,506.3,583.54a18.639,18.639,0,0,1,3.147.354l10.146,3.881a18.644,18.644,0,0,0-3.147-.354" transform="translate(-503.767 -583.535)"/></g></g></g><g class="e" transform="translate(19.476 22.483)"><g class="aj"><g class="e" transform="translate(0 0)"><path class="o" d="M496.572,646.435l-10.146-3.881a9.287,9.287,0,0,1-5.608-6.388,15.213,15.213,0,0,1-.453-6.153l10.146,3.881a15.214,15.214,0,0,0,.453,6.153,9.287,9.287,0,0,0,5.608,6.388" transform="translate(-480.241 -615.698)"/><path class="ak" d="M490.591,632.457l-10.146-3.881a18.165,18.165,0,0,1,.419-2.248l10.146,3.881a18.155,18.155,0,0,0-.419,2.248" transform="translate(-480.32 -614.261)"/><path class="al" d="M491.278,628.993l-10.146-3.881a19.544,19.544,0,0,1,.584-1.9l10.146,3.881a19.548,19.548,0,0,0-.584,1.9" transform="translate(-480.588 -613.045)"/><path class="am" d="M492.235,625.984,482.089,622.1q.078-.214.161-.427.26-.666.563-1.3l10.146,3.881q-.3.638-.563,1.3-.083.213-.161.427" transform="translate(-480.961 -611.938)"/><path class="an" d="M493.422,623.212l-10.146-3.881q.4-.843.869-1.628l10.146,3.881q-.468.783-.869,1.628" transform="translate(-481.424 -610.897)"/><path class="h" d="M494.846,620.585,484.7,616.7a18.184,18.184,0,0,1,1.043-1.562l10.146,3.881a18.354,18.354,0,0,0-1.043,1.562" transform="translate(-481.98 -609.899)"/><path class="i" d="M496.555,618.021l-10.146-3.881a16.654,16.654,0,0,1,1.323-1.568l10.146,3.881a16.645,16.645,0,0,0-1.323,1.568" transform="translate(-482.646 -608.897)"/><path class="j" d="M498.723,615.3l-10.146-3.881a13.977,13.977,0,0,1,2.088-1.8L500.81,613.5a13.977,13.977,0,0,0-2.088,1.8" transform="translate(-483.491 -607.745)"/><path class="k" d="M502.145,612.471,492,608.59q.363-.254.736-.475a10.033,10.033,0,0,1,2.752-1.135l10.146,3.881A10.049,10.049,0,0,0,502.881,612q-.372.221-.736.475" transform="translate(-484.826 -606.716)"/><path class="j" d="M507.863,610.693l-10.146-3.881q.461-.112.907-.174a9.419,9.419,0,0,1,1.539-.088l10.146,3.881a9.359,9.359,0,0,0-1.539.088c-.3.042-.6.1-.907.174" transform="translate(-487.056 -606.547)"/><path class="i" d="M511.872,610.433l-10.146-3.881a9.9,9.9,0,0,1,1.856.224l10.146,3.881a9.9,9.9,0,0,0-1.856-.224" transform="translate(-488.619 -606.549)"/><path class="h" d="M514.914,610.8l-10.146-3.881a10.6,10.6,0,0,1,1.546.462l10.146,3.881a10.676,10.676,0,0,0-1.547-.461" transform="translate(-489.805 -606.693)"/></g></g></g><g transform="translate(29.622 26.364)"><path class="ao" d="M515.063,614.424l.123.078-1.259,23.225-.132.113-.14.119a10.15,10.15,0,0,1-1.548,1.078,10.919,10.919,0,0,1-3.82,1.269c-4.244.6-9.117-1.133-10.837-6.93a17.963,17.963,0,0,1,7.332-19.07A9.837,9.837,0,0,1,508.44,613a10.252,10.252,0,0,1,6.552,1.38Zm-1.655,23.018,1.224-22.5a9.821,9.821,0,0,0-6.214-1.294,9.3,9.3,0,0,0-3.472,1.242,17.151,17.151,0,0,0-6.987,18.182c1.641,5.523,6.292,7.171,10.34,6.6a10.459,10.459,0,0,0,3.653-1.212,9.675,9.675,0,0,0,1.456-1.016" transform="translate(-496.872 -612.909)"/></g><g transform="translate(10.947 52.178)"><path class="p" d="M476.481,659.257l-10.146-3.881-.075-.153,10.146,3.881Z" transform="translate(-466.26 -655.223)"/></g><g transform="translate(6.654 63.359)"><path class="p" d="M478.4,685.075l-10.146-3.881-9.029-7.642,10.146,3.881Z" transform="translate(-459.223 -673.552)"/></g><g transform="translate(6.295 63.911)"><path class="q" d="M477.809,685.979,467.664,682.1l-9.029-7.642,10.146,3.881Z" transform="translate(-458.634 -674.455)"/></g><g transform="translate(6.448 52.331)"><path class="ap" d="M469.031,668.524l-10.146-3.881,4.574-9.169,10.146,3.881Z" transform="translate(-458.886 -655.474)"/></g><g class="e" transform="translate(6.258 61.501)"><g class="aq"><g class="e" transform="translate(0)"><path class="m" d="M469.116,676.624l-10.146-3.88a1.476,1.476,0,0,1-.382-1.265l10.146,3.881a1.474,1.474,0,0,0,.382,1.264" transform="translate(-458.574 -670.885)"/><path class="ar" d="M468.743,675.212,458.6,671.33a1.9,1.9,0,0,1,.043-.232l10.146,3.88a1.928,1.928,0,0,0-.043.233" transform="translate(-458.583 -670.736)"/><path class="as" d="M468.814,674.864l-10.146-3.88a1.647,1.647,0,0,1,.054-.179l10.146,3.88a1.718,1.718,0,0,0-.054.179" transform="translate(-458.611 -670.622)"/><path class="at" d="M468.9,674.587l-10.146-3.88c.019-.052.04-.1.063-.153l10.146,3.881c-.023.05-.044.1-.063.152" transform="translate(-458.646 -670.524)"/><path class="au" d="M469.007,674.416l-10.146-3.881.015-.03,10.146,3.88-.015.031" transform="translate(-458.686 -670.505)"/></g></g></g><g transform="translate(6.002 52.424)"><path class="av" d="M468.3,668.325l-10.146-3.881,4.4-8.817,10.146,3.881Z" transform="translate(-458.155 -655.627)"/></g><g class="e" transform="translate(5.721 61.241)"><g class="aw"><g class="e" transform="translate(0)"><path class="o" d="M468.413,677.189l-10.146-3.881a2.078,2.078,0,0,1-.555-1.795l10.146,3.881a2.08,2.08,0,0,0,.555,1.795" transform="translate(-457.693 -670.639)"/><path class="ak" d="M467.871,675.182,457.725,671.3a2.751,2.751,0,0,1,.061-.332l10.146,3.881a2.758,2.758,0,0,0-.061.332" transform="translate(-457.705 -670.427)"/><path class="al" d="M467.971,674.682,457.825,670.8q.034-.133.081-.263l10.146,3.881c-.031.087-.058.174-.081.263" transform="translate(-457.744 -670.259)"/><path class="am" d="M468.1,674.273l-10.146-3.881c.028-.077.06-.153.1-.228l10.146,3.881a2.382,2.382,0,0,0-.1.228" transform="translate(-457.796 -670.113)"/><path class="an" d="M468.26,674.012l-10.146-3.881.025-.051,10.146,3.881-.025.051" transform="translate(-457.857 -670.08)"/></g></g></g><g transform="translate(28.825 1.249)"><path class="q" d="M509.534,583.615l-10.146-3.881-3.823-7.995,10.146,3.881Z" transform="translate(-495.566 -571.739)"/></g><g class="e" transform="translate(28.266 0.705)"><g class="ax"><g class="e"><path class="o" d="M505.354,575.273l-10.146-3.881a1.047,1.047,0,0,0-.559-.544l10.146,3.881a1.045,1.045,0,0,1,.559.544" transform="translate(-494.65 -570.848)"/></g></g></g><g class="e" transform="translate(27.791 0.645)"><g class="ay"><g class="e" transform="translate(0 0)"><path class="y" d="M504.017,574.64l-10.146-3.881a1.016,1.016,0,0,1,.166-.01l10.146,3.881a1.021,1.021,0,0,0-.166.01" transform="translate(-493.871 -570.749)"/><path class="x" d="M504.289,574.63l-10.146-3.881a.935.935,0,0,1,.176.021l10.146,3.88a.987.987,0,0,0-.176-.021" transform="translate(-493.977 -570.749)"/><path class="w" d="M504.578,574.664l-10.146-3.88a.906.906,0,0,1,.133.039l10.146,3.881a.924.924,0,0,0-.133-.04" transform="translate(-494.09 -570.762)"/></g></g></g><g class="e" transform="translate(27.308 0.655)"><g class="az"><g class="e"><path class="z" d="M503.225,574.84l-10.146-3.881a1.316,1.316,0,0,1,.375-.159l10.146,3.881a1.333,1.333,0,0,0-.375.159" transform="translate(-493.079 -570.779)"/><path class="y" d="M503.84,574.667l-10.146-3.881a1.016,1.016,0,0,1,.108-.021l10.146,3.88c-.035.005-.071.012-.108.021" transform="translate(-493.319 -570.766)"/></g></g></g><g class="e" transform="translate(27.14)"><g class="ba"><g class="e" transform="translate(0 0)"><path class="k" d="M502.949,573.864,492.8,569.982a1.839,1.839,0,0,1,.518-.218l10.146,3.881a1.831,1.831,0,0,0-.518.218" transform="translate(-492.803 -569.72)"/><path class="j" d="M503.8,573.617l-10.146-3.881q.078-.018.154-.029a1.392,1.392,0,0,1,.24-.014l10.146,3.88a1.456,1.456,0,0,0-.24.015,1.43,1.43,0,0,0-.154.029" transform="translate(-493.134 -569.692)"/><path class="i" d="M504.444,573.573l-10.146-3.88a1.336,1.336,0,0,1,.257.031L504.7,573.6a1.441,1.441,0,0,0-.258-.031" transform="translate(-493.386 -569.692)"/><path class="h" d="M504.866,573.623l-10.146-3.88a1.28,1.28,0,0,1,.2.058l10.146,3.881a1.436,1.436,0,0,0-.2-.058" transform="translate(-493.551 -569.712)"/></g></g></g><g class="e" transform="translate(9.161 45.927)"><g class="bb"><g class="e"><path class="m" d="M475.264,655.109l-10.146-3.881a19.83,19.83,0,0,1-1.129-2.984,22.259,22.259,0,0,1-.656-3.267l10.146,3.881a22.259,22.259,0,0,0,.656,3.267,19.851,19.851,0,0,0,1.129,2.984" transform="translate(-463.333 -644.977)"/></g></g></g><g transform="translate(9.135 45.747)"><path class="bc" d="M473.462,648.743l-10.146-3.881-.026-.181,10.146,3.881Z" transform="translate(-463.291 -644.681)"/></g><g class="e" transform="translate(8.657 46.325)"><g class="bd"><g class="e"><path class="o" d="M474.392,655.609l-10.146-3.88a21.716,21.716,0,0,1-1.088-2.916,22.483,22.483,0,0,1-.652-3.183l10.146,3.881a22.483,22.483,0,0,0,.652,3.183,21.691,21.691,0,0,0,1.088,2.915" transform="translate(-462.506 -645.629)"/></g></g></g><g class="e" transform="translate(12.462 19.277)"><g class="be"><g class="e" transform="translate(0 -0.126)"><path class="au" d="M478.889,613.536l-10.146-3.881q.677-1.322,1.369-2.481l10.146,3.881q-.693,1.161-1.369,2.481" transform="translate(-468.743 -603.459)"/><path class="w" d="M481.133,609.255l-10.146-3.881a32.967,32.967,0,0,1,1.871-2.816L483,606.439a32.97,32.97,0,0,0-1.871,2.816" transform="translate(-469.618 -601.659)"/><path class="x" d="M484.2,605.865l-10.146-3.881q.346-.464.7-.9l10.146,3.881q-.352.435-.7.9" transform="translate(-470.814 -601.085)"/></g></g></g><g class="e" transform="translate(12.19 18.885)"><g class="bf"><g class="e"><path class="an" d="M478.443,612.753,468.3,608.872q.585-1.128,1.205-2.168l10.146,3.881q-.619,1.039-1.205,2.168" transform="translate(-468.297 -603.01)"/><path class="h" d="M480.419,608.711l-10.146-3.881a34.522,34.522,0,0,1,1.95-2.931l10.146,3.881a34.429,34.429,0,0,0-1.95,2.931" transform="translate(-469.068 -601.136)"/><path class="i" d="M483.615,605.293l-10.146-3.881q.292-.392.588-.763l10.146,3.88q-.3.372-.588.763" transform="translate(-470.314 -600.649)"/></g></g></g><g transform="translate(15.852 0.834)"><path class="bg" d="M484.445,581.93,474.3,578.048l11.456-6.989,10.146,3.881Z" transform="translate(-474.3 -571.06)"/></g><g transform="translate(15.036 9.662)"><path class="bc" d="M484.473,598.9l-10.146-3.881-1.364-9.49,10.146,3.881Z" transform="translate(-472.963 -585.53)"/></g><g transform="translate(15.679 0.262)"><path class="bh" d="M484.162,580.992l-10.146-3.881,11.461-6.989L495.623,574Z" transform="translate(-474.016 -570.122)"/></g><g class="e" transform="translate(15.017 7.823)"><g class="bi"><g class="e" transform="translate(0)"><path class="m" d="M483.1,589.087l-10.146-3.881a1.955,1.955,0,0,1,0-.506l10.146,3.881a1.955,1.955,0,0,0,0,.506" transform="translate(-472.932 -583.368)"/><path class="ar" d="M483.1,588.426l-10.146-3.881A1.905,1.905,0,0,1,473,584.3l10.146,3.881a1.883,1.883,0,0,0-.045.242" transform="translate(-472.941 -583.213)"/><path class="as" d="M483.175,588.063l-10.146-3.881c.016-.064.035-.128.057-.189l10.146,3.881a1.83,1.83,0,0,0-.058.189" transform="translate(-472.97 -583.092)"/><path class="at" d="M483.269,587.768l-10.146-3.881c.021-.057.044-.112.07-.166l10.146,3.88c-.026.054-.049.11-.069.167" transform="translate(-473.006 -582.986)"/><path class="au" d="M483.383,587.5l-10.146-3.88c.026-.054.053-.106.083-.156l10.146,3.881c-.03.05-.057.1-.083.155" transform="translate(-473.051 -582.886)"/><path class="w" d="M483.519,587.249l-10.146-3.881a1.722,1.722,0,0,1,.1-.154l10.146,3.881a1.655,1.655,0,0,0-.1.154" transform="translate(-473.104 -582.788)"/><path class="x" d="M483.688,586.991l-10.146-3.881a1.675,1.675,0,0,1,.138-.164l10.146,3.881a1.683,1.683,0,0,0-.138.164" transform="translate(-473.17 -582.684)"/><path class="y" d="M483.914,586.691l-10.146-3.881a1.613,1.613,0,0,1,.248-.212l10.146,3.881a1.646,1.646,0,0,0-.248.212" transform="translate(-473.258 -582.548)"/><path class="z" d="M484.32,586.447l-10.146-3.881c.025-.018.051-.034.077-.05L484.4,586.4c-.026.016-.052.033-.077.051" transform="translate(-473.416 -582.516)"/></g></g></g><g transform="translate(14.505 9.884)"><path class="o" d="M483.666,598.776,473.52,594.9l-1.427-9,10.146,3.881Z" transform="translate(-472.093 -585.894)"/></g><g transform="translate(1.345 44.105)"><path class="bj" d="M460.665,645.87l-10.146-3.881,7.791,1.642,10.146,3.881Z" transform="translate(-450.519 -641.989)"/></g><g class="e" transform="translate(1.162 44.058)"><g class="bk"><g class="e"><path class="h" d="M460.366,645.793l-10.146-3.881a.808.808,0,0,0,.122.037l10.146,3.881a.738.738,0,0,1-.122-.036" transform="translate(-450.22 -641.912)"/><path class="i" d="M460.566,645.852l-10.146-3.88c.02,0,.04.008.06.01l10.146,3.881c-.021,0-.041-.006-.061-.011" transform="translate(-450.298 -641.935)"/></g></g></g><g class="e" transform="translate(14.481 7.252)"><g class="bl"><g class="e" transform="translate(0)"><path class="o" d="M482.223,589.328l-10.146-3.881a2.77,2.77,0,0,1,0-.7l10.146,3.88a2.775,2.775,0,0,0,0,.7" transform="translate(-472.053 -582.814)"/><path class="ak" d="M482.232,588.4l-10.146-3.88a2.958,2.958,0,0,1,.065-.352l10.146,3.881a2.947,2.947,0,0,0-.065.351" transform="translate(-472.066 -582.589)"/><path class="al" d="M482.339,587.873l-10.146-3.881a2.725,2.725,0,0,1,.085-.278l10.146,3.881a2.883,2.883,0,0,0-.085.278" transform="translate(-472.108 -582.412)"/><path class="am" d="M482.479,587.438l-10.146-3.881c.03-.084.064-.165.1-.245l10.146,3.881c-.038.08-.072.162-.1.245" transform="translate(-472.162 -582.255)"/><path class="an" d="M482.646,587.047,472.5,583.166c.038-.079.078-.155.123-.229l10.146,3.88c-.045.074-.085.151-.123.229" transform="translate(-472.227 -582.109)"/><path class="h" d="M482.847,586.674l-10.146-3.88a2.575,2.575,0,0,1,.15-.225L483,586.449a2.68,2.68,0,0,0-.15.224" transform="translate(-472.306 -581.965)"/><path class="i" d="M483.093,586.3l-10.146-3.881a2.45,2.45,0,0,1,.2-.235l10.146,3.881a2.464,2.464,0,0,0-.2.235" transform="translate(-472.402 -581.814)"/><path class="j" d="M483.419,585.871l-10.146-3.881a2.338,2.338,0,0,1,.35-.3l10.146,3.881a2.338,2.338,0,0,0-.35.3" transform="translate(-472.529 -581.622)"/><path class="k" d="M483.992,585.528l-10.146-3.881c.034-.024.069-.046.1-.068L484.1,585.46c-.035.021-.07.044-.1.068" transform="translate(-472.752 -581.579)"/></g></g></g><g class="e" transform="translate(0.538 42.606)"><g class="bm"><g class="e" transform="translate(0)"><path class="m" d="M459.967,644.925l-10.146-3.881a1.207,1.207,0,0,1-.609-1.358l10.146,3.881a1.207,1.207,0,0,0,.609,1.358" transform="translate(-449.198 -639.592)"/><path class="ar" d="M459.368,643.507l-10.146-3.881c0-.031.008-.062.013-.094l10.146,3.881c-.005.032-.01.063-.013.094" transform="translate(-449.207 -639.532)"/></g></g></g><g class="e" transform="translate(0 42.596)"><g class="bn"><g class="e" transform="translate(0)"><path class="o" d="M459.372,645.56l-10.146-3.881a1.751,1.751,0,0,1-.889-1.965l10.146,3.881a1.751,1.751,0,0,0,.889,1.965" transform="translate(-448.315 -639.593)"/><path class="ak" d="M458.5,643.518l-10.146-3.881c0-.04.01-.081.017-.121l10.146,3.881c-.006.04-.012.081-.017.121" transform="translate(-448.329 -639.516)"/></g></g></g><g transform="translate(4.223 25.347)"><path class="bo" d="M465.384,616.275l-10.146-3.881,8.238-1.153,10.146,3.881Z" transform="translate(-455.238 -611.241)"/></g><g transform="translate(4.246 24.747)"><path class="ab" d="M465.422,615.245l-10.146-3.881,7.943-1.106,10.146,3.881Z" transform="translate(-455.276 -610.258)"/></g><g transform="translate(0.566 27.99)"><path class="at" d="M459.39,634.071l-10.146-3.881,2.4-14.616,10.146,3.881Z" transform="translate(-449.244 -615.574)"/></g><g class="e" transform="translate(2.961 26.5)"><g class="bp"><g class="e"><path class="ar" d="M463.316,619.318l-10.146-3.88a2.009,2.009,0,0,1,.042-.214l10.146,3.881a1.883,1.883,0,0,0-.042.214" transform="translate(-453.17 -613.947)"/><path class="as" d="M463.385,618.979,453.239,615.1a2.033,2.033,0,0,1,.06-.2l10.146,3.881a2.043,2.043,0,0,0-.06.2" transform="translate(-453.197 -613.821)"/><path class="at" d="M463.484,618.672l-10.146-3.881a1.858,1.858,0,0,1,.072-.173l10.146,3.881a1.8,1.8,0,0,0-.072.173" transform="translate(-453.236 -613.711)"/><path class="au" d="M463.6,618.4l-10.146-3.881c.026-.055.055-.109.085-.16l10.146,3.881c-.03.052-.059.1-.085.16" transform="translate(-453.282 -613.608)"/><path class="w" d="M463.742,618.136,453.6,614.255a1.837,1.837,0,0,1,.1-.157l10.146,3.881a1.851,1.851,0,0,0-.1.157" transform="translate(-453.336 -613.508)"/><path class="x" d="M463.914,617.874l-10.146-3.881a1.8,1.8,0,0,1,.138-.164l10.146,3.881a1.81,1.81,0,0,0-.138.164" transform="translate(-453.403 -613.403)"/><path class="y" d="M464.141,617.579,453.995,613.7a1.609,1.609,0,0,1,.239-.2l10.146,3.881a1.612,1.612,0,0,0-.239.2" transform="translate(-453.492 -613.272)"/><path class="z" d="M464.532,617.243l-10.146-3.881a1.34,1.34,0,0,1,.447-.206l10.146,3.881a1.34,1.34,0,0,0-.447.206" transform="translate(-453.644 -613.141)"/><path class="y" d="M465.265,617.027l-10.146-3.881.073-.015,10.146,3.881-.073.015" transform="translate(-453.93 -613.131)"/></g></g></g><g transform="translate(10.684 4.526)"><path class="bq" d="M493.082,577.121a.973.973,0,0,1,1.034.594l3.669,8.011a17.627,17.627,0,0,1,5.858.184l.085-.32-.841,14.831a10.257,10.257,0,0,0-6.552-1.38,9.837,9.837,0,0,0-3.659,1.308,17.963,17.963,0,0,0-7.332,19.07c1.72,5.8,6.593,7.526,10.838,6.93A10.92,10.92,0,0,0,500,625.078,10.15,10.15,0,0,0,501.55,624l-1.384,24.4-.082-.279a1.221,1.221,0,0,1-.467.174,1.021,1.021,0,0,1-1.05-.583L494.9,639.7a17.645,17.645,0,0,1-5.858-.184l-6.418,7.667a1.583,1.583,0,0,1-.9.517.9.9,0,0,1-.751-.233l-9.029-7.643a1.644,1.644,0,0,1-.206-1.859l4.574-9.169-.076-.153a19.854,19.854,0,0,1-1.129-2.984,22.258,22.258,0,0,1-.656-3.267l-.026-.181-7.791-1.642c-.577-.082-.909-.711-.778-1.5l2.4-14.616a1.7,1.7,0,0,1,1.261-1.49l8.239-1.153a35.276,35.276,0,0,1,3.938-6.2l-1.364-9.489a1.861,1.861,0,0,1,.816-1.839L492.6,577.3A1.283,1.283,0,0,1,493.082,577.121Z" transform="translate(-465.829 -577.111)"/></g><g transform="translate(0.038 27.98)"><path class="am" d="M458.524,634.054l-10.146-3.881,2.4-14.616,10.146,3.881Z" transform="translate(-448.378 -615.557)"/></g><g transform="translate(10.146 3.881)"><path class="ao" d="M499.74,647.713l.082.279.086.293a1.772,1.772,0,0,1-.672.247,1.439,1.439,0,0,1-1.484-.825l-3.543-7.734a17.581,17.581,0,0,1-5.542-.2l-6.061,7.433a2.161,2.161,0,0,1-1.254.724,1.306,1.306,0,0,1-1.081-.322l-9.03-7.643a2.322,2.322,0,0,1-.292-2.669l4.395-8.818a21.68,21.68,0,0,1-1.088-2.915,22.483,22.483,0,0,1-.652-3.183l-7.479-1.575c-.838-.12-1.321-1.027-1.14-2.155l2.4-14.616a2.477,2.477,0,0,1,1.812-2.127l7.943-1.106a35.978,35.978,0,0,1,3.743-5.863l-1.428-9a2.708,2.708,0,0,1,1.173-2.632l11.461-6.989a1.772,1.772,0,0,1,.672-.248,1.407,1.407,0,0,1,1.492.84l3.535,7.718a17.752,17.752,0,0,1,5.685.229l-.086.321-.085.32a17.286,17.286,0,0,0-5.7-.2l-3.823-7.994a.973.973,0,0,0-1.034-.594,1.282,1.282,0,0,0-.483.18L480.8,583.877a1.861,1.861,0,0,0-.816,1.839l1.481,9.347a34.843,34.843,0,0,0-3.968,6.174l-8.325,1.318a1.7,1.7,0,0,0-1.262,1.49l-2.4,14.616c-.131.788.2,1.417.778,1.5l7.791,1.642a23.334,23.334,0,0,0,.682,3.448,19.857,19.857,0,0,0,1.129,2.984l.076.153-4.574,9.169a1.642,1.642,0,0,0,.206,1.859l9.029,7.643a.9.9,0,0,0,.751.233,1.584,1.584,0,0,0,.9-.517l6.275-7.695a17.731,17.731,0,0,0,5.847.233l3.823,7.994a1.022,1.022,0,0,0,1.05.583A1.22,1.22,0,0,0,499.74,647.713Z" transform="translate(-464.947 -576.054)"/></g><g class="e" transform="translate(2.434 25.853)"><g class="br"><g class="e"><path class="ak" d="M462.451,619.262,452.3,615.381a2.6,2.6,0,0,1,.055-.276l10.146,3.881a2.757,2.757,0,0,0-.055.276" transform="translate(-452.305 -613.254)"/><path class="al" d="M462.541,618.808l-10.146-3.881a2.885,2.885,0,0,1,.085-.279l10.146,3.881a2.886,2.886,0,0,0-.085.279" transform="translate(-452.34 -613.076)"/><path class="am" d="M462.681,618.37l-10.146-3.881c.031-.085.065-.168.1-.249l10.146,3.881c-.038.081-.073.164-.1.249" transform="translate(-452.395 -612.917)"/><path class="an" d="M462.851,617.971,452.7,614.09q.058-.121.125-.234l10.146,3.88c-.045.076-.087.154-.125.235" transform="translate(-452.461 -612.767)"/><path class="h" d="M463.056,617.588l-10.146-3.88a2.59,2.59,0,0,1,.156-.232l10.146,3.881a2.655,2.655,0,0,0-.156.232" transform="translate(-452.541 -612.618)"/><path class="i" d="M463.311,617.2l-10.146-3.881a2.534,2.534,0,0,1,.2-.242l10.146,3.881a2.461,2.461,0,0,0-.2.242" transform="translate(-452.64 -612.464)"/><path class="j" d="M463.646,616.766,453.5,612.885a2.294,2.294,0,0,1,.351-.3L464,616.464a2.3,2.3,0,0,0-.351.3" transform="translate(-452.771 -612.271)"/><path class="k" d="M464.221,616.278,454.075,612.4a1.912,1.912,0,0,1,.631-.291l10.146,3.881a1.913,1.913,0,0,0-.631.291" transform="translate(-452.995 -612.085)"/><path class="j" d="M465.256,615.973l-10.146-3.881c.034-.008.067-.015.1-.021l10.146,3.881c-.034.006-.068.013-.1.021" transform="translate(-453.399 -612.071)"/></g></g></g></g></g></g><path class="a" d="M774.07,984.059h58.091v58.091H774.07Z" transform="translate(-275.409 -352.716)"/><g transform="translate(457.086 289.618)"><g class="e"><g transform="translate(46.462 41.171)"><path class="bs" d="M792.226,495.6l-10.146-3.881.255-.327,10.146,3.881Z" transform="translate(-782.08 -491.387)"/></g><g transform="translate(33.767 27.105)"><path class="q" d="M784.111,486.6l-10.146-3.881-12.695-14.394,10.146,3.881Z" transform="translate(-761.271 -468.329)"/></g><g transform="translate(33.767 26.844)"><path class="h" d="M771.417,472.043l-10.146-3.881.1-.261,10.146,3.881Z" transform="translate(-761.271 -467.901)"/></g><g transform="translate(23.416 39.971)"><path class="p" d="M776.387,518.175l-10.146-3.881L744.3,489.419l10.146,3.881Z" transform="translate(-744.303 -489.419)"/></g><g transform="translate(23.201 40.955)"><path class="q" d="M775.965,519.708l-10.146-3.881-21.868-24.795,10.146,3.881Z" transform="translate(-743.951 -491.033)"/></g><g transform="translate(23.204 39.971)"><path class="bh" d="M754.1,493.43l-10.146-3.881.212-.13,10.146,3.881Z" transform="translate(-743.956 -489.419)"/></g><g class="e" transform="translate(25.777 1.692)"><g class="bt"><g class="e"><path class="al" d="M771.574,470.2l-10.146-3.881q.438-1.228.75-2.47l10.146,3.881q-.311,1.24-.75,2.47" transform="translate(-753.342 -441.17)"/><path class="ak" d="M772.8,465.682,762.657,461.8a26.015,26.015,0,0,0,.6-3.209l10.146,3.881a26.015,26.015,0,0,1-.6,3.209" transform="translate(-753.821 -439.118)"/><path class="o" d="M767.752,450.025l-10.146-3.881c.732-6.044-.758-11.885-4.243-15.833a13.158,13.158,0,0,0-5.19-3.64l10.146,3.881a13.165,13.165,0,0,1,5.19,3.64c3.486,3.948,4.976,9.789,4.244,15.833" transform="translate(-748.173 -426.671)"/></g></g></g><g class="e" transform="translate(10.473 40.101)"><g class="bu"><g class="e"><path class="h" d="M733.233,495.986,723.087,492.1a12.828,12.828,0,0,0,1.87.556l10.146,3.881a12.829,12.829,0,0,1-1.87-.556" transform="translate(-723.087 -490.596)"/><path class="i" d="M736.3,496.9l-10.146-3.881a13.107,13.107,0,0,0,2.464.292l10.146,3.881a13.154,13.154,0,0,1-2.464-.292" transform="translate(-724.282 -490.952)"/><path class="j" d="M740.337,497.115l-10.146-3.881a13.934,13.934,0,0,0,2.277-.134q.72-.1,1.443-.277l10.146,3.881q-.723.176-1.443.277a13.937,13.937,0,0,1-2.277.134" transform="translate(-725.857 -490.876)"/><path class="k" d="M746.435,495.46l-10.146-3.881a16.929,16.929,0,0,0,4.677-1.947l10.146,3.881a16.932,16.932,0,0,1-4.677,1.947" transform="translate(-728.235 -489.632)"/></g></g></g><g transform="translate(13.751 15.906)"><path class="bs" d="M738.606,465.423l-10.146-3.881,9.1-11.571,10.146,3.881Z" transform="translate(-728.46 -449.971)"/></g><g transform="translate(13.799 16.041)"><path class="ab" d="M738.685,464.354l-10.146-3.881,8.084-10.28,10.146,3.881Z" transform="translate(-728.539 -450.193)"/></g><g class="e" transform="translate(18.975 0.826)"><g class="bv"><g class="e" transform="translate(0 0)"><path class="y" d="M747.17,429.277,737.024,425.4a14.524,14.524,0,0,1,2.379-.14l10.146,3.881a14.585,14.585,0,0,0-2.379.14" transform="translate(-737.024 -425.252)"/><path class="x" d="M751.07,429.14l-10.146-3.881a13.491,13.491,0,0,1,2.533.3L753.6,429.44a13.491,13.491,0,0,0-2.533-.3" transform="translate(-738.545 -425.255)"/><path class="w" d="M755.222,429.631l-10.146-3.881a13.007,13.007,0,0,1,1.889.562l10.146,3.881a13.056,13.056,0,0,0-1.889-.561" transform="translate(-740.164 -425.446)"/></g></g></g><g class="e" transform="translate(19.016)"><g class="bw"><g class="e" transform="translate(0 0)"><path class="j" d="M747.237,427.929l-10.146-3.881a15.134,15.134,0,0,1,2.473-.146l10.146,3.881a15.133,15.133,0,0,0-2.473.146" transform="translate(-737.091 -423.898)"/><path class="i" d="M751.291,427.786,741.145,423.9a14.1,14.1,0,0,1,2.634.312l10.146,3.881a14.048,14.048,0,0,0-2.634-.312" transform="translate(-738.672 -423.901)"/><path class="h" d="M755.608,428.3l-10.146-3.881a13.532,13.532,0,0,1,1.964.584l10.146,3.881a13.457,13.457,0,0,0-1.964-.584" transform="translate(-740.355 -424.1)"/></g></g></g><g class="e" transform="translate(12.018 0.97)"><g class="bx"><g class="e"><path class="z" d="M735.765,432.209l-10.146-3.88a18.1,18.1,0,0,1,5.435-2.36l10.146,3.881a18.117,18.117,0,0,0-5.435,2.36" transform="translate(-725.619 -425.676)"/><path class="y" d="M744.675,429.662l-10.146-3.881q.762-.186,1.522-.292l10.146,3.88q-.759.107-1.522.293" transform="translate(-729.093 -425.489)"/></g></g></g><g transform="translate(12.018 3.623)"><path class="p" d="M746.593,446l-10.146-3.881-10.828-12.283,10.146,3.881Z" transform="translate(-725.619 -429.837)"/></g><g class="e" transform="translate(11.308 0.15)"><g class="by"><g class="e"><path class="k" d="M734.6,431.29l-10.146-3.881a19.023,19.023,0,0,1,6.13-2.769l10.146,3.881a19.01,19.01,0,0,0-6.13,2.769" transform="translate(-724.456 -424.337)"/><path class="j" d="M744.65,428.328,734.5,424.447q.791-.192,1.578-.3l10.146,3.881q-.786.111-1.578.3" transform="translate(-728.374 -424.144)"/></g></g></g><g transform="translate(10.852 3.528)"><path class="q" d="M744.885,446.076l-10.146-3.881-11.031-12.513,10.146,3.881Z" transform="translate(-723.708 -429.682)"/></g><g transform="translate(10.852 3.221)"><path class="bz" d="M733.854,433.367l-10.146-3.881.456-.307,10.146,3.881Z" transform="translate(-723.708 -429.179)"/></g><g transform="translate(2.637 15.218)"><path class="q" d="M731.5,464.984,721.356,461.1l-11.114-12.259,10.146,3.881Z" transform="translate(-710.243 -448.844)"/></g><g class="e" transform="translate(0.682 15.218)"><g class="ca"><g class="e" transform="translate(0)"><path class="m" d="M726.974,483.447l-10.146-3.881a13.537,13.537,0,0,1-5.318-3.744c-3.533-4-5.02-9.863-4.294-15.872l10.146,3.881c-.727,6.01.761,11.87,4.294,15.872a13.533,13.533,0,0,0,5.318,3.744" transform="translate(-707.037 -453.175)"/><path class="ar" d="M717.477,461.8l-10.146-3.88a25.729,25.729,0,0,1,.591-3.179l10.146,3.881a25.722,25.722,0,0,0-.591,3.178" transform="translate(-707.151 -451.143)"/><path class="as" d="M718.445,456.983,708.3,453.1a26.03,26.03,0,0,1,.785-2.562l10.146,3.881a26.042,26.042,0,0,0-.785,2.562" transform="translate(-707.529 -449.505)"/><path class="at" d="M719.732,453.76l-10.146-3.881q.189-.52.4-1.035l10.146,3.881q-.212.515-.4,1.035" transform="translate(-708.031 -448.844)"/></g></g></g><g transform="translate(10.828 4.707)"><path class="bq" d="M741.962,431.758a13.17,13.17,0,0,1,11.991,4.361c4.577,5.184,5.712,13.629,2.9,21.513l-.1.261,12.695,14.393.256-.327-1.362,23.674L746.4,470.759l-.212.13a16.393,16.393,0,0,1-6.121,2.224,13.142,13.142,0,0,1-11.929-4.459c-4.866-5.512-5.85-14.548-2.517-22.647l11.113,12.259,9.1-11.571L735,434.41A17.549,17.549,0,0,1,741.962,431.758Z" transform="translate(-723.668 -431.614)"/></g><g transform="translate(2.276 13.865)"><path class="i" d="M719.8,451.041,709.65,447.16l.231-.533,10.146,3.881Z" transform="translate(-709.65 -446.627)"/></g><g class="e" transform="translate(0 14.399)"><g class="cb"><g class="e" transform="translate(0)"><path class="o" d="M726.231,484.253l-10.146-3.881a14.062,14.062,0,0,1-5.524-3.887c-3.67-4.161-5.212-10.254-4.455-16.506l10.146,3.881c-.757,6.251.784,12.345,4.455,16.506a14.069,14.069,0,0,0,5.524,3.887" transform="translate(-705.919 -452.367)"/><path class="ak" d="M716.373,461.754l-10.146-3.881a26.832,26.832,0,0,1,.612-3.295l10.146,3.881a26.812,26.812,0,0,0-.612,3.295" transform="translate(-706.039 -450.261)"/><path class="al" d="M717.376,456.748l-10.146-3.881a27.4,27.4,0,0,1,.82-2.676l10.146,3.881a27.337,27.337,0,0,0-.82,2.676" transform="translate(-706.43 -448.55)"/><path class="am" d="M718.72,453.023l-10.146-3.881q.3-.826.656-1.641l10.146,3.881q-.357.814-.656,1.641" transform="translate(-706.954 -447.501)"/></g></g></g><g transform="translate(10.146 3.881)"><path class="ao" d="M741.567,430.41a13.694,13.694,0,0,1,12.463,4.529c4.7,5.335,5.9,13.987,3.094,22.112l12.4,14.055-.253.325-.256.327-12.695-14.393.1-.261c2.816-7.884,1.68-16.329-2.9-21.513a13.17,13.17,0,0,0-11.991-4.361,17.549,17.549,0,0,0-6.958,2.652L745.4,446.166l-9.1,11.571-11.113-12.259c-3.333,8.1-2.349,17.135,2.517,22.647a13.142,13.142,0,0,0,11.929,4.459,16.392,16.392,0,0,0,6.121-2.224l.212-.13,21.939,24.875.223.253-.508.652-21.868-24.794a16.976,16.976,0,0,1-6.161,2.192,13.662,13.662,0,0,1-12.4-4.63c-5.168-5.859-6.116-15.55-2.366-24.118l.231-.534,11.292,12.455,8.084-10.279L733.4,433.788l.456-.306A18.4,18.4,0,0,1,741.567,430.41Z" transform="translate(-722.55 -430.26)"/></g></g></g><g transform="translate(289.703 224.491)"><g transform="translate(0 0)"><g class="e"><g transform="translate(101.916 2.448)"><path class="cc" d="M605.884,324.247l-7.279-2.784.129-.308,7.279,2.784Z" transform="translate(-598.605 -321.155)"/></g><g class="e" transform="translate(100.749 2.274)"><g class="cd"><g class="e"><path class="o" d="M605.138,324.137l-7.279-2.784q-.578-.256-1.167-.481l7.278,2.784q.588.225,1.168.481" transform="translate(-596.692 -320.871)"/></g></g></g><g class="e" transform="translate(88.338 0.65)"><g class="ce"><g class="e" transform="translate(0 0)"><path class="y" d="M583.626,321.245l-7.279-2.784a25.682,25.682,0,0,1,4.2-.245L587.83,321a25.678,25.678,0,0,0-4.2.245" transform="translate(-576.347 -318.209)"/><path class="x" d="M590.517,321.005l-7.278-2.784a24.8,24.8,0,0,1,4.632.552l7.278,2.785a24.74,24.74,0,0,0-4.632-.553" transform="translate(-579.035 -318.213)"/><path class="w" d="M598.11,321.911l-7.279-2.785a24.563,24.563,0,0,1,3.575,1.065l7.279,2.784a24.446,24.446,0,0,0-3.575-1.064" transform="translate(-581.995 -318.566)"/></g></g></g><g class="e" transform="translate(88.378)"><g class="cf"><g class="e" transform="translate(0 0)"><path class="j" d="M583.691,320.183l-7.279-2.784a26.038,26.038,0,0,1,4.272-.249l7.279,2.785a25.96,25.96,0,0,0-4.272.248" transform="translate(-576.412 -317.142)"/><path class="i" d="M590.693,319.94l-7.279-2.785a25.167,25.167,0,0,1,4.706.561L595.4,320.5a25.109,25.109,0,0,0-4.705-.561" transform="translate(-579.142 -317.147)"/><path class="h" d="M598.406,320.859l-7.279-2.784a24.926,24.926,0,0,1,3.632,1.082l7.279,2.784a24.911,24.911,0,0,0-3.632-1.082" transform="translate(-582.15 -317.506)"/></g></g></g><g class="e" transform="translate(86.18 0.902)"><g class="cg"><g class="e" transform="translate(-0.475)"><path class="y" d="M579.309,321.913l-7.279-2.784c.159-.038.317-.076.475-.112q1.079-.243,2.158-.395l7.279,2.784q-1.079.152-2.159.395c-.158.036-.317.073-.475.112" transform="translate(-572.03 -318.622)"/></g></g></g><g transform="translate(53.029 51.52)"><path class="ar" d="M525.808,406.808l-7.279-2.784-.06-2.428,7.279,2.784Z" transform="translate(-518.469 -401.596)"/></g><g transform="translate(52.504 51.731)"><path class="q" d="M525.472,406.943l-7.279-2.784-.586-2.217,7.279,2.784Z" transform="translate(-517.607 -401.942)"/></g><g class="e" transform="translate(62.946 1.297)"><g class="ch"><g class="e" transform="translate(-1.938 -0.395)"><path class="w" d="M538.826,352.406l-7.279-2.784q.92-1.542,1.938-3.027.577-.84,1.18-1.648l7.279,2.784q-.6.808-1.18,1.648-1.019,1.484-1.939,3.027" transform="translate(-531.547 -328.887)"/><path class="x" d="M543.937,344.7l-7.279-2.784a50.476,50.476,0,0,1,4.007-4.746l7.279,2.784a50.467,50.467,0,0,0-4.007,4.746" transform="translate(-533.54 -325.854)"/><path class="y" d="M550.505,336.318l-7.279-2.784a44.156,44.156,0,0,1,6.6-5.684l7.279,2.784a44.215,44.215,0,0,0-6.595,5.684" transform="translate(-536.101 -322.22)"/><path class="z" d="M561.315,327.359l-7.279-2.784a33.054,33.054,0,0,1,10.977-5.123l7.279,2.784a33.07,33.07,0,0,0-10.977,5.123" transform="translate(-540.317 -318.946)"/><path class="y" d="M579.309,321.913l-7.279-2.784c.159-.038.317-.076.475-.112q1.079-.243,2.158-.395l7.279,2.784q-1.079.152-2.159.395c-.158.036-.317.073-.475.112" transform="translate(-547.333 -318.622)"/></g></g></g><g class="e" transform="translate(53.014 18.61)"><g class="ci"><g class="e" transform="translate(0 -1.648)"><path class="m" d="M525.738,399.429l-7.279-2.784a53.358,53.358,0,0,1,.378-7.746l7.279,2.784a53.375,53.375,0,0,0-.378,7.746" transform="translate(-518.443 -362.085)"/><path class="ar" d="M526.367,387.31l-7.279-2.784a55.482,55.482,0,0,1,1.272-6.84l7.279,2.784a55.616,55.616,0,0,0-1.271,6.84" transform="translate(-518.695 -357.713)"/><path class="as" d="M528.451,376.925l-7.278-2.784a56.757,56.757,0,0,1,1.7-5.547l7.279,2.784a56.963,56.963,0,0,0-1.7,5.547" transform="translate(-519.508 -354.168)"/><path class="at" d="M531.239,368.19l-7.279-2.784q.921-2.537,2.085-4.988l7.279,2.784q-1.162,2.448-2.084,4.988" transform="translate(-520.594 -350.979)"/><path class="au" d="M534.656,360.158l-7.279-2.784q1.156-2.435,2.544-4.763l7.279,2.784q-1.386,2.324-2.543,4.763" transform="translate(-521.927 -347.935)"/><path class="w" d="M538.826,352.406l-7.279-2.784q.92-1.542,1.938-3.027.577-.84,1.18-1.648l7.279,2.784q-.6.808-1.18,1.648-1.019,1.484-1.939,3.027" transform="translate(-523.553 -344.946)"/></g></g></g><g class="e" transform="translate(52.482 0.256)"><g class="cj"><g class="e"><path class="o" d="M524.851,397.5l-7.279-2.784a54.461,54.461,0,0,1,.394-5.8l7.279,2.784a54.487,54.487,0,0,0-.394,5.8" transform="translate(-517.572 -345.387)"/><path class="ak" d="M525.5,387.266l-7.279-2.784a56.392,56.392,0,0,1,1.29-6.937l7.279,2.785a56.351,56.351,0,0,0-1.29,6.937" transform="translate(-517.824 -340.953)"/><path class="al" d="M527.612,376.737l-7.279-2.785a57.576,57.576,0,0,1,1.723-5.62l7.279,2.784a57.549,57.549,0,0,0-1.723,5.62" transform="translate(-518.649 -337.36)"/><path class="am" d="M530.437,367.884l-7.279-2.784q.934-2.571,2.113-5.057l7.279,2.784q-1.178,2.482-2.113,5.057" transform="translate(-519.75 -334.128)"/><path class="an" d="M533.9,359.74l-7.279-2.784q1.172-2.47,2.579-4.83l7.279,2.784q-1.406,2.356-2.579,4.83" transform="translate(-521.101 -331.041)"/><path class="h" d="M538.128,351.85l-7.279-2.784q.939-1.574,1.98-3.089.594-.866,1.215-1.7l7.279,2.785q-.62.832-1.215,1.7-1.04,1.514-1.98,3.089" transform="translate(-522.749 -327.981)"/><path class="i" d="M543.364,343.991l-7.279-2.785a51.1,51.1,0,0,1,4.059-4.807l7.279,2.784a50.948,50.948,0,0,0-4.059,4.808" transform="translate(-524.791 -324.908)"/><path class="j" d="M550.018,335.5l-7.279-2.784a44.842,44.842,0,0,1,6.69-5.766l7.279,2.784a44.786,44.786,0,0,0-6.69,5.766" transform="translate(-527.386 -321.222)"/><path class="k" d="M560.984,326.4l-7.279-2.784a33.6,33.6,0,0,1,11.171-5.209l7.279,2.784a33.617,33.617,0,0,0-11.17,5.209" transform="translate(-531.662 -317.892)"/><path class="j" d="M579.294,320.863l-7.278-2.784c.159-.038.317-.076.475-.112q1.1-.249,2.207-.4l7.279,2.784q-1.1.155-2.207.4-.238.054-.476.112" transform="translate(-538.803 -317.563)"/></g></g></g><g class="e" transform="translate(35.672 30.428)"><g class="ck"><g class="e"><path class="o" d="M514.127,391.108l-7.279-2.784c-2.81-10.651-9.313-18.428-16.831-21.3L497.3,369.8c7.518,2.876,14.021,10.653,16.831,21.3" transform="translate(-490.017 -367.02)"/></g></g></g><g transform="translate(1.825 68.334)"><path class="ab" d="M441.813,446.337l-7.279-2.784,101.5-14.4,7.279,2.784Z" transform="translate(-434.534 -429.157)"/></g><g transform="translate(7.798 3.435)"><path class="bq" d="M532.144,323.025a24.833,24.833,0,0,1,13.578,1.853l.129-.308,1.276,65.886-101.5,14.4a51.946,51.946,0,0,1,4.544-35.324c4.483-8.746,11.044-15.23,17.557-17.348a17.288,17.288,0,0,1,2.95-.683c10.884-1.53,21.758,7.689,25.628,22.357l.586,2.217-.06-2.428a56.25,56.25,0,0,1,9.916-32.911c6.238-9.076,14.7-15.391,23.233-17.313Q531.064,323.176,532.144,323.025Z" transform="translate(-444.325 -322.773)"/></g><g class="e" transform="translate(0.519 29.209)"><g class="cl"><g class="e" transform="translate(0 0)"><path class="m" d="M440.978,444.377l-7.278-2.784a49.362,49.362,0,0,1-.925-17.463l7.278,2.785a49.373,49.373,0,0,0,.925,17.462" transform="translate(-432.394 -388.072)"/><path class="ar" d="M440.3,422.728l-7.278-2.785a53.133,53.133,0,0,1,1.217-6.549l7.278,2.784a53.349,53.349,0,0,0-1.217,6.55" transform="translate(-432.637 -383.885)"/><path class="as" d="M442.29,412.832l-7.279-2.784a53.614,53.614,0,0,1,1.6-5.234l7.279,2.784a53.451,53.451,0,0,0-1.6,5.234" transform="translate(-433.415 -380.539)"/><path class="at" d="M444.919,404.639l-7.279-2.784q.856-2.354,1.934-4.63l7.279,2.784q-1.078,2.271-1.934,4.63" transform="translate(-434.439 -377.58)"/><path class="au" d="M448.089,397.315l-7.279-2.784q.346-.729.715-1.448.731-1.425,1.532-2.767l7.279,2.784q-.8,1.341-1.532,2.767-.369.718-.715,1.448" transform="translate(-435.676 -374.885)"/><path class="w" d="M451.772,390.6l-7.279-2.784A45.751,45.751,0,0,1,447.1,383.9l7.279,2.784a45.989,45.989,0,0,0-2.609,3.911" transform="translate(-437.112 -372.385)"/><path class="x" d="M456.048,384.274l-7.279-2.784a40.168,40.168,0,0,1,3.183-3.777l7.279,2.785a40.094,40.094,0,0,0-3.183,3.776" transform="translate(-438.78 -369.971)"/><path class="y" d="M461.266,377.9l-7.279-2.785a31.467,31.467,0,0,1,4.695-4.062l7.279,2.784a31.5,31.5,0,0,0-4.694,4.062" transform="translate(-440.814 -367.375)"/><path class="z" d="M468.961,371.8l-7.279-2.784a21.247,21.247,0,0,1,5.538-2.831q.64-.209,1.282-.364l7.279,2.785q-.642.156-1.282.364a21.258,21.258,0,0,0-5.539,2.831" transform="translate(-443.815 -365.332)"/><path class="y" d="M480.141,368.292l-7.279-2.785q.834-.2,1.668-.32a17.061,17.061,0,0,1,2.765-.16l7.279,2.785a16.923,16.923,0,0,0-2.765.16q-.835.117-1.669.32" transform="translate(-448.174 -365.022)"/><path class="x" d="M487.409,367.815l-7.279-2.785a17.486,17.486,0,0,1,3.288.394l7.279,2.784a17.489,17.489,0,0,0-3.288-.393" transform="translate(-451.008 -365.025)"/><path class="w" d="M492.8,368.46l-7.279-2.784a18.862,18.862,0,0,1,2.743.82l7.279,2.784a18.885,18.885,0,0,0-2.743-.82" transform="translate(-453.11 -365.277)"/></g></g></g><g class="e" transform="translate(0 28.56)"><g class="cm"><g class="e" transform="translate(0 0)"><path class="o" d="M440.232,445.044l-7.279-2.784a50.844,50.844,0,0,1-1.022-18.217l7.279,2.784a50.817,50.817,0,0,0,1.022,18.217" transform="translate(-431.542 -387.388)"/><path class="ak" d="M439.457,422.59l-7.279-2.784a53.979,53.979,0,0,1,1.232-6.629l7.279,2.784a53.971,53.971,0,0,0-1.232,6.629" transform="translate(-431.79 -383.151)"/><path class="al" d="M441.477,412.576l-7.279-2.784a54.162,54.162,0,0,1,1.622-5.3l7.279,2.784a54.338,54.338,0,0,0-1.623,5.3" transform="translate(-432.578 -379.765)"/><path class="am" d="M444.136,404.28l-7.279-2.784q.867-2.387,1.96-4.692l7.279,2.784q-1.093,2.3-1.96,4.692" transform="translate(-433.615 -376.766)"/><path class="an" d="M447.349,396.859l-7.279-2.784q.35-.736.721-1.461.741-1.447,1.555-2.809l7.279,2.784q-.813,1.362-1.555,2.809-.372.726-.721,1.461" transform="translate(-434.868 -374.037)"/><path class="h" d="M451.08,390.044,443.8,387.26a46.583,46.583,0,0,1,2.656-3.981l7.279,2.784a46.773,46.773,0,0,0-2.656,3.981" transform="translate(-436.323 -371.492)"/><path class="i" d="M455.433,383.6l-7.279-2.784a40.932,40.932,0,0,1,3.246-3.852l7.278,2.785a40.849,40.849,0,0,0-3.246,3.851" transform="translate(-438.02 -369.03)"/><path class="j" d="M460.754,377.094l-7.278-2.785a32.192,32.192,0,0,1,4.8-4.154l7.279,2.785a32.183,32.183,0,0,0-4.8,4.154" transform="translate(-440.095 -366.374)"/><path class="k" d="M468.625,370.84l-7.279-2.785a21.844,21.844,0,0,1,5.69-2.908q.661-.215,1.324-.376l7.279,2.785q-.663.161-1.324.376a21.829,21.829,0,0,0-5.691,2.908" transform="translate(-443.165 -364.275)"/><path class="j" d="M480.125,367.239l-7.279-2.785q.854-.207,1.708-.327a17.362,17.362,0,0,1,2.834-.164l7.279,2.784a17.354,17.354,0,0,0-2.834.164q-.854.12-1.708.328" transform="translate(-447.649 -363.958)"/><path class="i" d="M487.57,366.75l-7.279-2.784a17.849,17.849,0,0,1,3.361.4l7.279,2.784a17.9,17.9,0,0,0-3.361-.4" transform="translate(-450.552 -363.961)"/><path class="h" d="M493.079,367.412l-7.279-2.784a19.2,19.2,0,0,1,2.8.836l7.279,2.785a19.174,19.174,0,0,0-2.8-.837" transform="translate(-452.7 -364.219)"/></g></g></g><g transform="translate(7.279 2.784)"><path class="ao" d="M531.852,321.963a25.226,25.226,0,0,1,13.8,1.883l-.129.308-.129.308a24.833,24.833,0,0,0-13.578-1.853q-1.079.152-2.159.395c-8.529,1.922-17,8.237-23.233,17.313a56.25,56.25,0,0,0-9.916,32.911l.06,2.428-.586-2.217c-3.87-14.668-14.744-23.887-25.628-22.357a17.288,17.288,0,0,0-2.95.683c-6.512,2.117-13.073,8.6-17.557,17.348a51.946,51.946,0,0,0-4.544,35.324l101.5-14.4-.01.645-101.9,14.453a52.879,52.879,0,0,1,4.513-36.3c4.575-8.922,11.282-15.538,17.949-17.7a17.732,17.732,0,0,1,3.032-.7c10.63-1.494,21.247,7.033,25.578,20.854a57.211,57.211,0,0,1,10.079-31.33c6.333-9.227,14.939-15.641,23.609-17.593Q530.748,322.118,531.852,321.963Z" transform="translate(-443.474 -321.707)"/></g></g></g></g><g transform="translate(402.968 409.636)"><g class="e"><g transform="translate(47.766 95.924)"><path class="cn" d="M701.069,782.309l-5.562-3.026,13.394-1.408,5.562,3.026Z" transform="translate(-695.507 -777.875)"/></g><g class="e" transform="translate(60.116 95.461)"><g class="co"><g class="e" transform="translate(0.001 0.001)"><path class="w" d="M721.314,780.142l-5.562-3.026q.128.07.259.134l5.562,3.026q-.131-.064-.259-.134" transform="translate(-715.752 -777.116)"/><path class="x" d="M721.738,780.361l-5.562-3.026a7.013,7.013,0,0,0,.784.329l5.562,3.026a7.126,7.126,0,0,1-.785-.329" transform="translate(-715.917 -777.201)"/></g></g></g><g class="e" transform="translate(60.433 94.874)"><g class="cp"><g class="e"><path class="h" d="M721.832,779.179l-5.562-3.026c.08.043.16.085.242.125l5.562,3.026q-.123-.06-.242-.125" transform="translate(-716.27 -776.153)"/><path class="i" d="M722.229,779.384l-5.562-3.026a6.632,6.632,0,0,0,1.271.471l5.562,3.026a6.68,6.68,0,0,1-1.271-.471" transform="translate(-716.425 -776.233)"/><path class="j" d="M724.312,780.156l-5.562-3.026a7.015,7.015,0,0,0,1.5.218l5.562,3.026a7.06,7.06,0,0,1-1.5-.218" transform="translate(-717.237 -776.534)"/></g></g></g><g transform="translate(70.705 66.214)"><path class="cq" d="M738.682,732.751l-5.562-3.026-.011-.552,5.562,3.026Z" transform="translate(-733.108 -729.174)"/></g><g transform="translate(70.703 66.107)"><path class="cq" d="M738.669,732.131l-5.562-3.026,0-.107,5.562,3.026Z" transform="translate(-733.105 -728.998)"/></g><g transform="translate(70.694 65.667)"><path class="cq" d="M738.663,731.85l-5.562-3.026-.011-.547,5.562,3.026Z" transform="translate(-733.09 -728.277)"/></g><g transform="translate(60.565 77.742)"><path class="cn" d="M722.049,752.815l-5.562-3.026,10.584-1.719,5.562,3.026Z" transform="translate(-716.487 -748.07)"/></g><g class="e" transform="translate(56.134 79.461)"><g class="cr"><g class="e" transform="translate(0)"><path class="o" d="M718.768,773.167l-5.562-3.026a7.78,7.78,0,0,1-3.879-5.816,10.385,10.385,0,0,1,.566-5.1l5.562,3.026a10.383,10.383,0,0,0-.566,5.1,7.781,7.781,0,0,0,3.879,5.816" transform="translate(-709.222 -754.142)"/><path class="ak" d="M715.883,761.32l-5.562-3.026a11.41,11.41,0,0,1,.659-1.465l5.562,3.026a11.4,11.4,0,0,0-.659,1.465" transform="translate(-709.651 -753.205)"/><path class="al" d="M716.964,759.122,711.4,756.1a11.3,11.3,0,0,1,.707-1.147l5.562,3.025a11.316,11.316,0,0,0-.707,1.147" transform="translate(-710.072 -752.472)"/><path class="am" d="M718.123,757.348l-5.562-3.025a11.187,11.187,0,0,1,.772-.98l5.562,3.025a11.156,11.156,0,0,0-.772.98" transform="translate(-710.524 -751.845)"/><path class="an" d="M719.389,755.8l-5.562-3.025a10.83,10.83,0,0,1,.873-.882l5.562,3.026a10.806,10.806,0,0,0-.873.882" transform="translate(-711.018 -751.282)"/><path class="h" d="M720.82,754.529l-5.562-3.026q.36-.324.75-.614l5.562,3.025q-.39.29-.75.615" transform="translate(-711.576 -750.889)"/></g></g></g><g class="e" transform="translate(55.836 76.839)"><g class="cs"><g class="e"><path class="au" d="M714.3,754.047l-5.562-3.025c.06-.058.118-.12.175-.185l5.562,3.026c-.057.065-.115.126-.174.184" transform="translate(-708.734 -748.246)"/><path class="at" d="M714.583,753.639l-5.562-3.026a3.88,3.88,0,0,0,.276-.351l5.562,3.026a3.836,3.836,0,0,1-.276.351" transform="translate(-708.846 -748.022)"/><path class="as" d="M715.035,753.014l-5.562-3.026a4.26,4.26,0,0,0,.264-.428l5.562,3.025a4.255,4.255,0,0,1-.264.428" transform="translate(-709.022 -747.749)"/><path class="ar" d="M715.468,752.283l-5.562-3.025a3.738,3.738,0,0,0,.215-.474l5.562,3.025a3.653,3.653,0,0,1-.215.474" transform="translate(-709.191 -747.445)"/><path class="m" d="M715.724,750.954l-5.562-3.025a1.412,1.412,0,0,0,.042-1.151.5.5,0,0,0-.193-.187l5.562,3.025a.5.5,0,0,1,.193.187,1.409,1.409,0,0,1-.042,1.151" transform="translate(-709.232 -746.59)"/></g></g></g><g class="e" transform="translate(52.912 76.758)"><g class="ct"><g class="e" transform="translate(0 0)"><path class="cu" d="M709.5,749.671l-5.562-3.025.066.034,5.562,3.025-.066-.034" transform="translate(-703.941 -746.531)"/><path class="cv" d="M709.611,749.727l-5.562-3.025a1.892,1.892,0,0,0,.359.132l5.562,3.026a1.868,1.868,0,0,1-.359-.133" transform="translate(-703.983 -746.552)"/><path class="cw" d="M710.2,749.765l-5.562-3.026a2.917,2.917,0,0,0,1.134.031c.265-.037.526-.1.774-.152s.48-.108.689-.138a1.446,1.446,0,0,1,.543,0l5.562,3.026a1.432,1.432,0,0,0-.542,0c-.21.029-.443.083-.689.137s-.509.115-.774.152a2.907,2.907,0,0,1-1.134-.03" transform="translate(-704.213 -746.457)"/><path class="cv" d="M715.347,749.528l-5.562-3.026a.6.6,0,0,1,.118.043l5.562,3.025a.668.668,0,0,0-.118-.043" transform="translate(-706.22 -746.474)"/><path class="cu" d="M715.54,749.6l-5.562-3.025.02.01,5.562,3.025-.02-.01" transform="translate(-706.295 -746.502)"/></g></g></g><g class="e" transform="translate(51.506 72.971)"><g class="cx"><g class="e" transform="translate(-0.124 -0.21)"><path class="m" d="M708.525,747.043l-5.562-3.025c-.037-.02-.073-.042-.109-.065-1.529-.972-.991-3.814-1.421-4.048l5.562,3.026c.43.234-.108,3.075,1.421,4.048.036.023.073.045.109.064" transform="translate(-701.433 -739.905)"/></g></g></g><g class="e" transform="translate(51.382 72.761)"><g class="cy"><g class="e"><path class="m" d="M708.525,747.043l-5.562-3.025c-.037-.02-.073-.042-.109-.065-1.529-.972-.991-3.814-1.421-4.048l5.562,3.026c.43.234-.108,3.075,1.421,4.048.036.023.073.045.109.064" transform="translate(-701.433 -739.905)"/></g></g></g><g class="e" transform="translate(51.298 72.747)"><g class="cz"><g class="e"><path class="cw" d="M706.858,742.909l-5.562-3.026.025,0,5.562,3.026-.025,0" transform="translate(-701.296 -739.883)"/><path class="cv" d="M706.9,742.912l-5.562-3.026a.131.131,0,0,1,.031.009l5.562,3.026a.144.144,0,0,0-.032-.009" transform="translate(-701.312 -739.884)"/><path class="cu" d="M706.95,742.927l-5.562-3.026.011.005,5.562,3.026-.01-.005" transform="translate(-701.332 -739.89)"/></g></g></g><g class="e" transform="translate(51.25 79.615)"><g class="da"><g class="e" transform="translate(0.001)"><path class="w" d="M706.781,755.088l-5.562-3.026c.042.023.085.045.129.067l5.562,3.026c-.044-.021-.087-.043-.129-.066" transform="translate(-701.219 -751.5)"/><path class="x" d="M706.992,755.2l-5.562-3.026a3.754,3.754,0,0,0,.714.264l5.562,3.026a3.739,3.739,0,0,1-.713-.263" transform="translate(-701.301 -751.542)"/><path class="y" d="M708.162,755.467l-5.562-3.026a4.232,4.232,0,0,0,1.647.09,4.044,4.044,0,0,0,1.164-.343l5.562,3.026a4.063,4.063,0,0,1-1.164.343,4.252,4.252,0,0,1-1.647-.09" transform="translate(-701.758 -751.549)"/><path class="x" d="M712.77,755.027,707.208,752a3.615,3.615,0,0,0,.509-.292l5.562,3.026a3.653,3.653,0,0,1-.509.292" transform="translate(-703.554 -751.362)"/><path class="w" d="M713.6,754.569l-5.562-3.026a3.223,3.223,0,0,0,.328-.259l5.562,3.026a3.367,3.367,0,0,1-.328.259" transform="translate(-703.88 -751.196)"/><path class="au" d="M714.142,754.254l-5.562-3.026c.032-.029.063-.058.094-.088l5.562,3.025c-.031.031-.062.06-.094.088" transform="translate(-704.089 -751.14)"/></g></g></g><g class="e" transform="translate(49.548 72.747)"><g class="db"><g class="e" transform="translate(0)"><path class="dc" d="M705.692,751.62l-5.562-3.026a3.154,3.154,0,0,1-1.155-1.058,5.059,5.059,0,0,1-.1-4.367l5.562,3.026a5.059,5.059,0,0,0,.1,4.367,3.164,3.164,0,0,0,1.155,1.058" transform="translate(-698.427 -741.164)"/><path class="dd" d="M704.719,745.579l-5.562-3.026a7.563,7.563,0,0,1,.43-.961l5.562,3.026a7.523,7.523,0,0,0-.43.961" transform="translate(-698.712 -740.549)"/><path class="de" d="M705.423,744.287l-5.562-3.026a5.1,5.1,0,0,1,.315-.518l5.562,3.025a5.343,5.343,0,0,0-.315.519" transform="translate(-698.986 -740.218)"/><path class="df" d="M705.94,743.6l-5.562-3.025a2.9,2.9,0,0,1,.2-.258l5.562,3.025a2.956,2.956,0,0,0-.2.258" transform="translate(-699.188 -740.053)"/><path class="dg" d="M706.268,743.261l-5.562-3.025a1.658,1.658,0,0,1,.129-.132l5.562,3.026a1.545,1.545,0,0,0-.128.131" transform="translate(-699.316 -739.969)"/><path class="cu" d="M706.479,743.086l-5.562-3.026a1.066,1.066,0,0,1,.084-.068l5.562,3.026a.868.868,0,0,0-.085.068" transform="translate(-699.398 -739.925)"/><path class="cv" d="M706.617,742.987l-5.562-3.026a.521.521,0,0,1,.084-.048l5.562,3.026a.475.475,0,0,0-.083.048" transform="translate(-699.452 -739.895)"/><path class="cw" d="M706.754,742.928l-5.562-3.026a.234.234,0,0,1,.063-.019l5.562,3.026a.238.238,0,0,0-.063.019" transform="translate(-699.505 -739.883)"/></g></g></g><g transform="translate(69.096 15.798)"><path class="cq" d="M736.413,663.15l-5.562-3.026-.38-13.593,5.562,3.026Z" transform="translate(-730.471 -646.531)"/></g><g class="e" transform="translate(65.873 15.426)"><g class="dh"><g class="e"><path class="cw" d="M730.749,649.015l-5.562-3.025a7.015,7.015,0,0,1,2.612.127l.124.031,5.562,3.025-.124-.031a7.034,7.034,0,0,0-2.613-.127" transform="translate(-725.187 -645.922)"/><path class="cv" d="M735.235,649.317l-5.562-3.025c.2.051.362.1.487.146l5.562,3.026c-.124-.043-.289-.095-.487-.146" transform="translate(-726.936 -646.066)"/></g></g></g><g transform="translate(67.984 4.222)"><path class="f" d="M734.711,641.98l-5.562-3.026-.5-11.4,5.562,3.026Z" transform="translate(-728.648 -627.555)"/></g><g transform="translate(67.984 4.222)"><path class="cq" d="M734.219,631.128l-5.562-3.026-.009-.547,5.562,3.026Z" transform="translate(-728.648 -627.555)"/></g><g transform="translate(67.976 3.674)"><path class="cq" d="M734.2,630.231l-5.562-3.026-.009-.547,5.562,3.026Z" transform="translate(-728.634 -626.658)"/></g><g transform="translate(5.627 66.766)"><path class="di" d="M631.993,743.76l-5.562-3.026,65.089-10.656,5.562,3.026Z" transform="translate(-626.431 -730.078)"/></g><g transform="translate(6.626 65.669)"><path class="cn" d="M633.631,741.8l-5.562-3.026,64.058-10.49,5.562,3.026Z" transform="translate(-628.069 -728.28)"/></g><g transform="translate(5.518 4.769)"><path class="di" d="M631.815,641.592l-5.562-3.026,62.475-10.114,5.562,3.026Z" transform="translate(-626.253 -628.452)"/></g><g transform="translate(5.518 14.883)"><path class="cq" d="M632.923,709.332l-5.562-3.026-1.108-61.275,5.562,3.026Z" transform="translate(-626.253 -645.031)"/></g><g transform="translate(10.042 6.7)"><path class="dj" d="M697.164,631.618l.009.547.009.547-62.475,10.114,1.108,61.275,64.058-10.489.019.438.013.659-65.089,10.656L633.668,641.9Z" transform="translate(-633.668 -631.618)"/></g><g transform="translate(76.265 69.133)"><path class="p" d="M742.222,733.958l0,.106h0Z" transform="translate(-742.222 -733.958)"/></g><g transform="translate(70.205 54.769)"><path class="f" d="M738.339,724.336l-5.562-3.026-.489-10.9,5.562,3.026Z" transform="translate(-732.288 -710.412)"/></g><g transform="translate(70.359 50.678)"><path class="cn" d="M738.1,709.631l-5.562-3.026,20.916-2.9,5.562,3.026Z" transform="translate(-732.541 -703.707)"/></g><g transform="translate(45.947 97.5)"><path class="dk" d="M698.087,784.146l-5.562-3.026.778-.663,5.562,3.026Z" transform="translate(-692.525 -780.457)"/></g><g transform="translate(70.154 53.577)"><path class="cn" d="M737.766,711.512l-5.562-3.026.205-.028,5.562,3.026Z" transform="translate(-732.204 -708.458)"/></g><g class="e" transform="translate(47.767 87.617)"><g class="dl"><g class="e" transform="translate(-0.725 -5.741)"><path class="au" d="M701.069,782.838l-5.562-3.026q.283-.282.545-.58l5.562,3.026q-.263.3-.546.58" transform="translate(-694.782 -764.357)"/><path class="at" d="M701.963,781.563l-5.562-3.026a12.333,12.333,0,0,0,.858-1.089l5.563,3.026a12.576,12.576,0,0,1-.858,1.089" transform="translate(-695.131 -763.661)"/><path class="as" d="M703.37,779.683l-5.562-3.026a12.181,12.181,0,0,0,.763-1.237l5.562,3.026a12.263,12.263,0,0,1-.763,1.237" transform="translate(-695.68 -762.87)"/><path class="ar" d="M704.621,777.465l-5.562-3.026a11.816,11.816,0,0,0,.691-1.535l5.562,3.026a11.932,11.932,0,0,1-.692,1.535" transform="translate(-696.167 -761.889)"/><path class="m" d="M703.464,768.889l-5.562-3.026a10.279,10.279,0,0,0,.54-5.276,8.079,8.079,0,0,0-4.123-5.739l5.562,3.026A8.08,8.08,0,0,1,704,763.613a10.281,10.281,0,0,1-.54,5.276" transform="translate(-694.319 -754.848)"/></g></g></g><g transform="translate(69.829 46.168)"><path class="di" d="M737.234,699.38l-5.562-3.026.288-.04,5.562,3.026Z" transform="translate(-731.672 -696.314)"/></g><g transform="translate(75.391 49.194)"><path class="dm" d="M741.114,708.711l-.325-7.4.288-.04.242,7.409Z" transform="translate(-740.789 -701.274)"/></g><g transform="translate(69.829 46.208)"><path class="f" d="M737.559,706.8,732,703.776l-.325-7.4,5.562,3.026Z" transform="translate(-731.672 -696.38)"/></g><g transform="translate(70.078 41.929)"><path class="cn" d="M737.643,695.459l-5.562-3.026,22.146-3.069,5.562,3.026Z" transform="translate(-732.081 -689.365)"/></g><g transform="translate(69.777 44.998)"><path class="cn" d="M737.15,697.463l-5.562-3.026.3-.042,5.562,3.026Z" transform="translate(-731.588 -694.395)"/></g><g class="e" transform="translate(47.042 81.877)"><g class="dn"><g class="e" transform="translate(-0.001 -0.001)"><path class="m" d="M703.464,768.889l-5.562-3.026a10.279,10.279,0,0,0,.54-5.276,8.079,8.079,0,0,0-4.123-5.739l5.562,3.026A8.08,8.08,0,0,1,704,763.613a10.281,10.281,0,0,1-.54,5.276" transform="translate(-694.319 -754.848)"/></g></g></g><g class="e" transform="translate(46.725 82.469)"><g class="do"><g class="e"><path class="h" d="M699.362,783.351l-5.562-3.026q.12-.1.236-.206l5.562,3.026q-.116.1-.235.206" transform="translate(-693.8 -765.295)"/><path class="an" d="M699.749,782.536l-5.562-3.026a11.657,11.657,0,0,0,.943-.952l5.562,3.025a11.652,11.652,0,0,1-.943.952" transform="translate(-693.951 -764.686)"/><path class="am" d="M701.294,780.928l-5.562-3.025a11.786,11.786,0,0,0,.81-1.027L702.1,779.9a11.575,11.575,0,0,1-.809,1.027" transform="translate(-694.553 -764.03)"/><path class="al" d="M702.621,779.158l-5.562-3.025a11.541,11.541,0,0,0,.717-1.163L703.338,778a11.488,11.488,0,0,1-.717,1.162" transform="translate(-695.071 -763.287)"/><path class="ak" d="M703.8,777.076l-5.562-3.026a11.058,11.058,0,0,0,.648-1.44l5.562,3.025a11.237,11.237,0,0,1-.648,1.44" transform="translate(-695.529 -762.367)"/><path class="o" d="M702.722,769.088l-5.562-3.025a9.552,9.552,0,0,0,.5-4.9,7.529,7.529,0,0,0-3.848-5.345l5.562,3.025a7.533,7.533,0,0,1,3.849,5.345,9.565,9.565,0,0,1-.5,4.9" transform="translate(-693.806 -755.819)"/></g></g></g><g transform="translate(71.234 36.615)"><path class="dp" d="M739.538,684.852l-5.562-3.026.007-1.172,5.562,3.026Z" transform="translate(-733.976 -680.654)"/></g><g transform="translate(71.241 33.753)"><path class="cn" d="M739.549,681.851l-5.562-3.026,20.661-2.862,5.562,3.026Z" transform="translate(-733.987 -675.964)"/></g><g transform="translate(76.796 36.779)"><path class="dj" d="M743.1,683.785l20.661-2.862,0,1.171-20.666,2.862Z" transform="translate(-743.093 -680.923)"/></g><g class="e" transform="translate(46.559 81.641)"><g class="dq"><g class="e"><path class="i" d="M699.09,757.487l-5.562-3.026c.052.023.118.054.2.091l5.562,3.026c-.077-.038-.143-.068-.195-.091" transform="translate(-693.528 -754.461)"/><path class="h" d="M699.41,757.637l-5.562-3.026c.077.038.166.084.264.137l5.562,3.026q-.148-.08-.265-.137" transform="translate(-693.653 -754.52)"/></g></g></g><g transform="translate(55.11 75.773)"><path class="dr" d="M709.294,744.843c.564,0-.091,3.046,1.5,4.061a2.392,2.392,0,0,0,1.668.262c.265-.037.526-.1.774-.152s.479-.108.689-.137c.4-.056.711-.026.874.245.351.584-.233,1.868-.972,2.588a3.739,3.739,0,0,1-2.095.983,3.687,3.687,0,0,1-3.645-1.478C706.566,748.848,708.643,744.934,709.294,744.843Z" transform="translate(-707.544 -744.843)"/></g><g transform="translate(69.47 38.031)"><path class="f" d="M736.953,693.01l-5.562-3.026-.308-7.008L736.645,686Z" transform="translate(-731.083 -682.976)"/></g><g transform="translate(75.032 41.004)"><path class="dm" d="M740.508,694.91,740.2,687.9l.379-.053.229,7.019Z" transform="translate(-740.2 -687.85)"/></g><g transform="translate(69.47 37.979)"><path class="di" d="M736.645,685.968l-5.562-3.026.379-.053,5.562,3.026Z" transform="translate(-731.083 -682.89)"/></g><g transform="translate(69.81 36.615)"><path class="cn" d="M737.2,683.879l-5.562-3.026,1.431-.2,5.562,3.026Z" transform="translate(-731.642 -680.654)"/></g><g transform="translate(59.187 54.769)"><path class="di" d="M719.789,714.965l-5.562-3.026,11.018-1.527,5.562,3.026Z" transform="translate(-714.227 -710.412)"/></g><g transform="translate(69.418 36.813)"><path class="cn" d="M736.561,684.06,731,681.034l.392-.054,5.562,3.026Z" transform="translate(-730.999 -680.98)"/></g><g transform="translate(59.189 53.605)"><path class="cn" d="M719.793,713.05l-5.562-3.026L725.2,708.5l5.562,3.026Z" transform="translate(-714.231 -708.505)"/></g><g transform="translate(64.749 53.704)"><path class="dj" d="M723.346,713.113l10.965-1.519.205-.028,20.916-2.9,0,1.171-20.876,2.893-.192.027-11.018,1.527Z" transform="translate(-723.344 -708.667)"/></g><g transform="translate(59.187 55.125)"><path class="dp" d="M719.789,715.192l-5.562-3.026,0-1.171,5.562,3.026Z" transform="translate(-714.227 -710.996)"/></g><g transform="translate(60.136 46.208)"><path class="di" d="M721.345,700.748l-5.562-3.026,9.693-1.343,5.562,3.026Z" transform="translate(-715.783 -696.38)"/></g><g transform="translate(60.138 45.039)"><path class="cn" d="M721.349,698.825l-5.562-3.026,9.639-1.336,5.562,3.026Z" transform="translate(-715.787 -694.464)"/></g><g transform="translate(60.136 46.375)"><path class="dp" d="M721.345,700.855l-5.562-3.026,0-1.176,5.562,3.026Z" transform="translate(-715.783 -696.653)"/></g><g transform="translate(65.698 44.954)"><path class="dj" d="M724.9,698.771l9.639-1.336.3-.042,22.146-3.069-.007,1.177-22.1,3.063-.288.04-9.693,1.343Z" transform="translate(-724.901 -694.325)"/></g><g transform="translate(69.102 29.655)"><path class="f" d="M736.359,679.484l-5.562-3.026-.317-7.213,5.562,3.026Z" transform="translate(-730.48 -669.245)"/></g><g class="e" transform="translate(69.102 29.391)"><g class="ds"><g class="e"><path class="x" d="M736.042,672.212l-5.562-3.026c.046-.03.091-.061.137-.093l5.562,3.026-.137.093" transform="translate(-730.48 -668.922)"/><path class="w" d="M736.266,672.01l-5.562-3.026q.12-.083.238-.171l5.562,3.026c-.079.059-.159.115-.239.171" transform="translate(-730.567 -668.813)"/></g></g></g><g transform="translate(59.814 38.031)"><path class="di" d="M720.818,687.341l-5.562-3.026,9.656-1.339L730.473,686Z" transform="translate(-715.255 -682.976)"/></g><g transform="translate(59.814 38.2)"><path class="dp" d="M720.818,687.448l-5.562-3.026,0-1.171,5.562,3.026Z" transform="translate(-715.255 -683.252)"/></g><g transform="translate(59.816 36.868)"><path class="cn" d="M720.821,685.426l-5.562-3.026,9.6-1.332,5.562,3.026Z" transform="translate(-715.259 -681.069)"/></g><g transform="translate(65.376 39.641)"><path class="dj" d="M724.375,687.2l9.6-1.332.392-.054,1.431-.2-.007,1.172-1.386.192-.379.053-9.656,1.339Z" transform="translate(-724.373 -685.614)"/></g><g class="e" transform="translate(62.031 29.655)"><g class="dt"><g class="e"><path class="w" d="M724.451,673.2l-5.562-3.026c.071.038.142.075.214.11l5.562,3.026c-.072-.035-.143-.072-.214-.11" transform="translate(-718.889 -669.606)"/><path class="x" d="M724.8,673.378l-5.562-3.026a5.974,5.974,0,0,0,1.146.424l5.562,3.026a5.988,5.988,0,0,1-1.145-.424" transform="translate(-719.025 -669.677)"/><path class="y" d="M726.679,673.748l-5.562-3.026a6.506,6.506,0,0,0,2.54.134,7.418,7.418,0,0,0,2.127-.642l5.562,3.026a7.411,7.411,0,0,1-2.127.642,6.509,6.509,0,0,1-2.54-.134" transform="translate(-719.758 -669.622)"/><path class="x" d="M734.33,672.861l-5.562-3.026a8.2,8.2,0,0,0,1.044-.591l5.562,3.026a8.217,8.217,0,0,1-1.044.591" transform="translate(-722.741 -669.245)"/></g></g></g><g transform="translate(44.285 49.904)"><path class="cq" d="M695.362,707.226,689.8,704.2l.008-1.762,5.562,3.026Z" transform="translate(-689.8 -702.438)"/></g><g class="e" transform="translate(58.847 15.494)"><g class="du"><g class="e" transform="translate(0)"><path class="dc" d="M722.416,667.447l-5.562-3.026a5.91,5.91,0,0,1-2.117-1.958,7.813,7.813,0,0,1-.446-7.037l5.562,3.026a7.816,7.816,0,0,0,.446,7.037,5.913,5.913,0,0,0,2.118,1.958" transform="translate(-713.67 -649.696)"/><path class="dd" d="M720.249,657.521l-5.562-3.026a11.314,11.314,0,0,1,.656-1.457l5.562,3.026a11.4,11.4,0,0,0-.656,1.457" transform="translate(-714.066 -648.765)"/><path class="de" d="M721.324,655.376l-5.562-3.026a10.63,10.63,0,0,1,.661-1.076l5.562,3.025a10.736,10.736,0,0,0-.662,1.077" transform="translate(-714.486 -648.077)"/><path class="df" d="M722.408,653.786l-5.562-3.025a9.008,9.008,0,0,1,.63-.8l5.562,3.026a9.218,9.218,0,0,0-.629.8" transform="translate(-714.908 -647.564)"/><path class="dg" d="M723.44,652.611l-5.562-3.026a7.08,7.08,0,0,1,.576-.585l5.562,3.026a7.079,7.079,0,0,0-.576.585" transform="translate(-715.311 -647.19)"/><path class="cu" d="M724.384,651.687l-5.562-3.026.03-.027a6.711,6.711,0,0,1,.643-.5l5.562,3.026a6.694,6.694,0,0,0-.643.5l-.03.027" transform="translate(-715.679 -646.852)"/><path class="cv" d="M725.487,650.735l-5.562-3.026a8.142,8.142,0,0,1,1.15-.661l5.562,3.025a8.219,8.219,0,0,0-1.151.661" transform="translate(-716.109 -646.429)"/><path class="cw" d="M727.372,649.678l-5.562-3.025.168-.077a7.121,7.121,0,0,1,1.892-.543l5.562,3.025a7.128,7.128,0,0,0-1.892.544l-.168.076" transform="translate(-716.844 -646.033)"/></g></g></g><g transform="translate(64.409 18.452)"><path class="dr" d="M729.813,650.949a7.034,7.034,0,0,1,2.613.127c.254.061.461.126.611.177l.381,13.593q-.186.138-.375.264a7.671,7.671,0,0,1-3.172,1.233,6.045,6.045,0,0,1-6.017-2.626c-2.446-3.711-.232-8.9,2.107-10.985a7.787,7.787,0,0,1,1.961-1.24A7.128,7.128,0,0,1,729.813,650.949Z" transform="translate(-722.787 -650.881)"/></g><g transform="translate(68.615 0.321)"><path class="cq" d="M735.25,624.507l-5.562-3.026-.007-.321,5.562,3.026Z" transform="translate(-729.681 -621.16)"/></g><g transform="translate(67.081 0.641)"><path class="dv" d="M732.73,625.2l-5.562-3.026,1.54-.491,5.562,3.026Z" transform="translate(-727.168 -621.686)"/></g><g transform="translate(45.234 41.16)"><path class="cq" d="M696.918,692.888l-5.562-3.026.008-1.757,5.562,3.026Z" transform="translate(-691.356 -688.105)"/></g><g transform="translate(67.073 0.49)"><path class="dp" d="M732.722,624.865l-5.562-3.026-.005-.4,5.562,3.026Z" transform="translate(-727.154 -621.438)"/></g><g transform="translate(64.351 1.334)"><path class="dp" d="M728.258,626.076,722.7,623.05l0-.229,5.562,3.026Z" transform="translate(-722.693 -622.821)"/></g><g transform="translate(64.351 1.132)"><path class="bo" d="M728.255,625.718l-5.562-3.026,2.73-.2,5.562,3.026Z" transform="translate(-722.693 -622.49)"/></g><g transform="translate(64.35 1.242)"><path class="dp" d="M728.255,625.788l-5.562-3.026v-.092l5.562,3.026Z" transform="translate(-722.691 -622.67)"/></g><g transform="translate(64.346 0.921)"><path class="dp" d="M728.25,625.49l-5.562-3.026,0-.321,5.562,3.026Z" transform="translate(-722.684 -622.144)"/></g><g transform="translate(69.908 3.516)"><path class="dj" d="M734.528,626.4l.005.4,0,.24-2.727.431,0-.229v-.092l0-.321Z" transform="translate(-731.802 -626.398)"/></g><g transform="translate(64.346 0.49)"><path class="cn" d="M728.246,624.894l-5.562-3.026,2.727-.431,5.562,3.026Z" transform="translate(-722.684 -621.438)"/></g><g transform="translate(44.912 32.985)"><path class="cq" d="M696.39,679.486l-5.562-3.026.008-1.757,5.562,3.026Z" transform="translate(-690.828 -674.703)"/></g><g transform="translate(45.263 19.211)"><path class="cq" d="M697.093,662.895l-5.562-3.026-.127-7.744,5.562,3.026Z" transform="translate(-691.404 -652.125)"/></g><g transform="translate(1.659 81.64)"><path class="cn" d="M625.488,764.609l-5.562-3.026,44.9-7.122,5.562,3.026Z" transform="translate(-619.926 -754.461)"/></g><g transform="translate(1.067 89.173)"><path class="dp" d="M624.522,770.155l-5.562-3.026,0-.321,5.562,3.026Z" transform="translate(-618.956 -766.808)"/></g><g transform="translate(12.199 51.667)"><path class="di" d="M642.765,712.8l-5.562-3.026,32.086-4.446,5.562,3.026Z" transform="translate(-637.203 -705.327)"/></g><g transform="translate(12.207 49.904)"><path class="cn" d="M642.779,709.91l-5.562-3.026,32.086-4.446,5.562,3.026Z" transform="translate(-637.217 -702.438)"/></g><g transform="translate(12.199 54.35)"><path class="dp" d="M642.765,714.515l-5.562-3.026.008-1.762,5.562,3.026Z" transform="translate(-637.203 -709.727)"/></g><g transform="translate(17.761 52.93)"><path class="dj" d="M646.329,711.844l32.086-4.446-.008,1.762-32.086,4.446Z" transform="translate(-646.321 -707.398)"/></g><g transform="translate(13.148 42.917)"><path class="di" d="M644.322,698.457l-5.562-3.026,32.086-4.446,5.562,3.026Z" transform="translate(-638.76 -690.985)"/></g><g transform="translate(13.156 41.16)"><path class="cn" d="M644.335,695.577l-5.562-3.026,32.086-4.446,5.562,3.026Z" transform="translate(-638.773 -688.105)"/></g><g transform="translate(13.148 45.606)"><path class="dp" d="M644.322,700.176l-5.562-3.026.008-1.757,5.562,3.026Z" transform="translate(-638.76 -695.393)"/></g><g transform="translate(18.71 44.186)"><path class="dj" d="M647.885,697.511l32.086-4.446-.008,1.757-32.086,4.446Z" transform="translate(-647.877 -693.064)"/></g><g transform="translate(12.826 34.742)"><path class="di" d="M643.794,685.055l-5.562-3.026,32.086-4.446,5.562,3.026Z" transform="translate(-638.232 -677.584)"/></g><g transform="translate(12.826 37.431)"><path class="dp" d="M643.794,686.774l-5.562-3.026.008-1.757,5.562,3.026Z" transform="translate(-638.232 -681.992)"/></g><g transform="translate(12.834 32.985)"><path class="cn" d="M643.807,682.175l-5.562-3.026,32.086-4.446,5.562,3.026Z" transform="translate(-638.245 -674.703)"/></g><g transform="translate(12.526 26.955)"><path class="di" d="M643.3,673.149l-5.562-3.026,32.865-5.3,5.562,3.026Z" transform="translate(-637.74 -664.819)"/></g><g transform="translate(12.399 24.515)"><path class="dw" d="M643.221,671.59l-5.562-3.026-.127-7.744,5.562,3.026Z" transform="translate(-637.532 -660.82)"/></g><g transform="translate(17.961 22.236)"><path class="dr" d="M679.514,657.085l.127,7.744-32.865,5.3-.127-7.744Z" transform="translate(-646.649 -657.085)"/></g><g transform="translate(12.399 19.211)"><path class="dx" d="M643.094,660.455l-5.562-3.026,32.865-5.3,5.562,3.026Z" transform="translate(-637.532 -652.125)"/></g><g transform="translate(4.48 13.953)"><path class="dy" d="M631.26,710l-5.562-3.026-1.147-63.468,5.562,3.026Z" transform="translate(-624.55 -643.507)"/></g><g transform="translate(4.48 3.675)"><path class="cn" d="M630.112,639.963l-5.562-3.026,63.5-10.279,5.562,3.026Z" transform="translate(-624.55 -626.658)"/></g><g transform="translate(0.605 11.672)"><path class="cq" d="M624.814,719.884l-5.562-3.026L618.2,639.767l5.562,3.026Z" transform="translate(-618.199 -639.767)"/></g><g transform="translate(0.605 1.334)"><path class="di" d="M623.761,636.185l-5.562-3.026,63.747-10.338,5.562,3.026Z" transform="translate(-618.199 -622.821)"/></g><g transform="translate(5.562 3.025)"><path class="dj" d="M694.933,625.594l.007.321.007.321-1.543.25-.006-.4-2.726.431,0,.321-63.746,10.43,1.054,77.091,44.9-7.122a8.114,8.114,0,0,1,4.605,5.975,11.346,11.346,0,0,1-3.4,9.716l13.394-1.408a7.64,7.64,0,0,1-4.922-6.279,11.045,11.045,0,0,1,4.328-10.184l10.584-1.719.015.641-10.375,1.643a10.3,10.3,0,0,0-3.965,9.437,6.963,6.963,0,0,0,6.618,6.226l-.06.646-17.435,1.828.778-.663a10.746,10.746,0,0,0,3.858-9.686,7.553,7.553,0,0,0-4.172-5.509L627.4,715.088l0-.321-1.066-78.049Z" transform="translate(-626.325 -625.594)"/></g><g transform="translate(6.167 3.346)"><path class="dm" d="M682.949,715.444a7.639,7.639,0,0,0,4.922,6.279l-13.394,1.408a11.346,11.346,0,0,0,3.4-9.716,8.1,8.1,0,0,0-4.532-5.944l-44.975,7.091-1.054-77.091,63.747-10.338,2.73-.2,1.54-.49-.007-.321,1.2,36.492-.392.054-.317-7.213q.189-.125.375-.264l-.381-13.594c-.15-.051-.357-.116-.611-.177l-.5-11.4-.009-.547-63.5,10.279,1.147,63.468,65.089-10.656-.011-.552-.012-.547-.489-10.9.944,22.973-10.515,1.667A11.082,11.082,0,0,0,682.949,715.444Zm-.4-10.031c.739-.72,1.323-2,.972-2.588-.162-.27-.477-.3-.874-.245-.21.029-.443.083-.689.137s-.509.115-.774.152a2.392,2.392,0,0,1-1.668-.262c-1.6-1.015-.94-4.065-1.482-4.063-.674.093-2.75,4.007-1.224,6.373a3.686,3.686,0,0,0,3.644,1.478,3.739,3.739,0,0,0,2.1-.983" transform="translate(-627.316 -626.12)"/></g><g transform="translate(11.081 7.248)"><path class="dm" d="M689.039,684.589l11.019-1.527.479,10.9-64.058,10.489-1.107-61.275,62.474-10.114-.009-.547.5,11.4a7.034,7.034,0,0,0-2.613-.127,7.128,7.128,0,0,0-1.892.544,7.781,7.781,0,0,0-1.961,1.24c-2.34,2.08-4.552,7.273-2.107,10.984a6.045,6.045,0,0,0,6.017,2.626,7.669,7.669,0,0,0,3.172-1.233l.317,7.213-9.6,1.332,0,1.171,9.655-1.339.308,7.008-9.639,1.336,0,1.176,9.693-1.343.325,7.4-10.965,1.519Zm-46.66-24.036,32.865-5.3-.128-7.744-32.865,5.3.127,7.744m31.759,19.407.008-1.762-32.028,4.438-.066,1.77,32.086-4.446m.949-8.749.008-1.757L643.008,673.9,643,675.656l32.086-4.446m-32.408-3.729,32.086-4.447.009-1.757-32.086,4.446-.009,1.758" transform="translate(-635.371 -632.515)"/></g><g transform="translate(18.388 36.01)"><path class="dj" d="M647.357,684.109l32.086-4.446-.008,1.757-32.086,4.446Z" transform="translate(-647.349 -679.663)"/></g><g transform="translate(0 11.124)"><path class="dp" d="M623.836,719.944l-5.562-3.026-1.067-78.049,5.562,3.026Z" transform="translate(-617.207 -638.869)"/></g><path class="cn" d="M622.769,634.784l-5.562-3.026,68.608-11.124,5.562,3.026Z" transform="translate(-617.207 -620.635)"/></g></g><path class="dz" d="M774.578,706.47l-32.827-.817q-.712-29.8-1.423-59.6h34.25Z" transform="translate(-262.251 -220.909)"/><ellipse class="dz" cx="13.556" cy="64.235" rx="13.556" ry="64.235" transform="translate(464.061 404.587)"/><ellipse class="dz" cx="13.556" cy="47.983" rx="13.556" ry="47.983" transform="translate(332.971 374.783)"/><ellipse class="dz" cx="33.847" cy="74.005" rx="33.847" ry="74.005" transform="translate(360.083 192.673)"/><ellipse class="dz" cx="13.556" cy="47.983" rx="13.556" ry="47.983" transform="translate(495.202 284.66)"/><circle class="ea" cx="8.077" cy="8.077" r="8.077" transform="translate(333.144 598.019)"/><path class="b" d="M525.826,906.872l87.484-1.948,21.133-21.133h39.364l27.8-27.8h25.175" transform="translate(-184.605 -300.776)"/><path class="b" d="M355.413,452.561H246.256l-47.2-47.2H156.3l-38.183-38.183" transform="translate(-19.618 -112.161)"/><circle class="ea" cx="8.077" cy="8.077" r="8.077" transform="translate(90.421 246.937)"/><circle class="ea" cx="8.077" cy="8.077" r="8.077" transform="translate(67.807 454.039)"/><path class="b" d="M410.747,625.624h-18.96v81.411H262.2l-41.322,41.322-72.015-72.015H81.046" transform="translate(-5.163 -212.944)"/><path class="b" d="M410.453,193.027H346.078V92.786" transform="translate(-108.512 -5.163)"/><circle class="ea" cx="8.077" cy="8.077" r="8.077" transform="translate(229.489 79.546)"/></g></svg>