<svg xmlns="http://www.w3.org/2000/svg" width="660" height="495" viewBox="0 0 660 495"><defs><style>.a{fill:#1b3d6c;}.b,.g{fill:none;}.b{stroke:#78ffff;stroke-width:4px;}.c,.e{fill:#78ffff;}.c{stroke:#1b3c6d;stroke-miterlimit:10;stroke-width:5px;}.d{fill:#063b6d;}.f{stroke:none;}</style></defs><g transform="translate(-1064 -686)"><circle class="a" cx="75" cy="75" r="75" transform="translate(1064 686)"/><circle class="a" cx="107" cy="107" r="107" transform="translate(1319 809)"/><circle class="a" cx="54.5" cy="54.5" r="54.5" transform="translate(1518 686)"/><circle class="a" cx="86" cy="86" r="86" transform="translate(1552 1009)"/><circle class="a" cx="26.5" cy="26.5" r="26.5" transform="translate(1171 970)"/><line class="b" x1="212.881" y1="112.059" transform="translate(1155.619 774.441)"/><line class="b" x1="165.041" y2="45.368" transform="translate(1206.459 951.5)"/><line class="b" x2="139.506" y2="110.807" transform="translate(1470.5 965.5)"/><line class="b" y1="101.887" x2="91.606" transform="translate(1466.5 759.613)"/><g class="b" transform="translate(1116 738)"><circle class="f" cx="24" cy="24" r="24"/><circle class="g" cx="24" cy="24" r="22"/></g><g class="b" transform="translate(1186 985)"><circle class="f" cx="11.5" cy="11.5" r="11.5"/><circle class="g" cx="11.5" cy="11.5" r="9.5"/></g><g class="b" transform="translate(1602 1059)"><circle class="f" cx="36" cy="36" r="36"/><circle class="g" cx="36" cy="36" r="34"/></g><g class="b" transform="translate(1547 715)"><ellipse class="f" cx="26" cy="25.5" rx="26" ry="25.5"/><ellipse class="g" cx="26" cy="25.5" rx="24" ry="23.5"/></g><g class="b" transform="translate(1358 848)"><circle class="f" cx="68.5" cy="68.5" r="68.5"/><circle class="g" cx="68.5" cy="68.5" r="66.5"/></g><g transform="translate(-207.132 -1311.222)"><path class="c" d="M1599.4,2243.551l-3.845-29c1.124-11.447,4.089-18.816,6.082-22.824.961-1.934,2.108-3.911,4.373-4.914,4.314-1.911,9.026,1.339,13.557,2.876,5.095,1.729,12.873,2.281,24.613-2.945,7.851-8.008,19.2-9.374,25.087-5.279,7.006,4.879,8.572,19.128-2.126,28.9v38.25a30.166,30.166,0,0,1-7.672,19.115c-9.02,10.025-21.64,10.649-23.766,10.72-2.694.091-14.058.871-23.115-6.47-2.149-1.742-5.934-4.809-7.616-9.871-1.2-3.6-.546-5.855-2.019-10.76A32.141,32.141,0,0,0,1599.4,2243.551Z" transform="translate(-1.216 0)"/><path class="c" d="M1669.2,2226.906c-10.591,4.494-19.013,4.988-24.84,4.562-11.247-.823-21.428-5.7-23.926-2.341-.662.89-.466,1.928-.246,3.272.756,4.627,2.2,13.243,1.373,18.642-2.608,17.023-8.645,15.6-8.645,15.6s-8.3-1.161-9.88-8.125c-.528-2.324-.961-7.093-.961-7.093" transform="translate(-3.502 -16.721)"/><ellipse class="d" cx="5.132" cy="7.557" rx="5.132" ry="7.557" transform="translate(1630.857 2224.375)"/><path class="d" d="M1655.312,2288.15a10.259,10.259,0,1,0,20.518,0Z" transform="translate(-19.257 -38.197)"/><path class="d" d="M1638.245,2191.668s-31.922,2.617-24.837,36.369a16.2,16.2,0,0,1,9.24,14.844,16.489,16.489,0,0,1-5.584,12.487s3.682,3.98,5.584,5.149,3.35-.87,3.35-.87,5.688,3.448,1.253,3.545-12.409-6.22-12.409-6.22a14.579,14.579,0,0,1-7.474,2.058c-8.435,0-15.279-7.227-15.279-16.149a16.2,16.2,0,0,1,9.24-14.844s-2.981-35.785,24.668-36.369S1638.245,2191.668,1638.245,2191.668Z" transform="translate(0 -4.272)"/><ellipse class="d" cx="5.132" cy="7.557" rx="5.132" ry="7.557" transform="translate(1649.64 2224.375)"/><path class="e" d="M1608.336,2257.713a9.3,9.3,0,1,0,9.3,9.3A9.3,9.3,0,0,0,1608.336,2257.713Zm.183,11.4a4.809,4.809,0,1,1,4.81-4.809,4.81,4.81,0,0,1-4.81,4.809h0Z" transform="translate(-2.436 -27.524)"/></g></g></svg>