<svg xmlns="http://www.w3.org/2000/svg" width="451.724" height="265.457" viewBox="0 0 451.724 265.457"><defs><style>.a{fill:#78ffff;stroke-width:2.153px;}.a,.b{stroke:#1b3c6d;stroke-miterlimit:10;}.b,.c,.e,.f{fill:none;}.d{fill:#1b3d6c;}.e,.f{stroke:#1b3d6c;}.e{stroke-width:4px;}</style></defs><g transform="translate(-684.655 -1352.805)"><path class="a" d="M934.161,1486.265l13.726,68.594,161.15-167.712Z"/><path class="a" d="M826,1505.2l108.16-16.574,200.147-133.156Z"/><path class="a" d="M1050.783,1595.259,934.161,1488.631l200.147-133.156Z"/><path class="b" d="M981.165,1549.39c-51.819,62.589-84.708,72.412-105.976,67.159-32.8-8.1-39.413-52.414-79.062-62.548-27.858-7.12-55.934,6.746-76.4,20.774"/><path class="b" d="M1036.492,1365.477a355.767,355.767,0,0,1-109.693,8.484c-25.474-2-51-6.753-76.407-4.043s-51.649,14.584-63.424,37.262"/><path class="b" d="M855.828,1468.358c-34.09,12.909-69.708,26.036-105.98,22.422"/><path class="c" d="M721.742,1593.068c-.6-1.181-4.45-6.409-6.205-6.808-3.355-.77-6.158,9.536-14.487-.186-8.074-10.924.45-14.325.45-14.325s-3.957-7.1-7.6-7.845-4.626,2.345-6.983,4.9-5.283,11.827,5.169,25.581,20.8,7.609,20.8,7.609S723.713,1596.98,721.742,1593.068Z"/><path class="d" d="M693.568,1568.118a2.369,2.369,0,0,0-.49-.294,1.622,1.622,0,0,0-.169-.024,11.617,11.617,0,0,0-1.276,1.529,27.971,27.971,0,0,1-1.78,2.189c-.371.4-1.382,2.3-1.168,5.622.359,5.568,3.777,11.136,6.581,14.826a23.919,23.919,0,0,0,4.857,4.914,11.484,11.484,0,0,0,7.564,2.465,8.6,8.6,0,0,0,3.182-.8l.094-.061.243-.113a34.841,34.841,0,0,0,3.369-1.856,14.874,14.874,0,0,0,3.1-2.408,32.047,32.047,0,0,0-2.648-3.279l-.1.083a13.25,13.25,0,0,1-4.958,3.03,8.426,8.426,0,0,1-4.159.141,11.1,11.1,0,0,1-4.167-1.952,21.364,21.364,0,0,1-3.631-3.451l-.094-.109-.086-.116c-3.708-5.019-5.006-9.61-3.857-13.646a10.115,10.115,0,0,1,2.16-3.947,13.785,13.785,0,0,0-2.567-2.741m2.352-3.236c2.949,2.143,5.58,6.867,5.58,6.867s-8.523,3.4-.451,14.325a17.575,17.575,0,0,0,2.946,2.818c6.111,4.442,8.617-3.3,11.542-2.632a2.688,2.688,0,0,1,.91.473,27.026,27.026,0,0,1,5.295,6.335c1.971,3.912-8.854,8.931-8.854,8.931s-6.9,4.092-15.117-1.883a27.714,27.714,0,0,1-5.69-5.73c-10.452-13.753-7.526-23.024-5.169-25.58s3.337-5.634,6.984-4.9A5.351,5.351,0,0,1,695.92,1564.882Z"/><path class="c" d="M699.318,1465.061l20.692,13.977,20.132-13.977v29.625H699.318Z"/><path class="d" d="M703.318,1472.589v18.1h32.825v-17.978l-13.852,9.616-2.25,1.562-2.27-1.533-14.453-9.763m-4-7.528,20.692,13.976,20.133-13.976v29.624H699.318Z"/><line class="e" x2="40" transform="translate(699.818 1466.561)"/><path class="c" d="M745.348,1393.681c0-8.609,6.364-13.594,13.111-13.594s13.873,4.985,13.873,13.594-13.873,24.231-13.873,24.231S745.348,1402.288,745.348,1393.681Z"/><path class="d" d="M758.458,1385.087c-3.906,0-8.11,2.69-8.11,8.594a13.681,13.681,0,0,0,1.574,5.291,56.077,56.077,0,0,0,4.106,7.225c.866,1.32,1.738,2.566,2.544,3.678.876-1.139,1.828-2.423,2.774-3.786,5.555-8,5.986-11.519,5.986-12.408a8.664,8.664,0,0,0-.76-3.661,7.89,7.89,0,0,0-1.96-2.618,9.4,9.4,0,0,0-6.154-2.315m0-5c6.746,0,13.874,4.988,13.874,13.594s-13.874,24.231-13.874,24.231-13.11-15.624-13.11-24.231S751.712,1380.087,758.458,1380.087Z"/><circle class="d" cx="4.5" cy="4.5" r="4.5" transform="translate(754.348 1387.772)"/><circle class="f" cx="4" cy="4" r="4" transform="translate(754.848 1388.272)"/></g></svg>