<svg xmlns="http://www.w3.org/2000/svg" width="660.115" height="492.4" viewBox="0 0 660.115 492.4"><defs><style>.a{fill:#1b3c6d;}.b{fill:none;stroke:#1b3c6d;stroke-miterlimit:10;}.c,.d{fill:#78ffff;}.d{opacity:0.33;}</style></defs><g transform="translate(956.748 -1200.724)"><path class="a" d="M-406.218,1643.151c-30.246,28.476-62.8,43.018-72.724,32.479l-247.282-262.643c-9.914-10.529,6.56-42.149,36.806-70.626s62.81-43.026,72.724-32.5l247.282,262.643C-359.489,1583.045-375.972,1614.674-406.218,1643.151Z" transform="translate(69.892 14.061)"/><path class="b" d="M-956.337,1580.307c27.947,40.416,81.734,57.63,130.43,51.057,6.557-.884,26.463-5.509,45.241-19.585,86.731-65.006,15.937-239.043,84-285.536,18.744-12.805,52.009-18.662,115.7,9.591" transform="translate(0 16.882)"/><rect class="c" width="13.268" height="10.259" rx="3.923" transform="translate(-716.005 1352.218) rotate(-45)"/><rect class="c" width="13.268" height="10.259" rx="3.923" transform="translate(-716.005 1352.218) rotate(-45)"/><rect class="c" width="4.97" height="29.823" rx="1.901" transform="matrix(0.976, -0.216, 0.216, 0.976, -720.744, 1308.05)"/><rect class="c" width="4.97" height="19.862" rx="1.901" transform="matrix(0.976, -0.216, 0.216, 0.976, -707.853, 1366.218)"/><rect class="c" width="4.97" height="19.862" rx="1.901" transform="matrix(0.574, -0.819, 0.819, 0.574, -735.973, 1338.583)"/><rect class="c" width="4.97" height="32.093" rx="1.901" transform="translate(-697.632 1354.322) rotate(-92.445)"/><rect class="c" width="4.97" height="19.862" rx="1.901" transform="matrix(0.866, 0.5, -0.5, 0.866, -693.368, 1324.583)"/><rect class="c" width="4.97" height="19.862" rx="1.901" transform="translate(-716.376 1356.911) rotate(40.883)"/><path class="d" d="M-650.052,1319.435l238.206,250.016s-3.937,12.469-11.813,9.844S-650.052,1319.435-650.052,1319.435Z" transform="translate(94.208 18.059)"/><path class="d" d="M-723.9,1386.474l22.985,30.167c-6.913-11.67-13.157-27.145-8.9-42.493,4.968-17.928,22.514-29.388,21.247-30.8-.836-.934-8.641,3.85-15.45,10.293A74.638,74.638,0,0,0-723.9,1386.474Z" transform="translate(71.493 25.378)"/><circle class="d" cx="87.44" cy="87.44" r="87.44" transform="translate(-795.126 1260.724)"/></g></svg>